<?xml version="1.0" standalone="no" ?>
<!DOCTYPE svg PUBLIC "-//W3C//DTD SVG 20010904//EN" "http://www.w3.org/TR/2001/REC-SVG-20010904/DTD/svg10.dtd">
<svg version="1.0" xmlns="http://www.w3.org/2000/svg" width="933.3" height="933.3" viewBox="0 0 700 700">
  <path
    d="M144.4 114.4a19.2 19.2 0 0 0-5.8 5.5c-1.9 3.4-2 5.3-2.1 52.4 0 26.9.2 49.2.5 49.6.3.4 1.4 1 2.5 1.4 1.1.3 4.3 1.4 7 2.5l27 10.1a1354 1354 0 0 1 24.5 9.3l40.5 15.3 88.5 33.3a52995 52995 0 0 0 97 36.5l51.8 19.6c2.9 1.2 5.7 2.1 6.3 2.1.7 0 .9-11.1.7-32.8-.3-32-.3-32.8-2.7-37.5-1.2-2.6-3.5-6-5-7.5a631 631 0 0 0-44.2-23.6L354.5 212l-164.1-82.9c-35.7-18-38.5-18.9-46-14.7zM136.6 326.7c.1 31.3.6 50 1.2 52.1a38.2 38.2 0 0 0 18.7 21.3c3.5 1.6 14.1 4 28 6.3l16 3.1 15.5 3 5.7 1a571.4 571.4 0 0 0 32.3 6c1.7.5 22.2 4.4 63 11.9a1859.3 1859.3 0 0 1 36.9 7.1l40.5 7.6 45.1 8.4 21.1 4 28.9 5.4 8.5 1.6 39.5 7.5 16 3 7.3 1.5c1.2.2 2.3.1 2.3-.3.6-3.9.3-51.8-.4-55.2a22 22 0 0 0-3.3-7.6c-2.5-3.3-3.6-3.8-35.9-13.9l-19-6c-2.2-.8-13.4-4.4-25-8l-43-13.7-60-19.1-65-20.7-31.5-10-22-7-23-7.3-78.9-25.1c-9.6-3.1-17.9-5.6-18.5-5.6-.8 0-1.1 14.2-1 48.7zM325 517.1c0 37.1.2 40.7 1.9 44.4 2 4.6 5.5 8.6 8.8 10.4 3.1 1.6 219.5 1.6 222.5 0 4.5-2.4 5.1-6.5 5.2-36.2.1-15.2-.1-27.7-.4-27.7l-15.5-1.9-20-2.6-7.1-1-8-1-8.4-1.1c-3.2-.5-16-2.2-22.5-2.9l-7.5-1-23-3-14-2c-.8-.2-4.6-.7-8.5-1-3.8-.4-7.2-.8-7.5-1a385.5 385.5 0 0 1-19.5-2.5 281 281 0 0 0-19.5-2.5 2135.8 2135.8 0 0 0-30-4 485.6 485.6 0 0 0-23.7-3.1l-3.3-.6v40.3z"
  />
</svg>
