<svg width="32" height="32" fill="none" xmlns="http://www.w3.org/2000/svg">
  <path
    d="M11.78 23.51a7.77 7.77 0 0 0 10.99-.07 7.77 7.77 0 0 0 .07-10.98 7.77 7.77 0 0 0-10.99.07 7.77 7.77 0 0 0-.07 10.98Z"
    stroke="#5BEA83"
    stroke-width=".9"
    stroke-miterlimit="10"
  />
  <path
    d="M12.98 22.3a6.11 6.11 0 0 0 8.64-.04 6.11 6.11 0 0 0 .05-8.64 6.11 6.11 0 0 0-8.64.05 6.11 6.11 0 0 0-.05 8.64Z"
    stroke="#5BEA83"
    stroke-width=".9"
    stroke-miterlimit="10"
  />
  <path
    d="M19.23 15.82 15.05 20M15.05 15.82 19.23 20"
    stroke="#5BEA83"
    stroke-width=".9"
    stroke-linecap="round"
    stroke-linejoin="round"
  />
  <path
    d="m11.3 25.95-2.98 3c-.27.25-.62.4-.99.4s-.72-.14-.98-.4l-.38-.37c-.25-.26-.4-.61-.4-.98s.16-.72.42-.98l2.99-3 2.33 2.33Z"
    stroke="#5BEA83"
    stroke-width=".9"
    stroke-miterlimit="10"
  />
  <path d="m12.34 24.02-1.48 1.48-1.47-1.47 1.48-1.48" stroke="#5BEA83" stroke-width=".9" stroke-miterlimit="10" />
</svg>
