<svg width="32" height="32" viewBox="0 0 32 32" fill="none" xmlns="http://www.w3.org/2000/svg">
  <path
    d="M6.32126 15.6871V14.3213C6.32126 13.769 6.76897 13.3213 7.32126 13.3213H24.8194C25.3717 13.3213 25.8194 13.769 25.8194 14.3213V24.3916C25.8194 24.9439 25.3717 25.3916 24.8194 25.3916H23.7304"
    stroke="#5BEA83"
    stroke-width="0.9"
  />
  <path
    d="M7.71399 13.1011V12C7.71399 11.4477 8.1617 11 8.71399 11L26.6764 11C27.2287 11 27.6764 11.4477 27.6764 12L27.6764 22.9988C27.6764 23.5511 27.2287 23.9988 26.6764 23.9988H25.8194"
    stroke="#5BEA83"
    stroke-width="0.9"
  />
  <rect x="5.37853" y="16.0923" width="18.1339" height="10.7061" rx="0.55" stroke="#5BEA83" stroke-width="0.9" />
  <circle cx="14.4455" cy="21.4454" r="2.10333" stroke="#5BEA83" stroke-width="0.9" />
  <path d="M23.4982 18.8921C21.9599 18.8921 20.7128 17.6451 20.7128 16.1067" stroke="#5BEA83" stroke-width="0.9" />
  <path d="M5.39277 18.8921C6.93113 18.8921 8.17822 17.6451 8.17822 16.1067" stroke="#5BEA83" stroke-width="0.9" />
  <path d="M5.39277 23.9987C6.93113 23.9987 8.17822 25.2458 8.17822 26.7842" stroke="#5BEA83" stroke-width="0.9" />
  <path d="M23.4982 23.9987C21.9599 23.9987 20.7128 25.2458 20.7128 26.7842" stroke="#5BEA83" stroke-width="0.9" />
</svg>
