<svg width="24" height="24" fill="none" xmlns="http://www.w3.org/2000/svg">
  <path
    d="M8.258 19.91h10.307c.466 0 .806-.321.806-.744 0-.38-.277-.628-.608-.781-.948-.424-1.138-1.694-.135-2.54.45-.358.735-.723.735-1.467V6.474c0-1.613-.924-2.474-2.654-2.474H8.274c-1.737 0-2.653.854-2.653 2.474v10.984c0 1.598.924 2.452 2.637 2.452Zm8.27-14.283c.726 0 1.074.344 1.074.986v7.51c0 .32-.198.496-.561.496H9.483V5.627h7.044Zm-9.146 9.225v-8.24c0-.59.3-.933.916-.977v8.991a2.49 2.49 0 0 0-.916.226Zm3.514-5.977h5.276c.324 0 .592-.24.592-.54 0-.3-.268-.547-.592-.547h-5.276c-.324 0-.592.248-.592.547 0 .3.268.54.592.54Zm0 2.051H14.9c.324 0 .593-.248.593-.547 0-.3-.269-.54-.593-.54h-4.004c-.324 0-.592.24-.592.54 0 .299.268.547.592.547Zm-2.345 7.495c-.87 0-1.311-.474-1.311-1.16 0-.657.505-1.146 1.366-1.146h7.748c.079 0 .158-.007.229-.022-.395.781-.364 1.642.055 2.328H8.551Z"
    fill="currentColor"
  />
</svg>
