<svg width="24" height="24" viewBox="0 0 24 24" fill="none" xmlns="http://www.w3.org/2000/svg">
  <path
    d="M17.3656 12H16.1156V5.2504H6.25V17.5826C6.42442 17.4936 6.61898 17.4459 6.81847 17.4459C7.14999 17.4459 7.46793 17.5776 7.70235 17.812L8.27324 18.3829L8.84413 17.812C9.07855 17.5776 9.39649 17.4459 9.72802 17.4459C10.0595 17.4459 10.3775 17.5776 10.6119 17.812L11.1828 18.3829L11.7537 17.812C11.9881 17.5776 12.306 17.4459 12.6376 17.4459C12.6417 17.4459 12.6459 17.4459 12.65 17.4459V18.7083L12.6376 18.6959L11.4385 19.8949C11.3704 19.9622 11.2785 20 11.1828 20C11.087 20 10.9952 19.9622 10.9271 19.8949L9.72802 18.6959L8.52896 19.8949C8.46088 19.9622 8.36899 20 8.27324 20C8.1775 20 8.08561 19.9622 8.01752 19.8949L6.81847 18.6959L5.61942 19.8949C5.56856 19.9452 5.50402 19.9794 5.43385 19.9931C5.36369 20.0069 5.29102 19.9997 5.22492 19.9725C5.15883 19.9452 5.10224 19.899 5.06224 19.8397C5.02223 19.7805 5.00059 19.7107 5 19.6392V4.36409C4.99961 4.27326 5.03322 4.18558 5.09421 4.11827C5.1552 4.05097 5.23917 4.00892 5.3296 4.0004C5.34096 3.99987 5.35234 3.99987 5.3637 4.0004H17.0019C17.0983 4.00041 17.1908 4.03873 17.259 4.10693C17.3272 4.17514 17.3656 4.26764 17.3656 4.36409V12Z"
    fill="currentColor"
  />
  <path d="M7.75 8.5H14.35V9.75H7.75V8.5Z" fill="currentColor" />
  <path d="M11.75 11.5H7.75V12.75H11.75V11.5Z" fill="currentColor" />
  <path
    d="M16.75 14C17.1642 14 17.5 14.3358 17.5 14.75V16.25H19C19.4142 16.25 19.75 16.5858 19.75 17C19.75 17.4142 19.4142 17.75 19 17.75H17.5V19.25C17.5 19.6642 17.1642 20 16.75 20C16.3358 20 16 19.6642 16 19.25V17.75H14.5C14.0858 17.75 13.75 17.4142 13.75 17C13.75 16.5858 14.0858 16.25 14.5 16.25H16V14.75C16 14.3358 16.3358 14 16.75 14Z"
    fill="currentColor"
  />
</svg>
