<svg viewBox="0 0 24 16" fill="none" xmlns="http://www.w3.org/2000/svg">
  <path
    d="M12.366 8h-1.25V1.25H1.25v12.333a1.25 1.25 0 0 1 1.452.229l.571.57.571-.57a1.25 1.25 0 0 1 1.768 0l.57.57.572-.57a1.25 1.25 0 0 1 .884-.366h.012v1.262l-.012-.012-1.2 1.199a.364.364 0 0 1-.51 0l-1.2-1.2-1.199 1.2a.364.364 0 0 1-.511 0l-1.2-1.2-1.199 1.2A.363.363 0 0 1 0 15.639V.364A.364.364 0 0 1 .364 0h11.638a.364.364 0 0 1 .364.364V8Z"
    fill="currentColor"
  />
  <path
    d="M2.75 4.5h6.6v1.25h-6.6V4.5ZM6.75 7.5h-4v1.25h4V7.5ZM11.75 10a.75.75 0 0 1 .75.75v1.5H14a.75.75 0 0 1 0 1.5h-1.5v1.5a.75.75 0 0 1-1.5 0v-1.5H9.5a.75.75 0 0 1 0-1.5H11v-1.5a.75.75 0 0 1 .75-.75Z"
    fill="currentColor"
  />
</svg>
