<svg width="24" height="24" fill="none" xmlns="http://www.w3.org/2000/svg">
  <path
    fill-rule="evenodd"
    clip-rule="evenodd"
    d="M10.563 5.08a1.66 1.66 0 0 1 2.874 0l7.09 12.278a1.66 1.66 0 0 1-1.438 2.49H4.911a1.66 1.66 0 0 1-1.437-2.49L10.563 5.08Zm1.575.75a.16.16 0 0 0-.276 0l-7.09 12.278a.16.16 0 0 0 .139.24h14.178a.16.16 0 0 0 .138-.24L12.138 5.83ZM12 8.694a.75.75 0 0 1 .75.75V13a.75.75 0 0 1-1.5 0V9.444a.75.75 0 0 1 .75-.75Zm-.75 7.417a.75.75 0 0 1 .75-.75h.009a.75.75 0 0 1 0 1.5H12a.75.75 0 0 1-.75-.75Z"
    fill="currentColor"
  />
</svg>
