<svg width="18" height="16" viewBox="0 0 18 16" fill="none" xmlns="http://www.w3.org/2000/svg">
  <path
    fill-rule="evenodd"
    clip-rule="evenodd"
    d="M7.56282 1.07977C8.20158 -0.0265898 9.79846 -0.026588 10.4372 1.07977L17.5263 13.3585C18.1651 14.4648 17.3666 15.8478 16.0891 15.8478H1.91091C0.6334 15.8478 -0.165042 14.4648 0.473713 13.3585L7.56282 1.07977ZM9.13818 1.82977C9.07677 1.72341 8.92326 1.72341 8.86186 1.82977L1.77275 14.1085C1.71135 14.2148 1.7881 14.3478 1.91091 14.3478H16.0891C16.2119 14.3478 16.2887 14.2148 16.2273 14.1085L9.13818 1.82977ZM9.00002 4.69445C9.41423 4.69445 9.75002 5.03023 9.75002 5.44445V9C9.75002 9.41421 9.41423 9.75 9.00002 9.75C8.58581 9.75 8.25002 9.41421 8.25002 9V5.44445C8.25002 5.03023 8.58581 4.69445 9.00002 4.69445ZM8.25002 12.1111C8.25002 11.6969 8.58581 11.3611 9.00002 11.3611H9.00891C9.42312 11.3611 9.75891 11.6969 9.75891 12.1111C9.75891 12.5253 9.42312 12.8611 9.00891 12.8611H9.00002C8.58581 12.8611 8.25002 12.5253 8.25002 12.1111Z"
    fill="#6B7280"
  />
</svg>
