<svg width="24" height="24" fill="none" xmlns="http://www.w3.org/2000/svg">
  <path
    d="M6.7 5.7c-.6.7-1 1.7-1 3.5v4.6c0 1.8.4 2.8 1 3.5.7.6 1.7 1 3.5 1h4.6c1.8 0 2.8-.4 3.5-1 .6-.7 1-1.7 1-3.6V9.3c0-1.9-.4-3-1-3.6-.7-.6-1.7-1-3.6-1h-4.4c-1.9 0-3 .4-3.6 1Zm-1-1c1-1 2.6-1.5 4.5-1.5h4.6c1.9 0 3.5.4 4.5 1.5 1 1 1.4 2.6 1.4 4.5v4.6c0 1.9-.3 3.5-1.4 4.5-1 1-2.6 1.4-4.6 1.4h-4.4c-2 0-3.6-.3-4.6-1.4-1-1-1.5-2.6-1.5-4.6V9.3c0-2 .4-3.6 1.5-4.6Zm6.8 1.5c.4 0 .8.4.8.8v.3c1.4 0 2.5 1.1 2.5 2.5a.8.8 0 0 1-1.5 0c0-.6-.5-1-1-1V11l1 .3c.3.1.7.3 1 .7.3.4.5 1 .5 1.5 0 1.2-1 2.2-2.2 2.2h-.3v.3a.8.8 0 0 1-1.6 0v-.3a2.5 2.5 0 0 1-2.4-2.5.8.8 0 0 1 1.5 0c0 .6.4 1 .9 1V12l-1-.3c-.3-.1-.7-.3-1-.7-.3-.4-.4-1-.4-1.5 0-1.2 1-2.2 2.2-2.2h.3V7c0-.4.3-.8.7-.8Zm-.8 2.6h-.2c-.4 0-.7.3-.7.7v.6l.4.2.6.1V8.8Zm1.6 3.8v1.6h.3c.3 0 .7-.3.7-.7 0-.4-.1-.5-.2-.6l-.3-.2-.6-.1Z"
    fill="currentColor"
  />
</svg>
