<svg width="24" height="24" fill="none" xmlns="http://www.w3.org/2000/svg">
  <path
    d="M11.7 20s.3 0 .5-.2c4.5-2.4 6.1-3.6 6.1-6.4v-6c0-.9-.4-1.2-1.2-1.6A119.4 119.4 0 0011.7 4l-.9.1-4.6 1.7c-.8.4-1.2.7-1.2 1.6v6c0 2.8 1.6 4 6 6.4.3.2.5.2.7.2zm0-1.7l-.5-.1C7.6 16 6.5 15.4 6.5 13V7.7c0-.3 0-.4.3-.5l4.4-1.6.5-.1h.4c1 .5 3.2 1.3 4.4 1.7.2 0 .3.2.3.5v5.4c0 2.3-1.2 3-4.7 5l-.4.2zm-.9-3c.3 0 .5-.1.7-.4l3.6-5.5.2-.5c0-.4-.4-.7-.8-.7-.2 0-.4.1-.6.4l-3.1 5-1.5-1.8c-.2-.3-.4-.4-.6-.4-.4 0-.7.3-.7.7 0 .2 0 .4.2.6l1.9 2.2c.2.3.4.4.7.4z"
    fill="currentColor"
  />
</svg>
