<svg width="14" height="14" viewBox="0 0 14 14" fill="none" xmlns="http://www.w3.org/2000/svg">
  <path
    d="M3.87622 9.25464C3.8396 11.5618 5.71338 13.3135 8.64917 13.3379L9.51587 13.344C10.3337 13.3501 10.938 13.2891 11.2798 13.1975C11.7742 13.0693 12.2563 12.7703 12.2563 12.1721C12.2563 11.928 12.1953 11.7571 12.1099 11.6167C12.061 11.5374 12.0671 11.4702 12.1465 11.4397C12.5371 11.281 12.8667 10.9148 12.8667 10.4082C12.8667 10.1274 12.7812 9.87109 12.647 9.69409C12.5737 9.60254 12.5859 9.52319 12.6958 9.44995C12.9827 9.28516 13.178 8.93115 13.178 8.51611C13.178 8.22925 13.0864 7.91187 12.9155 7.75928C12.8179 7.66772 12.8362 7.60669 12.9399 7.51514C13.1414 7.35034 13.2634 7.05737 13.2634 6.70337C13.2634 6.09302 12.7874 5.59863 12.1648 5.59863H9.93701C9.36938 5.59863 8.99707 5.30566 8.99707 4.8418C8.99707 3.9873 10.053 2.43701 10.053 1.32007C10.053 0.734131 9.67456 0.38623 9.18018 0.38623C8.72852 0.38623 8.50269 0.69751 8.25854 1.17358C7.32471 3.00464 6.06738 4.48779 5.10913 5.75732C4.29736 6.83765 3.90063 7.75928 3.87622 9.25464ZM0.800049 9.29736C0.800049 11.1711 1.97192 12.7397 3.53442 12.7397H4.65137C3.51611 11.9158 3.00342 10.6646 3.02783 9.23633C3.05225 7.64941 3.6626 6.52026 4.21802 5.83057H3.30249C1.88647 5.83057 0.800049 7.35645 0.800049 9.29736Z"
    fill="white"
  />
</svg>
