<svg width="24" height="24" viewBox="0 0 24 24" fill="none" xmlns="http://www.w3.org/2000/svg">
  <path
    d="M7.60981 19.6826H16.3902C17.1799 19.6826 17.7802 19.4799 18.1911 19.0743C18.602 18.6741 18.8074 18.0818 18.8074 17.2974V8.74917H17.5188V17.3615C17.5188 17.719 17.42 17.9938 17.2226 18.1859C17.0305 18.378 16.7584 18.474 16.4062 18.474H7.5938C7.23628 18.474 6.96148 18.378 6.76938 18.1859C6.57729 17.9938 6.48124 17.719 6.48124 17.3615V8.74917H5.1926V17.2974C5.1926 18.0872 5.39803 18.6821 5.8089 19.0823C6.21978 19.4825 6.82008 19.6826 7.60981 19.6826ZM9.36268 12.5751H14.6453C14.8161 12.5751 14.9548 12.5217 15.0615 12.415C15.1683 12.3083 15.2216 12.1669 15.2216 11.9908V11.7347C15.2216 11.5586 15.1683 11.4198 15.0615 11.3185C14.9548 11.2117 14.8161 11.1584 14.6453 11.1584H9.36268C9.19193 11.1584 9.05319 11.2117 8.94647 11.3185C8.84509 11.4198 8.7944 11.5586 8.7944 11.7347V11.9908C8.7944 12.1669 8.84509 12.3083 8.94647 12.415C9.05319 12.5217 9.19193 12.5751 9.36268 12.5751ZM5.52076 9.34947H18.4792C18.9702 9.34947 19.3463 9.20539 19.6078 8.91725C19.8693 8.62911 20 8.24225 20 7.75667V6.54006C20 6.04915 19.8693 5.66229 19.6078 5.37948C19.3463 5.09134 18.9702 4.94727 18.4792 4.94727H5.52076C5.05119 4.94727 4.68034 5.09134 4.4082 5.37948C4.13607 5.66229 4 6.04915 4 6.54006V7.75667C4 8.24225 4.13073 8.62911 4.3922 8.91725C4.65366 9.20539 5.02985 9.34947 5.52076 9.34947ZM5.84892 8.14086C5.64616 8.14086 5.50208 8.09551 5.41671 8.00479C5.33133 7.91408 5.28864 7.77001 5.28864 7.57258V6.72415C5.28864 6.52139 5.33133 6.37731 5.41671 6.29194C5.50208 6.20123 5.64616 6.15587 5.84892 6.15587H18.1591C18.3618 6.15587 18.5033 6.20123 18.5833 6.29194C18.6687 6.37731 18.7114 6.52139 18.7114 6.72415V7.57258C18.7114 7.77001 18.6687 7.91408 18.5833 8.00479C18.5033 8.09551 18.3618 8.14086 18.1591 8.14086H5.84892Z"
    fill="currentColor"
  />
</svg>
