<svg width="24" height="24" fill="none" xmlns="http://www.w3.org/2000/svg">
  <path
    d="M4 7.7c0 .5.3.8.9.8h1.7v8.9c0 1.6.8 2.4 2.4 2.4h8.6c1.4 0 2.4-1 2.4-2.5v-2c0-.6-.3-1-.9-1h-.6V6.5c0-1.6-.8-2.4-2.4-2.4h-10C4.7 4 4 4.8 4 6.1v1.6zM5.4 7v-1c0-.4.3-.7.6-.7.4 0 .7.3.7.7v1H5.4zm2.7 10.2v-11L8 5.4h8c.7 0 1 .3 1 1v7.9h-6c-.6 0-1 .3-1 .8v2.1c0 .6-.3 1-1 1a1 1 0 01-1-1zm2-8.8h5c.2 0 .4-.2.4-.5 0-.2-.2-.4-.5-.4h-4.9c-.3 0-.5.2-.5.4 0 .3.2.5.5.5zm0 2.5h2.6c.3 0 .5-.2.5-.4 0-.3-.2-.5-.5-.5h-2.6c-.3 0-.5.2-.5.5 0 .2.2.4.5.4zm1.2 7.3c.2-.3.2-.6.2-1v-1.5h7v1.4c0 .7-.4 1.1-1 1.1h-6.2z"
    fill="currentColor"
  />
</svg>
