<svg width="24" height="24" fill="none" xmlns="http://www.w3.org/2000/svg">
  <path
    d="M8 4c.4 0 .8.3.8.8V6h6.4V4.7a.8.8 0 011.6 0V6h.4C18.9 6 20 7.2 20 8.8v8.4c0 1.6-1.2 2.8-2.8 2.8H6.8A2.7 2.7 0 014 17.2V8.8C4 7.2 5.2 6 6.8 6h.5V4.7c0-.4.3-.7.7-.7zm-.8 3.5h-.5c-.6 0-1.2.6-1.2 1.3v8.4c0 .7.6 1.3 1.3 1.3h10.4c.7 0 1.3-.6 1.3-1.3V8.8c0-.7-.6-1.3-1.3-1.3h-.4v.8a.8.8 0 01-1.6 0v-.8H8.8v.8a.8.8 0 01-1.6 0v-.8zM7 10.8c0-.5.3-.8.8-.8h8.4a.8.8 0 010 1.5H7.8a.8.8 0 01-.8-.8z"
    fill="currentColor"
  />
</svg>
