<svg width="24" height="24" fill="none" xmlns="http://www.w3.org/2000/svg">
  <path
    d="M6.221 18.618h11.551c1.465 0 2.228-.756 2.228-2.201V8.2C20 6.756 19.237 6 17.772 6H6.222C4.761 6 4 6.75 4 8.2v8.217c0 1.445.763 2.2 2.221 2.2ZM5.343 8.322c0-.654.345-.979.966-.979h11.375c.621 0 .966.325.966.98V9.3H5.343v-.979Zm.966 8.952c-.621 0-.966-.324-.966-.979v-5.414H18.65v5.414c0 .655-.345.98-.966.98H6.31Zm1.08-1.377h1.654c.392 0 .662-.27.662-.648V14c0-.385-.27-.648-.662-.648H7.389c-.398 0-.668.263-.668.648v1.249c0 .378.27.648.668.648Z"
    fill="currentColor"
  />
</svg>
