<svg width="24" height="24" fill="none" xmlns="http://www.w3.org/2000/svg">
  <path
    d="M5.8 8.9c0-1 .2-1.5.4-1.7.2-.3.7-.5 2-.5h5.1a.8.8 0 0 0 0-1.5h-5c-1.4 0-2.5.2-3.2.9-.7.7-.8 1.8-.8 3v6c0 1.3 0 2.4.8 3.1.7.7 1.8.9 3.1.9h8c1.4 0 2.5-.2 3.2-.9.7-.7.9-1.8.9-3v-3a.8.8 0 0 0-1.6 0v3c0 1.2-.1 1.7-.4 2-.2.2-.7.4-2 .4h-8c-1.4 0-1.9-.2-2.1-.4-.3-.3-.5-.8-.5-2v-4.8h7.6a.8.8 0 0 0 0-1.5H5.8Zm11.7-3.7c.4 0 .8.4.8.8v1.2h1.2a.8.8 0 0 1 0 1.5h-1.2V10a.8.8 0 0 1-1.5 0V8.7h-1.3a.8.8 0 0 1 0-1.5h1.3V6c0-.4.3-.8.7-.8Z"
    fill="currentColor"
  />
  <path d="M9.6 16H8c-.4 0-.7-.2-.7-.6v-1.3c0-.3.3-.6.7-.6h1.6c.4 0 .7.3.7.6v1.3c0 .4-.3.6-.7.6Z" fill="currentColor" />
</svg>
