<svg width="24" height="24" fill="none" xmlns="http://www.w3.org/2000/svg">
  <path
    d="M19.66 5.1a.75.75 0 0 1 1.15.95l-.09.1-4 4.03a.75.75 0 0 1-.96.09l-.1-.09-1.85-1.6a.75.75 0 0 1 .96-1.14l.1.09 1.31 1.06 2.16-2.16 1.32-1.33ZM4.98 7.22c-.22.22-.39.65-.42 1.7h7.59a.75.75 0 1 1 0 1.5h-7.6v4.77c0 1.28.19 1.78.43 2.01.25.25.75.43 2.05.43h8.06c1.3 0 1.8-.18 2.05-.43.24-.23.42-.73.42-2v-2.97a.75.75 0 1 1 1.5 0v2.96c0 1.27-.14 2.37-.87 3.08-.72.71-1.82.86-3.1.86H7.03c-1.28 0-2.38-.15-3.1-.86-.73-.71-.87-1.8-.87-3.08V9.23c0-1.27.14-2.36.87-3.08.72-.7 1.82-.85 3.1-.85h5.12a.75.75 0 1 1 0 1.5H7.03c-1.3 0-1.8.18-2.05.42Zm1.8 8.88h1.65c.4 0 .66-.27.66-.65V14.2c0-.39-.27-.65-.66-.65H6.78c-.4 0-.67.26-.67.65v1.25c0 .38.27.65.67.65Z"
    fill="currentColor"
  />
</svg>
