<svg width="24" height="24" fill="none" xmlns="http://www.w3.org/2000/svg">
  <path
    d="M12.09 7.92c.31 0 .57.26.57.58v.17c.67.1 1.28.4 1.67.84a.57.57 0 1 1-.87.76 1.55 1.55 0 0 0-.8-.43v1.6c.46.08.88.24 1.22.47.48.32.87.82.87 1.46s-.39 1.14-.87 1.46c-.34.23-.76.39-1.22.46v.17a.57.57 0 1 1-1.15 0v-.17c-.67-.1-1.28-.4-1.67-.85a.58.58 0 0 1 .87-.75c.16.17.43.34.8.43v-1.61a3.07 3.07 0 0 1-1.22-.46 1.78 1.78 0 0 1-.87-1.46c0-.64.4-1.14.87-1.47.35-.22.77-.38 1.22-.45V8.5c0-.32.26-.58.58-.58Zm-.58 1.92c-.23.05-.43.14-.58.24-.27.18-.36.37-.36.5 0 .14.09.33.36.51.15.1.35.2.58.25v-1.5Zm1.15 2.78v1.5c.23-.06.43-.14.58-.25.28-.18.36-.37.36-.5s-.08-.32-.36-.5c-.15-.1-.35-.2-.58-.25Z"
    fill="currentColor"
  />
  <path
    d="M12 5.75a6.24 6.24 0 0 0-5.41 3.13.75.75 0 1 1-1.3-.76A7.77 7.77 0 0 1 19.5 10.1l.9-1.17a.75.75 0 0 1 1.19.91l-2.41 3.16-3.08-1.85a.75.75 0 1 1 .78-1.28l1.2.72A6.25 6.25 0 0 0 12 5.75Zm-7.25 5.23 3.14 1.88a.75.75 0 1 1-.78 1.28l-1.2-.72a6.25 6.25 0 0 0 11.61 1.51.75.75 0 1 1 1.33.7 7.75 7.75 0 0 1-14.3-1.47l-.41.67a.75.75 0 0 1-1.28-.78l1.89-3.07Z"
    fill="currentColor"
  />
</svg>
