<svg width="24" height="24" fill="none" xmlns="http://www.w3.org/2000/svg">
  <path
    d="M3.5 4.25c0-.41.34-.75.75-.75H6.5c.34 0 .64.23.73.57l.6 2.43h10.92a.75.75 0 0 1 .73.92l-1.64 6.96a2.75 2.75 0 0 1-2.67 2.12h-4.13a2.75 2.75 0 0 1-2.66-2.05L6.52 7.43 5.92 5H4.24a.75.75 0 0 1-.75-.75ZM8.22 8l1.61 6.07c.15.55.64.93 1.21.93h4.13c.58 0 1.08-.4 1.21-.96L17.8 8H8.22Zm.03 10.5a1.25 1.25 0 1 1 2.5 0 1.25 1.25 0 0 1-2.5 0Zm7 0a1.25 1.25 0 1 1 2.5 0 1.25 1.25 0 0 1-2.5 0Z"
    fill="currentColor"
  />
</svg>
