<svg width="24" height="24" fill="none" xmlns="http://www.w3.org/2000/svg">
  <path
    d="M4 6.31A2.31 2.31 0 0 1 6.31 4h2.67c.64 0 1.21.41 1.42 1.02l1.21 3.66a1.5 1.5 0 0 1-.75 1.81l-1.22.61a8.3 8.3 0 0 0 3.26 3.26l.61-1.22a1.5 1.5 0 0 1 1.81-.75l3.66 1.21c.6.2 1.02.78 1.02 1.42v2.67A2.31 2.31 0 0 1 17.69 20h-.81A12.88 12.88 0 0 1 4 7.12v-.8Zm2.31-.94a.94.94 0 0 0-.94.94v.81a11.5 11.5 0 0 0 11.5 11.5h.82c.52 0 .94-.41.94-.93v-2.67c0-.05-.04-.1-.09-.12L14.9 13.7a.13.13 0 0 0-.15.06l-.92 1.83a.69.69 0 0 1-.9.32 9.66 9.66 0 0 1-4.82-4.82.69.69 0 0 1 .32-.9l1.83-.92c.06-.02.08-.09.06-.15L9.1 5.46a.13.13 0 0 0-.12-.09H6.3Z"
    fill="currentColor"
  />
</svg>
