<svg width="24" height="24" fill="none" xmlns="http://www.w3.org/2000/svg">
  <path
    d="M4 17.9c0 .8.5 1.4 1.3 1.4h13.4c.8 0 1.3-.6 1.3-1.4V9.7c0-.9-.5-1.4-1.3-1.4H15v-2c0-.8-.5-1.3-1.3-1.3H5.3C4.5 5 4 5.5 4 6.4v11.5zm1.3-.3v-11c0-.2.1-.3.3-.3h7.7c.2 0 .3.1.3.3v11c0 .2-.1.4-.3.4h-1.5v-2c0-.5-.2-.8-.8-.8H8c-.5 0-.8.3-.8.8v2H5.6c-.2 0-.3-.2-.3-.4zm2-8.4h1.3c.1 0 .2-.1.2-.3V7.7c0-.2 0-.3-.2-.3H7.3c-.2 0-.3.1-.3.3v1.2c0 .2.1.3.3.3zm3 0h1.3c.2 0 .3-.1.3-.3V7.7c0-.2-.1-.3-.3-.3h-1.2c-.2 0-.3.1-.3.3v1.2c0 .2.1.3.3.3zm4.6 8.7V9.6h3.5c.2 0 .3.1.3.4v7.6c0 .2-.1.4-.3.4h-3.5v-.1zm-7.6-6.2h1.3c.1 0 .2-.1.2-.3v-1.2c0-.2 0-.3-.2-.3H7.3c-.2 0-.3.1-.3.3v1.2c0 .2.1.3.3.3zm3 0h1.3c.2 0 .3-.1.3-.3v-1.2c0-.2-.1-.3-.3-.3h-1.2c-.2 0-.3.1-.3.3v1.2c0 .2.1.3.3.3zm6 .4h1c.2 0 .2 0 .2-.2v-1c0-.2 0-.3-.2-.3h-1c-.2 0-.2.1-.2.3v1c0 .1 0 .2.2.2zm-9 2.1h1.3c.1 0 .2-.1.2-.3v-1.2c0-.1 0-.2-.2-.2H7.3c-.2 0-.3 0-.3.2V14c0 .2.1.3.3.3zm3 0h1.3c.2 0 .3-.1.3-.3v-1.2c0-.1-.1-.2-.3-.2h-1.2c-.2 0-.3 0-.3.2V14c0 .2.1.3.3.3zm6 .3h1c.2 0 .2 0 .2-.2v-1c0-.1 0-.2-.2-.2h-1c-.2 0-.2 0-.2.2v1c0 .1 0 .2.2.2zm0 2.5h1c.2 0 .2-.1.2-.3v-1c0-.1 0-.2-.2-.2h-1c-.2 0-.2.1-.2.2v1c0 .2 0 .3.2.3zM8 16.4c0-.1 0-.2.2-.2h2.3c.1 0 .2 0 .2.2V18H8.1v-1.6z"
    fill="currentColor"
  />
</svg>
