<svg width="24" height="24" fill="none" xmlns="http://www.w3.org/2000/svg">
  <path
    d="M3 18.3c0 1 .6 1.6 1.5 1.6h15c1 0 1.5-.6 1.5-1.6v-9c0-1-.6-1.6-1.5-1.6h-4.2v-2c0-1-.6-1.7-1.5-1.7H4.5C3.5 4 3 4.7 3 5.7v12.6Zm1.6-.3V6c0-.2.1-.4.3-.4h8.5c.2 0 .3.2.3.4v12c0 .2-.1.3-.3.3h-1.6v-2c0-.7-.3-1-.9-1H7.4c-.6 0-1 .3-1 1v2H5c-.2 0-.3 0-.3-.3Zm2.2-9.2h1.4c.1 0 .2-.1.2-.3V7.2c0-.2 0-.3-.2-.3H6.8c-.2 0-.3 0-.3.3v1.3c0 .2.1.3.3.3Zm3.3 0h1.4c.2 0 .3-.1.3-.3V7.2c0-.2-.1-.3-.3-.3h-1.4c-.1 0-.2 0-.2.3v1.3c0 .2 0 .3.2.3Zm5.2 9.5v-9h3.8c.2 0 .3.2.3.4V18c0 .2-.1.3-.3.3h-3.8Zm-8.5-6.8h1.4c.1 0 .2 0 .2-.3V10c0-.2 0-.3-.2-.3H6.8c-.2 0-.3.1-.3.3v1.3c0 .2.1.3.3.3Zm3.3 0h1.4c.2 0 .3 0 .3-.3V10c0-.2-.1-.3-.3-.3h-1.4c-.1 0-.2.1-.2.3v1.3c0 .2 0 .3.2.3Zm6.7.5h1.1c.2 0 .3 0 .3-.2v-1.1c0-.2-.1-.3-.3-.3h-1.1c-.1 0-.2.1-.2.3v1.1c0 .1 0 .2.2.2Zm-10 2.3h1.4l.2-.3v-1.4c0-.1 0-.3-.2-.3H6.8c-.2 0-.3.2-.3.3V14c0 .1.1.3.3.3Zm3.3 0h1.4c.2 0 .3-.2.3-.3v-1.4c0-.1-.1-.3-.3-.3h-1.4l-.2.3V14c0 .1 0 .3.2.3Zm6.7.4h1.1c.2 0 .3-.1.3-.3v-1c0-.2-.1-.3-.3-.3h-1.1c-.1 0-.2 0-.2.2v1.1c0 .2 0 .3.2.3Zm0 2.6h1.1c.2 0 .3 0 .3-.2V16c0-.2-.1-.3-.3-.3h-1.1c-.1 0-.2.1-.2.3v1c0 .2 0 .3.2.3Zm-9-.6.1-.2h2.5c.1 0 .2 0 .2.2v1.6H7.7v-1.6Z"
    fill="currentColor"
  />
</svg>
