<svg width="24" height="24" fill="none" xmlns="http://www.w3.org/2000/svg">
  <path
    d="M6.431 10.863c1.35 0 2.44-1.09 2.44-2.44A2.434 2.434 0 0 0 6.43 6a2.432 2.432 0 0 0 0 4.863Zm11.13 0c1.349 0 2.439-1.09 2.439-2.44A2.434 2.434 0 0 0 17.56 6a2.432 2.432 0 0 0 0 4.863ZM6.43 9.63c-.666 0-1.2-.525-1.2-1.207 0-.675.534-1.193 1.2-1.193.683 0 1.208.518 1.208 1.193 0 .682-.525 1.207-1.208 1.207Zm11.13 0c-.667 0-1.2-.525-1.2-1.207 0-.675.533-1.193 1.2-1.193.682 0 1.208.518 1.208 1.193 0 .682-.526 1.207-1.208 1.207ZM10.11 9.13c.337 0 .627-.29.627-.635a.631.631 0 1 0-.627.635Zm1.874 0c.353 0 .636-.29.636-.635a.631.631 0 0 0-1.263 0c0 .345.29.635.627.635Zm1.898 0c.345 0 .636-.29.636-.635a.636.636 0 0 0-.636-.627.63.63 0 0 0-.627.627c0 .345.282.635.627.635Zm1.765 3.318a.633.633 0 0 0 .635-.635.636.636 0 0 0-.635-.628.64.64 0 0 0-.627.628c0 .353.29.635.627.635Zm-7.302 0a.636.636 0 0 0 .628-.635.64.64 0 0 0-.628-.628.636.636 0 0 0-.635.628c0 .353.282.635.635.635Zm5.914 1.537a.63.63 0 1 0-.627-.635c0 .345.29.635.627.635Zm-4.526 0c.338 0 .628-.29.628-.635a.631.631 0 1 0-.627.635ZM12 19.044a2.432 2.432 0 1 0-2.431-2.44c0 1.349 1.09 2.44 2.431 2.44Zm0-1.232c-.675 0-1.2-.526-1.2-1.208 0-.675.533-1.192 1.2-1.192.682 0 1.2.517 1.2 1.192 0 .682-.518 1.208-1.2 1.208Z"
    fill="currentColor"
  />
</svg>
