<svg width="24" height="24" fill="none" xmlns="http://www.w3.org/2000/svg">
  <path
    d="M4 6.8C4 5.2 5.2 4 6.8 4h6.7C14.9 4 16 5.1 16 6.5a.8.8 0 0 1-1.5 0c0-.6-.4-1-1-1H6.7c-.6 0-1.2.6-1.2 1.3v6.7c0 .6.4 1 1 1a.8.8 0 0 1 0 1.5A2.5 2.5 0 0 1 4 13.5V6.7Zm4 4C8 9.2 9.2 8 10.8 8h6.4c1.6 0 2.8 1.2 2.8 2.8v6.4c0 1.6-1.2 2.8-2.8 2.8h-6.4A2.7 2.7 0 0 1 8 17.2v-6.4Zm2.8-1.3c-.7 0-1.3.6-1.3 1.3v6.4c0 .7.6 1.3 1.3 1.3h6.4c.7 0 1.3-.6 1.3-1.3v-6.4c0-.7-.6-1.3-1.3-1.3h-6.4Z"
    fill="currentColor"
  />
</svg>
