<svg width="24" height="24" fill="none" xmlns="http://www.w3.org/2000/svg">
  <path
    d="M3.4 11.8H10c1.3 0 2-.6 2-1.9v-3c0-1.3-.7-2-2-2H3.4c-1.3 0-2 .7-2 2v3c0 1.3.7 2 2 2ZM16 18h4.6c1.3 0 2-.6 2-1.9v-8c0-1.3-.7-2-2-2H16c-1.3 0-2 .7-2 2v8c0 1.3.7 2 2 2ZM3.6 10.2c-.4 0-.6-.2-.6-.6V7.1c0-.4.2-.6.6-.6H10c.3 0 .5.2.5.6v2.5c0 .4-.2.6-.5.6H3.6Zm12.6 6.2c-.3 0-.5-.1-.5-.5V8.3c0-.4.2-.6.5-.6h4.2c.4 0 .6.2.6.6v7.6c0 .4-.2.5-.6.5h-4.2ZM5.2 19h5.7c1.2 0 1.9-.6 1.9-1.9v-2c0-1.3-.7-2-2-2H5.3c-1.3 0-2 .7-2 2v2c0 1.3.7 2 2 2Zm.2-1.5c-.3 0-.5-.2-.5-.6v-1.6c0-.4.2-.5.5-.5h5.2c.4 0 .6.1.6.5V17c0 .4-.2.6-.6.6H5.4Z"
    fill="currentColor"
  />
</svg>
