<svg width="24" height="24" fill="none" xmlns="http://www.w3.org/2000/svg">
  <path
    d="M5.4 12.1h5.2c.9 0 1.3-.4 1.3-1.4V8.4c0-1-.4-1.4-1.3-1.4H5.4C4.4 7 4 7.5 4 8.4v2.3c0 1 .5 1.4 1.4 1.4Zm9.6 4.7h3.6c1 0 1.4-.4 1.4-1.4V9.2c0-.9-.5-1.3-1.4-1.3H15c-1 0-1.4.4-1.4 1.3v6.2c0 1 .5 1.4 1.4 1.4ZM5.5 11c-.3 0-.4-.1-.4-.4v-2c0-.4.1-.5.4-.5h5c.2 0 .4.1.4.5v2c0 .3-.2.4-.5.4H5.5Zm9.7 4.8c-.4 0-.5-.2-.5-.5V9.4c0-.3.1-.5.5-.5h3.3c.3 0 .4.2.4.5v5.9c0 .3-.1.5-.4.5h-3.3Zm-8.4 1.8h4.4c.9 0 1.4-.5 1.4-1.4v-1.6c0-1-.5-1.4-1.4-1.4H6.8c-1 0-1.4.5-1.4 1.4v1.6c0 1 .5 1.4 1.4 1.4Zm.1-1.1c-.3 0-.4-.2-.4-.5v-1.2c0-.4.1-.5.4-.5H11c.3 0 .5.1.5.5V16c0 .3-.2.5-.5.5H7Z"
    fill="currentColor"
  />
</svg>
