<svg width="24" height="24" fill="none" xmlns="http://www.w3.org/2000/svg">
  <path
    d="M12 4.3c.4 0 .8.3.8.7v.3h.5c2 0 3.4 1.7 3.4 3.7a.8.8 0 0 1-1.4 0c0-1.3-1-2.3-2-2.3h-.6v4.8l2 .7c.5.2 1 .5 1.5 1 .4.6.6 1.3.6 2.2 0 1.8-1.3 3.3-3.1 3.3h-1v.3a.8.8 0 0 1-1.4 0v-.3h-.6c-2 0-3.4-1.7-3.4-3.7a.8.8 0 0 1 1.5 0c0 1.3.9 2.3 1.9 2.3h.6v-4.8l-2-.7c-.5-.2-1-.5-1.5-1-.4-.6-.5-1.3-.5-2.2 0-1.8 1.2-3.3 3-3.3h1V5c0-.4.3-.8.7-.8Zm-.8 2.5h-.9c-.8 0-1.6.7-1.6 1.8 0 .7.2 1 .3 1.3l.8.5 1.4.5V6.7Zm1.6 6.3v4.2h.9c.8 0 1.6-.8 1.6-2 0-.6-.2-1-.3-1.2l-.8-.5-1.4-.5Z"
    fill="currentColor"
  />
</svg>
