<svg width="24" height="24" fill="none" xmlns="http://www.w3.org/2000/svg">
  <path
    d="M15.9 12c1.7 0 3.2-1.5 3.2-3.5 0-1.9-1.5-3.4-3.2-3.4-1.8 0-3.3 1.6-3.3 3.5S14.1 12 16 12Zm-8.6.1c1.6 0 2.8-1.3 2.8-3S9 6 7.3 6C5.8 6 4.5 7.3 4.5 9s1.3 3 2.8 3Zm8.6-1.4c-1 0-1.8-1-1.8-2.2 0-1.1.8-2 1.8-2s1.7.9 1.7 2c0 1.2-.8 2.2-1.7 2.2Zm-8.6 0C6.5 10.8 6 10 6 9.2c0-1 .6-1.7 1.4-1.7.8 0 1.5.7 1.5 1.7s-.7 1.7-1.5 1.7Zm-4 8.2H9c-.5-.3-.7-.9-.7-1.4h-5c-.1 0-.2 0-.2-.2 0-1.5 2-3 4.2-3 .8 0 1.6.1 2.2.4.2-.4.6-.7 1-1-1-.5-2-.8-3.2-.8-3 0-5.6 2.2-5.6 4.6 0 .9.5 1.4 1.6 1.4Zm8 0h9c1.4 0 2-.4 2-1.3 0-2.1-2.5-4.7-6.5-4.7-3.8 0-6.4 2.6-6.4 4.7 0 .9.6 1.3 2 1.3Zm-.2-1.4c-.1 0-.2 0-.2-.2 0-1 1.8-3 5-3 3 0 4.9 2 4.9 3 0 .1 0 .2-.3.2h-9.4Z"
    fill="currentColor"
  />
</svg>
