<svg width="24" height="24" fill="none" xmlns="http://www.w3.org/2000/svg">
  <path
    d="M11.2 19.8h10.3c1.5 0 2.2-.5 2.2-1.5 0-.6-.2-1.2-.5-1.8a7.6 7.6 0 0 0-3.8-3c-1-.4-2-.5-3-.5a8.6 8.6 0 0 0-5.4 1.8c-.6.5-1.1 1-1.5 1.7-.3.6-.5 1.2-.5 1.8 0 1 .8 1.5 2.2 1.5Zm-.2-1.6h-.2V18l.3-1 1.1-1.2L14 15c.7-.2 1.5-.3 2.4-.3a6.1 6.1 0 0 1 4.1 1.3c.5.3.8.7 1 1 .3.5.4.8.4 1.1v.2H11Zm5.4-6.1c.6 0 1.3-.2 1.8-.6A4 4 0 0 0 20 8.1a4 4 0 0 0-1.8-3.4c-.5-.3-1.2-.5-1.8-.5-.7 0-1.3.2-1.9.5a4 4 0 0 0-1.8 3.4 4 4 0 0 0 1.8 3.4c.6.4 1.2.6 1.9.6Zm0-1.6c-.4 0-.7-.1-1-.3-.4-.2-.6-.5-.8-.9l-.3-1.2.3-1.2.7-.8 1-.3c.4 0 .8 0 1 .3.4.2.6.5.8.8l.3 1.2-.3 1.2c-.2.4-.4.7-.7.9-.3.2-.7.3-1 .3ZM2.2 19.8h6.4c-.3-.1-.5-.4-.6-.7l-.2-.8H2V18c0-.5 0-1 .3-1.3a4 4 0 0 1 1-1.2l1.6-.8a5.5 5.5 0 0 1 4.2.3 3.3 3.3 0 0 1 1.2-1.2 6.7 6.7 0 0 0-2.3-.8 7 7 0 0 0-3.8.3c-.8.3-1.4.7-2 1.2-.6.5-1 1-1.4 1.7-.3.6-.5 1.2-.5 2 0 .5.2.8.5 1.1.3.3.7.4 1.4.4Zm4.5-7.6c.6 0 1.1-.2 1.6-.5s.9-.7 1.2-1.3a3.7 3.7 0 0 0 0-3.4c-.3-.6-.7-1-1.2-1.3-.5-.3-1-.4-1.6-.4a3 3 0 0 0-1.6.4 3.5 3.5 0 0 0-1.6 3 3.6 3.6 0 0 0 1.6 3c.5.3 1 .5 1.6.5Zm0-1.6c-.3 0-.6 0-.8-.2a2 2 0 0 1-.6-.7 2.1 2.1 0 0 1 0-2c.1-.2.3-.5.6-.6.2-.2.5-.3.8-.3.3 0 .6 0 .8.3.3.1.5.3.6.6.2.3.3.6.3 1 0 .3-.1.7-.3 1-.1.3-.3.5-.6.7l-.8.2Z"
    fill="currentColor"
  />
</svg>
