<svg width="24" height="24" fill="none" xmlns="http://www.w3.org/2000/svg">
  <path
    d="M6.6 4c.4 0 .8.3.8.8v8.4a2.6 2.6 0 010 4.9v1.1a.8.8 0 11-1.6 0v-1.1a2.6 2.6 0 010-5V4.9c0-.5.4-.8.8-.8zM12 4c.4 0 .8.3.8.8v1.1a2.6 2.6 0 010 5v8.3a.8.8 0 11-1.6 0v-8.4a2.6 2.6 0 010-4.9V4.8c0-.5.4-.8.8-.8zm5.4 0c.4 0 .8.3.8.8v8.4a2.6 2.6 0 010 4.9v1.1a.8.8 0 11-1.6 0v-1.1a2.6 2.6 0 010-5V4.9c0-.5.4-.8.8-.8zM12 7.4a1 1 0 100 2 1 1 0 000-2zm-5.4 7.2a1 1 0 100 2 1 1 0 000-2zm10.8 0a1 1 0 100 2 1 1 0 000-2z"
    fill="currentColor"
  />
</svg>
