<svg xmlns="http://www.w3.org/2000/svg" width="24" height="24" fill="none">
  <path
    fill="currentColor"
    d="M6 10.8a6.5 6.5 0 0 0 0 2.9l2.4.7c-.2-1.4-.2-2.9 0-4.3a19.8 19.8 0 0 0-2.5.7ZM6.5 9l2-.4.4-2C8 7.2 7.2 8 6.6 9Zm4.2-3L10 8.4c1.4-.2 2.9-.2 4.3 0a19.8 19.8 0 0 0-.7-2.5 6.5 6.5 0 0 0-2.9 0Zm4.7.6.4 2 2 .4c-.6-1-1.4-1.8-2.4-2.4Zm3 4.2-2.4-.7c.2 1.4.2 2.9 0 4.3a19.8 19.8 0 0 0 2.5-.7 6.5 6.5 0 0 0 0-2.9Zm-.6 4.7-2 .4-.4 2c1-.6 1.8-1.4 2.4-2.4Zm-4.2 3 .7-2.4c-1.4.2-2.9.2-4.3 0a19.8 19.8 0 0 0 .7 2.5 6.5 6.5 0 0 0 2.9 0ZM9 18l-.4-2-2-.4c.6 1 1.4 1.8 2.4 2.4Zm.9-3.3c1.6.2 3.1.2 4.7 0 .2-1.6.2-3.1 0-4.7-1.6-.2-3.1-.2-4.7 0-.2 1.6-.2 3.1 0 4.7Zm-5.7-2.3a8 8 0 1 1 16 0 8 8 0 0 1-16 0Z"
  />
</svg>
