<svg width="24" height="24" fill="none" xmlns="http://www.w3.org/2000/svg">
  <path
    d="M5.07 17.73h13.86c1.62 0 2.47-.85 2.47-2.46V8.15c0-1.6-.85-2.47-2.47-2.47H5.07c-1.62 0-2.48.85-2.48 2.47v7.12c0 1.6.86 2.46 2.48 2.46Zm.14-1.63c-.64 0-.99-.32-.99-1V8.31c0-.67.35-1 .99-1h13.58c.64 0 .99.33.99 1v6.8c0 .67-.35.99-.99.99H5.21Zm.73-6.01h.67c.22 0 .35-.14.35-.36v-.68c0-.22-.13-.35-.35-.35h-.67c-.22 0-.36.13-.36.35v.68c0 .22.14.36.36.36Zm2.28 0h.67c.22 0 .36-.14.36-.36v-.68c0-.22-.14-.35-.36-.35h-.67c-.22 0-.35.13-.35.35v.68c0 .22.13.36.35.36Zm2.29 0h.67c.22 0 .35-.14.35-.36v-.68c0-.22-.13-.35-.35-.35h-.67c-.22 0-.36.13-.36.35v.68c0 .22.14.36.36.36Zm2.28 0h.67c.22 0 .36-.14.36-.36v-.68c0-.22-.14-.35-.36-.35h-.67c-.22 0-.35.13-.35.35v.68c0 .22.13.36.35.36Zm2.32 0h.64c.22 0 .35-.14.35-.36v-.68c0-.22-.13-.35-.35-.35h-.64c-.25 0-.39.13-.39.35v.68c0 .22.14.36.39.36Zm2.25 0h.68c.21 0 .35-.14.35-.36v-.68c0-.22-.14-.35-.35-.35h-.68c-.22 0-.35.13-.35.35v.68c0 .22.13.36.35.36ZM5.94 12.4h.67c.22 0 .35-.13.35-.35v-.68c0-.22-.13-.35-.35-.35h-.67c-.22 0-.36.13-.36.35v.68c0 .22.14.35.36.35Zm2.28 0h.67c.22 0 .36-.13.36-.35v-.68c0-.22-.14-.35-.36-.35h-.67c-.22 0-.35.13-.35.35v.68c0 .22.13.35.35.35Zm2.29 0h.67c.22 0 .35-.13.35-.35v-.68c0-.22-.13-.35-.35-.35h-.67c-.22 0-.36.13-.36.35v.68c0 .22.14.35.36.35Zm2.28 0h.67c.22 0 .36-.13.36-.35v-.68c0-.22-.14-.35-.36-.35h-.67c-.22 0-.35.13-.35.35v.68c0 .22.13.35.35.35Zm2.32 0h.64c.22 0 .35-.13.35-.35v-.68c0-.22-.13-.35-.35-.35h-.64c-.25 0-.39.13-.39.35v.68c0 .22.14.35.39.35Zm2.25 0h.68c.21 0 .35-.13.35-.35v-.68c0-.22-.14-.35-.35-.35h-.68c-.22 0-.35.13-.35.35v.68c0 .22.13.35.35.35ZM5.94 14.7h.67c.22 0 .35-.12.35-.34v-.68c0-.22-.13-.35-.35-.35h-.67c-.22 0-.36.13-.36.35v.68c0 .22.14.35.36.35Zm2.33 0h7.43c.26 0 .4-.14.4-.4v-.57c0-.25-.14-.4-.4-.4H8.27c-.25 0-.4.15-.4.4v.57c0 .26.15.4.4.4Zm9.1 0h.67c.21 0 .35-.12.35-.34v-.68c0-.22-.14-.35-.35-.35h-.68c-.22 0-.35.13-.35.35v.68c0 .22.13.35.35.35Z"
    fill="currentColor"
  />
</svg>
