<svg xmlns="http://www.w3.org/2000/svg" width="24" height="24">
  <path
    d="M13.69 10.5c0-.31.25-.56.56-.56H18a.56.56 0 1 1 0 1.13h-3.75a.56.56 0 0 1-.56-.57ZM13.69 13.5c0-.31.25-.56.56-.56H18a.56.56 0 1 1 0 1.13h-3.75a.56.56 0 0 1-.56-.57Zm0 0"
    fill="currentColor"
  />
  <path
    d="M3.75 5.06c-.1 0-.19.08-.19.19v13.5c0 .1.08.19.19.19h16.5c.1 0 .19-.08.19-.19V5.25c0-.1-.08-.19-.19-.19Zm-1.31.19c0-.73.58-1.31 1.31-1.31h16.5c.73 0 1.31.58 1.31 1.31v13.5c0 .73-.58 1.31-1.31 1.31H3.75c-.73 0-1.31-.58-1.31-1.31Zm0 0"
    fill="currentColor"
  />
  <path
    d="M6.95 11.25a1.69 1.69 0 1 1 3.37 0 1.69 1.69 0 0 1-3.37 0Zm3.48 2.17a2.81 2.81 0 1 0-3.58 0l-.4.26a3.57 3.57 0 0 0-1.27 1.93c-.07.3.1.6.41.68.3.08.6-.1.68-.4a2.44 2.44 0 0 1 4.73 0c.07.3.38.48.68.4.3-.08.48-.38.4-.68a3.57 3.57 0 0 0-1.65-2.2Zm0 0a3.6 3.6 0 0 0-3.59 0 2.8 2.8 0 0 0 3.59 0Zm0 0"
    fill="currentColor"
  />
  <path d="M10.43 13.42a3.6 3.6 0 0 0-3.59 0 2.8 2.8 0 0 0 3.59 0Zm0 0" fill="currentColor" />
</svg>
