<svg xmlns="http://www.w3.org/2000/svg" width="24" height="24">
  <path
    d="M6 4.31c-.93 0-1.69.76-1.69 1.69v12c0 .93.76 1.69 1.69 1.69h12c.93 0 1.69-.76 1.69-1.69V6c0-.93-.76-1.69-1.69-1.69ZM3.19 6A2.81 2.81 0 0 1 6 3.19h12A2.81 2.81 0 0 1 20.81 6v12A2.81 2.81 0 0 1 18 20.81H6A2.81 2.81 0 0 1 3.19 18Zm0 0"
    fill="currentColor"
  />
  <path
    d="M8.63 9.56a.94.94 0 1 0 0-1.87.94.94 0 1 0 0 1.87ZM12 12.94a.94.94 0 1 0 0-1.88.94.94 0 1 0 0 1.88ZM15.38 16.31a.94.94 0 1 0 0-1.87.94.94 0 1 0 0 1.87Zm0 0"
    fill="currentColor"
  />
</svg>
