<svg xmlns="http://www.w3.org/2000/svg" width="24" height="24">
  <path
    d="M12 3.56a8.44 8.44 0 1 0 0 16.88 8.44 8.44 0 0 0 0-16.88ZM2.44 12a9.56 9.56 0 1 1 19.12 0 9.56 9.56 0 0 1-19.12 0Zm0 0"
    fill="currentColor"
  />
  <path
    d="M8.63 12.94a.94.94 0 1 0 0-1.88.94.94 0 1 0 0 1.88ZM15.38 12.94a.94.94 0 1 0 0-1.88.94.94 0 1 0 0 1.88Zm0 0"
    fill="currentColor"
  />
  <path
    d="M14.96 15.44c.17.26.1.6-.16.78a5.05 5.05 0 0 1-5.6 0 .56.56 0 1 1 .62-.94 3.92 3.92 0 0 0 4.36 0c.26-.17.6-.1.78.16ZM12.35 2.56c.24.2.28.55.09.8a6.46 6.46 0 0 0-1.37 3.34v.05a.94.94 0 1 0 1.87 0 .56.56 0 1 1 1.13 0 2.06 2.06 0 0 1-4.13 0h.56-.56V6.64a6.53 6.53 0 0 1 .2-1.2c.2-.77.61-1.78 1.42-2.8.2-.23.55-.27.8-.08Zm0 0"
    fill="currentColor"
  />
</svg>
