<svg xmlns="http://www.w3.org/2000/svg" width="24" height="24">
  <path
    d="M12 8.06a3.94 3.94 0 1 0 0 7.87 3.94 3.94 0 0 0 0-7.87ZM6.94 12a5.06 5.06 0 1 1 10.12 0 5.06 5.06 0 0 1-10.12 0Zm0 0"
    fill="currentColor"
  />
  <path d="m20.8 9.34.07.26.54-.15-.45-.34Zm0 0" fill="currentColor" />
  <path
    d="M9.79 2.14a.58.58 0 0 0-.49-.1c-.85.23-1.67.58-2.43 1.01a.57.57 0 0 0-.28.41l-.34 2.36-.43.43-2.36.34a.57.57 0 0 0-.4.28c-.44.77-.79 1.58-1.02 2.43-.04.17 0 .35.1.49l1.43 1.9v.61l-1.43 1.91a.58.58 0 0 0-.1.49c.23.85.58 1.67 1.01 2.43.09.15.24.26.41.28l2.36.34.43.43.34 2.36c.03.17.13.32.28.4.77.44 1.58.79 2.43 1.02.17.04.35 0 .49-.1l1.9-1.43h.61l1.91 1.43c.14.1.32.14.49.1.85-.23 1.67-.58 2.43-1.01a.58.58 0 0 0 .28-.41l.34-2.37.3-.3.12-.12 2.37-.34a.57.57 0 0 0 .4-.28c.44-.77.79-1.58 1.02-2.43a.58.58 0 0 0-.1-.49l-1.43-1.9v-.61l1.43-1.91c.1-.14.14-.32.1-.49-.23-.85-.58-1.67-1.01-2.43a.58.58 0 0 0-.41-.28l-2.36-.34-.43-.43-.34-2.36a.57.57 0 0 0-.28-.4c-.77-.44-1.58-.79-2.43-1.02a.58.58 0 0 0-.49.1l-1.9 1.43h-.61Zm-5.2 10.68c.08-.1.12-.23.11-.36v-.9a.54.54 0 0 0-.11-.38L3.21 9.34c.17-.58.4-1.14.69-1.68l2.28-.32a.57.57 0 0 0 .35-.19c.2-.22.4-.43.62-.62.1-.09.17-.21.19-.35l.32-2.28c.54-.29 1.1-.52 1.68-.7l1.84 1.39c.1.08.25.12.38.1h.88c.13.02.27-.02.38-.1l1.84-1.38c.58.17 1.14.4 1.68.69l.32 2.28.19.35c.22.2.43.4.62.62.09.1.21.17.35.19l2.28.32-.13-.23.5-.28-.1.55-.27-.04c.29.54.52 1.1.7 1.68l.16-.23.45.34-.54.15a6.65 6.65 0 0 0-.08-.26l-1.5 2.2v.03l.01.07v.8c-.01.13.03.27.11.38l1.38 1.84c-.17.58-.4 1.14-.69 1.68l-2.28.32a.54.54 0 0 0-.34.18l-.02.02-.05.05-.16.18c-.14.14-.3.3-.4.38a.57.57 0 0 0-.19.35l-.32 2.28c-.54.29-1.1.52-1.68.7l-1.84-1.39a.54.54 0 0 0-.38-.1h-.88a.54.54 0 0 0-.38.1l-1.84 1.38a9.14 9.14 0 0 1-1.68-.69l-.32-2.28a.56.56 0 0 0-.2-.35c-.21-.2-.42-.4-.61-.62a.56.56 0 0 0-.35-.19l-2.28-.32a8.92 8.92 0 0 1-.7-1.68Zm0 0"
    fill="currentColor"
  />
  <path d="m20.1 7.66.28.04.08-.55-.49.28.13.23Zm0 0" fill="currentColor" />
</svg>
