<svg xmlns="http://www.w3.org/2000/svg" width="24" height="24">
  <path
    d="M9.75 3.56a.19.19 0 0 0-.19.19V9c0 .31-.25.56-.56.56H3.75a.19.19 0 0 0-.19.19v4.5a.19.19 0 0 0 .19.19H9c.31 0 .56.25.56.56v5.25a.19.19 0 0 0 .19.19h4.5a.19.19 0 0 0 .19-.19V15c0-.31.25-.56.56-.56h5.25a.19.19 0 0 0 .19-.19v-4.5a.19.19 0 0 0-.19-.19H15a.56.56 0 0 1-.56-.56V3.75a.19.19 0 0 0-.19-.19Zm-.93-.74c.25-.25.58-.38.93-.38h4.5a1.32 1.32 0 0 1 1.31 1.31v4.69h4.69a1.32 1.32 0 0 1 1.31 1.31v4.5a1.32 1.32 0 0 1-1.31 1.31h-4.69v4.69a1.32 1.32 0 0 1-1.31 1.31h-4.5a1.32 1.32 0 0 1-1.31-1.31v-4.69H3.75a1.32 1.32 0 0 1-1.31-1.31v-4.5a1.32 1.32 0 0 1 1.31-1.31h4.69V3.75c0-.35.13-.68.38-.93Zm0 0"
    fill="currentColor"
  />
</svg>
