<svg xmlns="http://www.w3.org/2000/svg" width="24" height="24">
  <path
    d="M8.81 9.38c0-.32.25-.57.56-.57h5.26c.3 0 .56.25.56.56v5.26c0 .3-.25.56-.56.56H9.37a.56.56 0 0 1-.56-.56Zm1.13.56v4.12h4.12V9.94ZM18.94 9.75c0-.31.25-.56.56-.56h2.25a.56.56 0 1 1 0 1.13H19.5a.56.56 0 0 1-.56-.57ZM18.94 14.25c0-.31.25-.56.56-.56h2.25a.56.56 0 1 1 0 1.13H19.5a.56.56 0 0 1-.56-.57ZM1.69 9.75c0-.31.25-.56.56-.56H4.5a.56.56 0 1 1 0 1.13H2.25a.56.56 0 0 1-.56-.57ZM1.69 14.25c0-.31.25-.56.56-.56H4.5a.56.56 0 1 1 0 1.13H2.25a.56.56 0 0 1-.56-.57ZM14.25 18.94c.31 0 .56.25.56.56v2.25a.56.56 0 1 1-1.13 0V19.5c0-.31.26-.56.57-.56ZM9.75 18.94c.31 0 .56.25.56.56v2.25a.56.56 0 1 1-1.13 0V19.5c0-.31.26-.56.57-.56ZM14.25 1.69c.31 0 .56.25.56.56V4.5a.56.56 0 1 1-1.13 0V2.25c0-.31.26-.56.57-.56Zm0 0"
    fill="currentColor"
  />
  <path
    d="M10.31 2.25a.56.56 0 0 0-.56-.56.56.56 0 0 0-.56.56v1.69H5.25c-.73 0-1.31.58-1.31 1.31v13.5c0 .73.58 1.31 1.31 1.31h13.5c.73 0 1.31-.58 1.31-1.31V5.25c0-.73-.58-1.31-1.31-1.31h-8.44Zm-.56 2.81c.31 0 .56-.25.56-.56v-.56H9.2v.56c0 .31.25.56.56.56Zm0 0h9c.1 0 .19.08.19.19v13.5c0 .1-.08.19-.19.19H5.25a.19.19 0 0 1-.19-.19V5.25c0-.1.08-.19.19-.19Zm0 0"
    fill="currentColor"
  />
  <path d="M9.75 5.06c.31 0 .56-.25.56-.56v-.56H9.2v.56c0 .31.25.56.56.56Zm0 0" fill="currentColor" />
</svg>
