<svg xmlns="http://www.w3.org/2000/svg" width="24" height="24">
  <path
    d="M7.5 21.56a1.31 1.31 0 1 0 0-2.62 1.31 1.31 0 0 0 0 2.62ZM17.25 21.56a1.31 1.31 0 1 0 0-2.62 1.31 1.31 0 0 0 0 2.62Zm0 0"
    fill="currentColor"
  />
  <path
    d="M.19 3c0-.31.25-.56.56-.56h1.58a1.3 1.3 0 0 1 1.26.95l.8 2.8h16.4a.56.56 0 0 1 .54.72l-2.48 8.66a2.07 2.07 0 0 1-1.98 1.5H7.88a2.06 2.06 0 0 1-1.98-1.5L3.43 6.92v-.03L2.5 3.7a.2.2 0 0 0-.07-.09.18.18 0 0 0-.11-.04H.75A.56.56 0 0 1 .19 3ZM4.7 7.31l2.27 7.95a.94.94 0 0 0 .9.68h8.99a.94.94 0 0 0 .9-.68l2.27-7.95Zm0 0"
    fill="currentColor"
  />
</svg>
