<svg xmlns="http://www.w3.org/2000/svg" width="24" height="24">
  <path
    d="M19.91 4.05a5.25 5.25 0 0 1-3.87 1.16c-1.26-.13-2.49-.66-3.82-1.23l-.04-.02a14.4 14.4 0 0 0-4.1-1.28A6.38 6.38 0 0 0 3.4 4.05c.1-.07.21-.11.34-.11.31 0 .56.25.56.56v.29l-.22.16a.56.56 0 0 1-.9-.44V4.44a.48.48 0 0 0 0 0v15.81a.56.56 0 1 0 1.13 0v-4.21a5.18 5.18 0 0 1 3.64-1c1.26.14 2.49.66 3.82 1.23l.04.02a14.4 14.4 0 0 0 4.1 1.28c1.5.16 3.05-.16 4.67-1.37.14-.1.22-.27.22-.45V4.5a.56.56 0 0 0-.9-.45Zm-15.6.74a5.18 5.18 0 0 1 3.65-1c1.26.14 2.49.66 3.82 1.23l.04.02a14.4 14.4 0 0 0 4.1 1.28 6.13 6.13 0 0 0 3.77-.78v9.92c-1.3.9-2.5 1.11-3.65 1-1.26-.13-2.49-.66-3.82-1.23l-.04-.02a14.4 14.4 0 0 0-4.1-1.28 6.15 6.15 0 0 0-3.77.78Zm0 0"
    fill="currentColor"
  />
  <path
    d="M4.31 4.5a.56.56 0 0 0-.9-.45.59.59 0 0 0-.18.22.5.5 0 0 0-.04.17V4.51c0 .12.04.23.11.33.19.25.54.3.79.1l.22-.15Zm0 0"
    fill="currentColor"
  />
</svg>
