<svg xmlns="http://www.w3.org/2000/svg" width="24" height="24">
  <path
    d="M18.64 4.44a1.74 1.74 0 0 0-1.3 0c-.16.07-.31.16-.45.27 0 .02-.01.02-.02.03L13.9 7.9a.56.56 0 0 1-.6.14L5.38 5.15l-1.5 1.51 6.17 4.12c.14.1.23.25.25.42a.56.56 0 0 1-.16.45L7.89 13.9c-.1.1-.25.16-.4.16H5.47l-1.44 1.45 3.06 1.03c.16.06.3.19.35.35l1.04 3.07 1.45-1.44V16.5c0-.16.06-.3.18-.42l2.27-2.06c.12-.1.28-.16.44-.14.16.02.3.1.4.24l4.1 6 1.52-1.51-2.88-7.92a.56.56 0 0 1 .15-.6l3.03-2.86a1.68 1.68 0 0 0-.5-2.8Zm1.48 3.4a2.84 2.84 0 0 0-.14-3.82 2.84 2.84 0 0 0-3.07-.62 2.78 2.78 0 0 0-.98.7l-2.6 2.74-7.9-2.87a.57.57 0 0 0-.59.13L2.59 6.35a.57.57 0 0 0 .09.87l6.18 4.12-1.6 1.6H5.24c-.15 0-.3.06-.4.16l-2.25 2.25a.56.56 0 0 0 .22.93l3.65 1.24 1.25 3.66a.55.55 0 0 0 .93.22l2.25-2.25c.1-.1.16-.25.16-.4v-2l1.6-1.46 4.12 6.03c.1.14.25.22.42.24.17.01.33-.04.45-.16l2.25-2.25c.15-.16.2-.39.13-.6l-2.88-7.9 2.9-2.7a.69.69 0 0 0 .09-.12Zm0 0"
    fill-rule="evenodd"
    fill="currentColor"
  />
</svg>
