<svg xmlns="http://www.w3.org/2000/svg" width="24" height="24">
  <path
    d="M8.04 2.81a.19.19 0 0 0-.18.14l-2.36 8.1a.67.67 0 0 0-.02.4 6.9 6.9 0 0 0 1.63 2.66c.98.97 2.5 1.83 4.86 1.83 2.37 0 3.89-.86 4.86-1.83 1-1 1.45-2.12 1.63-2.67a.7.7 0 0 0 0-.4l-2.37-8.1a.19.19 0 0 0-.18-.13Zm-1.26-.18c.16-.56.67-.94 1.26-.94h7.87c.58 0 1.1.38 1.26.94l2.36 8.1c.1.32.12.7 0 1.06-.2.64-.74 1.95-1.9 3.11a7.7 7.7 0 0 1-5.66 2.16 7.7 7.7 0 0 1-5.65-2.16 7.99 7.99 0 0 1-1.9-3.11 1.8 1.8 0 0 1 0-1.06Zm0 0"
    fill="currentColor"
  />
  <path
    d="M11.68 10.23c-2.9-1.5-4.86-.78-5.66-.34a.51.51 0 0 1-.7-.22.55.55 0 0 1 .2-.73c1.05-.58 3.38-1.35 6.63.33 3.08 1.59 5.12.68 5.81.25a.51.51 0 0 1 .72.2c.14.25.06.58-.19.73-.93.57-3.34 1.57-6.8-.22ZM12.56 16.5a.56.56 0 0 0-.56-.56.56.56 0 0 0-.56.56v4.69H8.25a.56.56 0 0 0-.56.56c0 .31.25.56.56.56h7.5a.56.56 0 1 0 0-1.13h-3.19Zm0 4.69h-1.12v.56a.56.56 0 1 0 1.13 0Zm0 0"
    fill="currentColor"
  />
  <path d="M12 22.31c.31 0 .56-.25.56-.56v-.56h-1.12v.56c0 .31.25.56.56.56Zm0 0" fill="currentColor" />
</svg>
