<svg xmlns="http://www.w3.org/2000/svg" width="24" height="24">
  <path
    d="M2.81 15.37V10.5h1.13v4.87c0 .16.04.28.1.37.61.86 2.96 3.57 8.33 3.57 2.78 0 4.6-.72 5.76-1.51a5.73 5.73 0 0 0 1.89-2.07.55.55 0 0 0 .04-.25V10.5h1.13v4.98c0 .24-.04.5-.17.76-.25.5-.9 1.56-2.26 2.49-1.36.93-3.4 1.7-6.39 1.7-5.82 0-8.48-2.96-9.24-4.04a1.74 1.74 0 0 1-.32-1.02Zm0 0"
    fill="currentColor"
  />
  <path
    d="M12.27 2.5a.56.56 0 0 0-.54 0L.48 8.5a.56.56 0 0 0 0 1l11.25 6c.17.09.37.09.54 0l4.8-2.56v9.56c0 .31.24.56.55.56.32 0 .57-.25.57-.56V12.34l5.33-2.84a.56.56 0 0 0 0-1Zm5.36 8.86.26.14c.18.1.3.3.3.5v.34l-1.13.6v-.6l-.63-.34Zm0 0L12.27 8.5a.56.56 0 0 0-.77.23.56.56 0 0 0 .23.77l4.7 2.5L12 14.36 1.95 9 12 3.64 22.05 9Zm0 0"
    fill="currentColor"
  />
  <path d="M18.19 12c0-.2-.12-.4-.3-.5l-.27-.14-1.19.64.63.34v.6l1.13-.6Zm0 0" fill="currentColor" />
</svg>
