<svg xmlns="http://www.w3.org/2000/svg" width="24" height="24">
  <path
    d="M13.69 10.13c0-.32.25-.57.56-.57h3a.56.56 0 1 1 0 1.13h-3a.56.56 0 0 1-.56-.56ZM8.81 8.63a.56.56 0 0 0-.56-.57.56.56 0 0 0-.56.56v.94h-.94a.56.56 0 0 0-.56.56c0 .32.25.57.56.57h.94v.94a.56.56 0 1 0 1.13 0v-.94h.93a.56.56 0 1 0 0-1.13h-.94Zm0 .93v1.13H7.7V9.56Zm0 0"
    fill="currentColor"
  />
  <path
    d="M19.97 6.25a5.44 5.44 0 0 0-3.84-1.59v.57-.57l-8.25.03a5.43 5.43 0 0 0-5.36 4.49v.02L.99 17.06v.01a3.19 3.19 0 0 0 5.39 2.8l.03-.03 3.88-4.28 3.43-.01 3.87 4.3.03.03a3.17 3.17 0 0 0 3.73.57 3.2 3.2 0 0 0 1.67-3.38l-1.54-7.92a5.44 5.44 0 0 0-1.5-2.9Zm-6 8.17a.56.56 0 0 0-.41.94l.16.19h1.5l3.21 3.54a2.06 2.06 0 0 0 3.48-1.82l-.92-4.74a5.46 5.46 0 0 1-4.86 3l-.9.01-.84-.93a.56.56 0 0 0-.42-.19h2.15a4.32 4.32 0 0 0 4.25-5.06v-.01a4.3 4.3 0 0 0-4.24-3.56l-8.25.02A4.32 4.32 0 0 0 3.63 9.4l-1.54 7.88a2.05 2.05 0 0 0 1.08 2.18 2.06 2.06 0 0 0 2.4-.36l4.05-4.47c.1-.12.26-.18.41-.18Zm0 0"
    fill-rule="evenodd"
    fill="currentColor"
  />
  <path
    d="M13.6 14.57a.56.56 0 0 0-.05.79l.17.19h1.5l-.83-.94a.56.56 0 0 0-.42-.19.54.54 0 0 0-.38.15ZM8.81 10.69V9.56H7.7v1.13Zm0 0"
    fill="currentColor"
  />
</svg>
