<svg xmlns="http://www.w3.org/2000/svg" width="24" height="24">
  <path
    d="M5.86 6.94H4.5a.56.56 0 0 0-.56.54v.04c0 .07.01.13.04.19.08.2.28.35.52.35h1.36L5.3 7.5Zm0 0"
    fill="currentColor"
  />
  <path
    d="M7.9 4.9a.57.57 0 0 0 0-.8.57.57 0 0 0-.8 0l-3 3a.56.56 0 0 0 .4-.16h1.36ZM7.9 10.9a.57.57 0 0 0 0-.8L5.86 8.06H4.5a.56.56 0 0 1-.4-.16l3 3c.22.22.58.22.8 0Zm0 0"
    fill="currentColor"
  />
  <path d="M20.06 7.5a.56.56 0 0 0-.56-.56H5.86l-.56.56.56.56H19.5c.31 0 .56-.25.56-.56Zm0 0" fill="currentColor" />
  <path
    d="M16.9 13.1a.57.57 0 0 0-.8 0 .57.57 0 0 0 0 .8l2.04 2.04H4.5a.56.56 0 0 0-.56.56c0 .31.25.56.56.56h13.64L16.1 19.1a.57.57 0 0 0 0 .8c.22.22.58.22.8 0l3-3a.56.56 0 0 0-.4.16h-1.36l.56-.56-.56-.56h1.36c.16 0 .3.06.4.16Zm0 0"
    fill="currentColor"
  />
  <path
    d="M20.06 16.5v-.03a.6.6 0 0 0-.16-.37.56.56 0 0 0-.4-.16h-1.36l.56.56-.56.56h1.36c.23 0 .43-.14.52-.35a.55.55 0 0 0 .04-.2v-.01Zm0 0"
    fill="currentColor"
  />
</svg>
