<svg width="24" height="24" fill="none" xmlns="http://www.w3.org/2000/svg">
  <path
    d="M12.3 7.6c.4 0 .7-.3.7-.7V5.6l1 .6c.2.2.7 0 .8-.2.2-.3.1-.7-.3-1L13 4.3c-.5-.3-.9-.3-1.4 0l-1.5.9c-.4.2-.4.6-.3.9.2.3.6.4 1 .2l.9-.6V7c0 .4.3.7.6.7Zm6.7 3.8c.4 0 .7-.3.7-.7V9.1c0-1-.3-1.3-1-1.7l-1.5-.8c-.3-.2-.7-.2-1 .1-.1.3 0 .8.4 1l1.1.7-1.2.6c-.3.2-.5.6-.3 1 .2.3.6.3 1 .2l1.2-.8v1.3c0 .4.3.7.6.7Zm-13.4 0c.4 0 .6-.3.6-.7V9.4l1.3.8c.4.1.7 0 1-.3.1-.3 0-.7-.4-.9L7 8.4l1.2-.7c.4-.2.5-.7.3-1-.2-.3-.6-.3-1-.1L6 7.4c-.6.4-.9.9-.9 1.7v1.6c0 .4.3.7.6.7Zm6.7 3.4c.4 0 .7-.3.7-.7v-1.6l1.4-.8c.4-.2.5-.6.3-1-.2-.2-.6-.3-1-.1l-1.4.8-1.4-.8c-.4-.2-.7-.1-1 .2-.1.3 0 .7.4 1l1.4.7v1.6c0 .4.3.7.6.7ZM7 17c.3.2.7.2.9-.2.2-.3 0-.7-.3-.9l-.7-.4 1-.6c.4-.2.6-.6.4-.9a.7.7 0 0 0-1-.2l-1 .6v-.9c0-.3-.3-.6-.7-.6-.3 0-.6.3-.6.7v1.1c0 1 .4 1.4 1 1.8l1 .5Zm10.7 0 1-.5c.6-.4 1-.7 1-1.8v-1.1c0-.4-.3-.7-.7-.7-.3 0-.6.3-.6.6v1l-1.1-.7a.7.7 0 0 0-1 .2c-.1.3 0 .7.4 1l1 .5-.7.4c-.3.2-.4.6-.2 1 .1.3.5.3.9.1Zm-6 2.7c.4.3.8.3 1.2 0l2-1.1c.4-.2.5-.6.3-1-.1-.2-.5-.3-.9-.1l-1.3.8v-1.5c0-.4-.3-.7-.7-.7-.3 0-.6.3-.6.7v1.5l-1.4-.8c-.3-.2-.7-.1-.9.2-.2.3 0 .7.3.9l2 1.1Z"
    fill="currentColor"
  />
</svg>
