<svg width="24" height="24" xmlns="http://www.w3.org/2000/svg">
  <path
    fill-rule="evenodd"
    clip-rule="evenodd"
    d="M12.5 5.5 6.2 8v2.3h12.6V8l-6.3-2.5Zm6.4 6.3c.8 0 1.4-.7 1.4-1.5V8c0-.3-.1-.6-.3-.8l-.6-.6L13 4.1l-.5-.1H12L5.6 6.7l-.6.6c-.2.2-.3.5-.3.8v2.3c0 .8.6 1.4 1.4 1.5v3.4c-.8 0-1.4.7-1.4 1.5V18a.7.7 0 0 0 0 1.4h15.6a.7.7 0 0 0 0-1.4v-1.4c0-.8-.6-1.4-1.4-1.5v-3.4Zm-1.5 0h-1.3v3.4h1.3v-3.4ZM6.2 16.7v1.4h12.6v-1.4H6.2Zm1.4-1.5h1.3v-3.4H7.6v3.4Zm2.8-3.4v3.4h1.4v-3.4h-1.4Zm2.8 0v3.4h1.4v-3.4h-1.4Zm-.7-4a.3.3 0 1 0 0 .7.3.3 0 0 0 0-.6Zm-1.8.4a1.8 1.8 0 1 1 3.6 0 1.8 1.8 0 0 1-3.6 0Z"
    fill="currentColor"
  />
</svg>
