<svg width="24" height="24" fill="none" xmlns="http://www.w3.org/2000/svg">
  <path
    fill-rule="evenodd"
    clip-rule="evenodd"
    d="M12.65 5.45c-.25 0-.64.18-1.41.95L6.4 11.23c-.78.78-.95 1.17-.96 1.42 0 .22.13.54.69 1.14l7.65-7.66c-.6-.55-.92-.68-1.14-.68Zm2.17 1.7-7.66 7.67 2.8 2.8c.76.76 1.14.93 1.4.92.24 0 .63-.17 1.4-.95l4.84-4.82c.77-.78.95-1.17.95-1.42s-.16-.63-.93-1.4l-2.8-2.8ZM5.6 15.32a.68.68 0 0 0 .05.05l3.19 3.19h-4.1a.73.73 0 1 0 0 1.45h14.54a.73.73 0 0 0 0-1.45h-5.4l4.76-4.76c.76-.76 1.37-1.53 1.37-2.43 0-.9-.59-1.67-1.35-2.44l-3.57-3.57C14.32 4.6 13.55 4 12.64 4c-.9 0-1.67.6-2.43 1.38L5.38 10.2C4.6 10.97 4 11.74 4 12.64c0 .9.6 1.67 1.36 2.43l.23.24Zm9.97-2.95c.28.28.28.74 0 1.03l-1.74 1.73a.73.73 0 0 1-1.03-1.02l1.74-1.74a.73.73 0 0 1 1.03 0Zm-2.83 2.82c.29.28.29.74 0 1.03l-.87.87a.73.73 0 0 1-1.03-1.03l.88-.87a.73.73 0 0 1 1.02 0Z"
    fill="currentColor"
  />
</svg>
