<svg width="24" height="24" fill="none" xmlns="http://www.w3.org/2000/svg">
  <g>
    <path d="m13.6 4.7 3.3 3.4v11.2H7.1V4.7h6.5Zm.3-.7H6.3v16h11.4V7.8L13.9 4Z" fill="#000" />
    <path d="M17.3 19.6H6.7V4.4h7.1V8h3.5v11.7Z" fill="#fff" />
    <path d="M13.4 4.7v3.5H17v11H7.1V4.8h6.3ZM14 4H6.3v16h11.4V7.8l-.3-.3h-3.2V4.3l-.3-.3Z" fill="#000" />
    <path d="M16.2 7.3h-1.8V5.5l1.8 1.7Z" fill="#000" />
    <path d="m14.8 6.4.5.5h-.5v-.5ZM14.5 5H14v2.6h2.6V7l-2-2Z" fill="#000" />
    <path d="M18.6 16.3H5.4V11l.6-.7v.8h12v-.8l.6.7v5.3Z" fill="#ED1C24" />
    <path d="M18.3 11v5H5.7v-5 .4h12.6V11Zm-.6-1.4v1.2H6.3V9.6l-1.2 1.2v5.8h13.8v-5.8l-1.2-1.2Z" fill="#ED1C24" />
    <path
      d="M7.1 15.7V12h2l.5.3c.2 0 .3.2.4.4v1.2l-.4.4-.5.2-.5.1h-.4v1.2h-1Zm1-2h.4l.5-.1.1-.4c0-.2 0-.3-.2-.4a.8.8 0 0 0-.4 0h-.3v1ZM10.7 15.7V12h1.1l.8.1c.3 0 .5.2.7.4l.4.5.1 1-.1.8a1.5 1.5 0 0 1-1 1h-2Zm1-.8h.5l.3-.2.2-.3v-1.1l-.2-.4-.3-.1h-.4v2.1ZM14.5 15.7V12H17v.9h-1.5v.7h1.3v.8h-1.3v1.4h-1Z"
      fill="#fff"
    />
  </g>
</svg>
