<svg width="24" height="24" fill="none" xmlns="http://www.w3.org/2000/svg">
  <path
    fill-rule="evenodd"
    clip-rule="evenodd"
    d="M4 6.8C4 5.2 5.2 4 6.8 4h10.4C18.9 4 20 5.2 20 6.8v10.4c0 1.6-1.2 2.8-2.8 2.8H6.8A2.7 2.7 0 014 17.2V6.8zm1.5 9.5v1c0 .6.6 1.2 1.3 1.2h10.4c.7 0 1.3-.6 1.3-1.3v-4.4L16 9.8c-.5-.6-1.4-.5-2 0 0 .2-1.1 1.6-2.1 2.9l1.7 2a.7.7 0 11-1.2 1l-2-2.5-.4-.4c-.5-.6-1.4-.5-2 0l-2.5 3.4zm5.4-4.6c-1.2-1-3-1-4 .3l-1.4 1.8v-7c0-.7.6-1.3 1.3-1.3h10.4c.7 0 1.3.6 1.3 1.3v3.7L17.2 9a2.7 2.7 0 00-4.3 0c0 .2-1.1 1.5-2 2.7z"
    fill="currentColor"
  />
</svg>
