<svg width="24" height="24" viewBox="0 0 24 24" fill="none" xmlns="http://www.w3.org/2000/svg">
  <path
    d="M12 5.5C9.08595 5.5 6.5 7.92863 6.5 11C6.5 11.8098 6.81929 12.688 7.36691 13.5861C7.91103 14.4785 8.64836 15.3377 9.40533 16.0947C10.1598 16.8491 10.9171 17.4855 11.4872 17.934C11.6837 18.0886 11.8573 18.2204 12 18.3263C12.1426 18.2204 12.3163 18.0886 12.5128 17.934C13.0829 17.4855 13.8402 16.8491 14.5947 16.0947C15.3516 15.3377 16.089 14.4785 16.6331 13.5861C17.1807 12.688 17.5 11.8098 17.5 11C17.5 7.92863 14.9141 5.5 12 5.5ZM12 19.25C11.5783 19.8702 11.5781 19.8701 11.5779 19.87L11.5761 19.8687L11.5716 19.8656L11.556 19.8549C11.5427 19.8457 11.5236 19.8325 11.4992 19.8153C11.4503 19.781 11.3798 19.7311 11.2909 19.6666C11.1132 19.5376 10.8612 19.3501 10.5597 19.1129C9.95791 18.6395 9.15274 17.9634 8.34467 17.1553C7.53914 16.3498 6.71397 15.3965 6.08622 14.367C5.46196 13.3432 5 12.1902 5 11C5 7.07137 8.28664 4 12 4C15.7134 4 19 7.07137 19 11C19 12.1902 18.538 13.3432 17.9138 14.367C17.286 15.3965 16.4609 16.3498 15.6553 17.1553C14.8473 17.9634 14.0421 18.6395 13.4403 19.1129C13.1388 19.3501 12.8868 19.5376 12.7091 19.6666C12.6202 19.7311 12.5497 19.781 12.5008 19.8153C12.4764 19.8325 12.4573 19.8457 12.444 19.8549L12.4284 19.8656L12.4239 19.8687L12.4225 19.8696C12.4224 19.8698 12.4217 19.8702 12 19.25ZM12 19.25L12.4225 19.8696C12.168 20.0427 11.8325 20.043 11.5779 19.87L12 19.25ZM12 9.5C11.1716 9.5 10.5 10.1716 10.5 11C10.5 11.8284 11.1716 12.5 12 12.5C12.8284 12.5 13.5 11.8284 13.5 11C13.5 10.1716 12.8284 9.5 12 9.5ZM9 11C9 9.34315 10.3431 8 12 8C13.6569 8 15 9.34315 15 11C15 12.6569 13.6569 14 12 14C10.3431 14 9 12.6569 9 11Z"
    fill="currentColor"
  />
</svg>
