<svg width="25" height="25" fill="none" xmlns="http://www.w3.org/2000/svg">
  <path
    d="M12 20.2a7.5 7.5 0 0 0 5.5-2.3 7.9 7.9 0 0 0 2.3-5.5 7.4 7.4 0 0 0-1-3.9L17.5 7l-.6-.3a1 1 0 0 0-1 .4l-.2.6c0 .2.2.4.4.6a5.7 5.7 0 0 1 1.7 4.1 5.7 5.7 0 0 1-1.7 4.2 5.9 5.9 0 0 1-9.5-1.9 5.8 5.8 0 0 1 0-4.5c.3-.7.7-1.3 1.2-1.9l.3-.6v-.6a1 1 0 0 0-1-.4c-.3 0-.5.1-.7.3A7.6 7.6 0 0 0 5 15.4a7.9 7.9 0 0 0 7.1 4.8Zm0-7.6c.4 0 .6 0 .8-.3.2-.2.3-.4.3-.8V5.3a1 1 0 0 0-.3-.8 1 1 0 0 0-.8-.3 1 1 0 0 0-.7.3c-.2.2-.3.5-.3.8v6.2c0 .4.1.6.3.8.2.2.4.3.7.3Z"
    fill="currentColor"
  />
</svg>
