<svg width="24" height="24" fill="none" xmlns="http://www.w3.org/2000/svg">
  <path
    d="M8.7 20a.4.4 0 0 0 .6 0l1.2-1.2 1.2 1.2a.4.4 0 0 0 .5 0l1.2-1.2 1.2 1.2a.4.4 0 0 0 .5 0l1.2-1.2 1.2 1.2a.4.4 0 0 0 .6-.3V7.4L16.9 9v8.6a1.3 1.3 0 0 0-1.5.2l-.6.6-.5-.6a1.2 1.2 0 0 0-1.8 0l-.6.6-.6-.6c-.2-.2-.5-.4-.8-.4L8.7 20ZM11.2 11.6l-.9 1.2H8.5v-1.2h2.7ZM13.5 8.6l-1 1.2h-4V8.6h5Z"
    fill="currentColor"
  />
  <path d="M15.9 5.3h-9v12L5.8 19V4.4a.4.4 0 0 1 .4-.3h10.7L16 5.3Z" fill="currentColor" />
  <path d="M5 21 18.5 3.3l1 .8L6 21.7 5 21Z" fill="currentColor" />
</svg>
