<svg width="24" height="24" fill="none" xmlns="http://www.w3.org/2000/svg">
  <path
    fill-rule="evenodd"
    clip-rule="evenodd"
    d="M17.7 19.9a.4.4 0 0 0 .7-.3V4.4A.4.4 0 0 0 18 4H6.4a.4.4 0 0 0-.4.4v15.2a.4.4 0 0 0 .6.3l1.2-1.2L9 19.9a.4.4 0 0 0 .5 0l1.2-1.2 1.2 1.2a.4.4 0 0 0 .5 0l1.2-1.2 1.2 1.2a.4.4 0 0 0 .5 0l1.2-1.2 1.2 1.2Zm-.6-2.3V5.3H7.2v12.3a1.3 1.3 0 0 1 1.5.2l.6.6.5-.6a1.3 1.3 0 0 1 1.8 0l.6.6.6-.6a1.2 1.2 0 0 1 1.7 0l.6.6.6-.6a1.3 1.3 0 0 1 1.4-.2Z"
    fill="currentColor"
  />
  <path d="M8.8 8.5h6.5v1.3H8.8V8.4ZM8.8 11.5h4v1.3h-4v-1.3Z" fill="currentColor" />
</svg>
