<svg width="24" height="24" fill="none" xmlns="http://www.w3.org/2000/svg">
  <path
    d="M10.1 5.5C10.3 4.6 11 4 12 4h.2c.9 0 1.6.6 1.8 1.5v.6c0 .1.1.3.3.3l.2.1h.4l.3-.2c.7-.6 1.7-.5 2.3.1l.2.2c.6.6.7 1.6.1 2.3l-.2.3V9.8c.1.2.3.2.4.3h.6c.9.2 1.5.9 1.5 1.8v.2c0 .9-.6 1.6-1.5 1.8h-.6c-.1 0-.3.1-.3.3l-.1.2v.4l.2.3c.6.7.5 1.7-.1 2.3l-.2.2c-.6.6-1.6.7-2.3.1l-.3-.2h-.4-.2c-.2.1-.2.3-.3.4v.6c-.2.9-.9 1.5-1.8 1.5H12c-.9 0-1.6-.6-1.8-1.5v-.6c0-.1-.1-.3-.3-.3l-.2-.1h-.4l-.3.2c-.7.6-1.7.5-2.3-.1l-.2-.2c-.6-.6-.7-1.6-.1-2.3l.2-.3v-.4-.2c-.1-.2-.3-.2-.4-.3h-.6C4.6 13.7 4 13 4 12V12c0-.9.6-1.6 1.5-1.8h.6c.1 0 .3-.1.3-.3l.1-.2v-.4L6.3 9c-.6-.7-.5-1.7.1-2.3l.2-.2c.6-.6 1.6-.7 2.3-.1l.3.2H9.8c.2-.1.2-.3.3-.4v-.6zm1.8 0c-.2 0-.3 0-.3.2v.6c-.2.8-.7 1.3-1.3 1.5h-.1c-.6.3-1.3.3-1.9-.1L8 7.5h-.3l-.2.2V8l.2.3c.4.6.4 1.3.2 1.9v.1c-.3.6-.8 1.1-1.6 1.2l-.6.1c-.1 0-.2.1-.2.3v.2c0 .2 0 .3.2.3h.6c.8.2 1.3.7 1.5 1.3v.1c.3.6.3 1.3-.1 1.9l-.2.3v.3l.2.2H8l.3-.2c.6-.4 1.3-.4 1.9-.2h.1c.6.3 1.1.8 1.2 1.6l.1.6c0 .1.1.2.3.2h.2c.2 0 .3 0 .3-.2v-.6c.2-.8.7-1.3 1.3-1.5h.1c.6-.3 1.3-.3 1.9.1l.3.2h.3l.2-.2V16l-.2-.3c-.4-.6-.4-1.3-.2-1.9v-.1c.3-.6.8-1.1 1.6-1.2l.6-.1c.1 0 .2-.1.2-.3V12c0-.2 0-.3-.2-.3h-.6c-.8-.2-1.3-.7-1.5-1.3v-.1c-.3-.6-.3-1.3.1-1.9l.2-.3v-.3l-.2-.2H16l-.3.2c-.6.4-1.3.4-1.9.2h-.1c-.6-.3-1.1-.8-1.2-1.6l-.1-.6c0-.1-.1-.2-.3-.2H12zm.1 6a.5.5 0 100 1 .5.5 0 000-1zm-2 .5a2 2 0 114 0 2 2 0 01-4 0z"
    fill="currentColor"
  />
</svg>
