<svg width="24" height="24" fill="none" xmlns="http://www.w3.org/2000/svg">
  <path
    d="M6.375 6.841c-.278.315-.242.703.051.909.286.205.63.139.872-.132A6.24 6.24 0 0 1 12 5.486a6.198 6.198 0 0 1 6.167 5.45h-1.091c-.52 0-.652.351-.374.754l1.64 2.336c.235.337.587.345.828 0l1.634-2.329c.293-.41.154-.761-.374-.761h-1.003C19.024 7.207 15.816 4.24 12 4.24c-2.234 0-4.248 1.011-5.625 2.6Zm-3.186 4.893c-.286.403-.154.762.374.762h1.01c.396 3.728 3.611 6.687 7.427 6.687 2.234 0 4.255-1.018 5.632-2.6.271-.315.235-.71-.05-.916-.287-.205-.638-.132-.873.14A6.197 6.197 0 0 1 12 17.936a6.186 6.186 0 0 1-6.167-5.441h1.091c.52 0 .652-.36.374-.755l-1.64-2.336c-.235-.337-.587-.344-.828 0l-1.641 2.329Z"
    fill="currentColor"
  />
</svg>
