<svg width="24" height="24" fill="none" xmlns="http://www.w3.org/2000/svg">
  <path
    d="m11.95 19.48 7.15-7.16c.54-.55.58-.86.58-1.63V7.9c0-.77-.18-1.01-.74-1.57l-1.68-1.69c-.55-.55-.8-.74-1.57-.74h-2.8c-.76 0-1.07.04-1.62.59l-7.16 7.15c-1.05 1.05-1.07 2.13 0 3.2l4.64 4.63c1.08 1.07 2.16 1.05 3.2 0Zm-.79-.9c-.52.54-1.08.54-1.62 0L5 14.04c-.54-.53-.53-1.1-.01-1.62l7.11-7.1c.15-.14.3-.24.55-.24h3.08a.7.7 0 0 1 .54.25l2 1.99c.15.15.23.3.23.53v3.1a.7.7 0 0 1-.23.53l-7.1 7.1Zm3.67-8.82a1 1 0 0 0 1-1c0-.56-.43-1-1-1-.58 0-1 .44-1 1s.42 1 1 1Z"
    fill="currentColor"
  />
</svg>
