<svg width="24" height="24" fill="none" xmlns="http://www.w3.org/2000/svg">
  <path
    d="M6.2 18.6h11.6c1.4 0 2.2-.7 2.2-2.2V8.2c0-1.4-.8-2.2-2.2-2.2H6.2C4.8 6 4 6.7 4 8.2v8.2c0 1.5.8 2.2 2.2 2.2zm.1-1.3c-.6 0-1-.3-1-1v-8c0-.6.4-1 1-1h11.4c.6 0 1 .4 1 1v8c0 .7-.4 1-1 1H6.3zm.3-4c0 .2.2.5.5.5.2 0 .3 0 .4-.2l2.7-2.6.4-.5v2c0 .3.1.5.4.5.4 0 .6-.2.6-.5V9.4c0-.4-.2-.6-.6-.6H7.8c-.3 0-.5.2-.5.5 0 .4.2.6.5.6H10l-.5.3L6.8 13l-.2.4zm10.9-2c0-.2-.3-.5-.6-.5l-.4.2-2.6 2.7-.4.4v-2c0-.3-.2-.5-.5-.5s-.5.2-.5.5v3.1c0 .4.2.6.5.6h3.2c.4 0 .6-.2.6-.5s-.3-.6-.6-.6h-2l.4-.3 2.7-2.6.2-.4z"
    fill="currentColor"
  />
</svg>
