<svg width="24" height="24" fill="none" xmlns="http://www.w3.org/2000/svg">
  <path
    d="M12.4 9a.9.9 0 100 1.9.9.9 0 000-1.8zm-2.3 1a2.3 2.3 0 114.6 0 2.3 2.3 0 01-4.6 0zM9 15.4c0-1.7 1.7-3 3.4-3 1.8 0 3.4 1.3 3.4 3a.7.7 0 01-1.4 0c0-.7-.7-1.5-2-1.5s-2 .8-2 1.5a.7.7 0 01-1.4 0z"
    fill="currentColor"
  />
  <path
    fill-rule="evenodd"
    clip-rule="evenodd"
    d="M17.5 8.2L13 5.6c-.4-.3-1-.3-1.4 0L7.1 8.2c-.4.2-.7.7-.7 1.2v5.2c0 .5.3 1 .7 1.2l4.5 2.6c.4.3 1 .3 1.4 0l4.5-2.6c.4-.2.7-.7.7-1.2V9.4c0-.5-.3-1-.7-1.2zm-3.8-3.8c-.9-.5-2-.5-2.8 0L6.4 7C5.5 7.5 5 8.4 5 9.4v5.2c0 1 .5 2 1.4 2.4l4.5 2.6c.9.5 2 .5 2.8 0l4.5-2.6c.9-.5 1.4-1.4 1.4-2.4V9.4c0-1-.5-2-1.4-2.4l-4.5-2.6z"
    fill="currentColor"
  />
</svg>
