<svg width="24" height="24" fill="none" xmlns="http://www.w3.org/2000/svg">
  <path
    d="M12.3 10.2a1.9 1.9 0 1 0 0 3.8 1.9 1.9 0 0 0 0-3.8Zm-3.5 2a3.4 3.4 0 1 1 6.8 0 3.4 3.4 0 0 1-6.8 0Z"
    fill="currentColor"
  />
  <path
    d="M4.6 9.6C6.4 6.8 9.1 5 12 5c3 0 5.6 1.8 7.4 4.6.4.7.6 1.6.6 2.4 0 .8-.2 1.7-.6 2.4-1.8 2.8-4.5 4.6-7.4 4.6-3 0-5.6-1.8-7.4-4.6-.4-.7-.6-1.6-.6-2.4 0-.8.2-1.7.6-2.4ZM12 6.8c-2.2 0-4.3 1.3-5.8 3.8-.3.3-.4.8-.4 1.4 0 .6.1 1 .4 1.4 1.5 2.5 3.6 3.8 5.8 3.8 2.2 0 4.3-1.3 5.8-3.8.3-.3.4-.8.4-1.4 0-.6-.1-1-.4-1.4C16.3 8 14.2 6.8 12 6.8Z"
    fill="currentColor"
  />
</svg>
