<svg width="24" height="24" fill="none" xmlns="http://www.w3.org/2000/svg">
  <path
    fill-rule="evenodd"
    clip-rule="evenodd"
    d="M12 5.9l-1.3 2.7c-.4.8-1.1 1.4-2 1.5l-3 .5L8 12.8c.6.6.9 1.5.8 2.4l-.5 3 2.5-1.3c.8-.5 1.8-.5 2.6 0l2.5 1.4-.5-3c-.1-1 .2-1.9.8-2.5l2.2-2.2-3-.5c-.9-.1-1.6-.7-2-1.5L12 5.9zm1.1-1.2c-.4-1-1.8-1-2.2 0L9.4 8c-.2.4-.6.7-1 .7l-3.3.5c-1 .2-1.5 1.5-.7 2.2l2.4 2.5c.3.3.4.8.4 1.2l-.6 3.5c-.2 1 .9 1.8 1.8 1.3l3-1.6c.4-.2.8-.2 1.2 0l3 1.6c1 .5 2-.3 1.8-1.3l-.6-3.5c0-.4 0-.9.4-1.2l2.4-2.5c.8-.7.4-2-.7-2.2l-3.3-.5c-.4 0-.8-.3-1-.7l-1.5-3.2z"
    fill="currentColor"
  />
</svg>
