<svg width="482" height="498" viewBox="0 0 482 498" fill="none" xmlns="http://www.w3.org/2000/svg">
  <path
    d="M336.622 195.212L254.069 242.727C250.881 244.562 247.265 245.527 243.584 245.527C239.903 245.527 236.286 244.562 233.098 242.727L150.534 195.212C148.624 194.124 147.03 192.561 145.907 190.675C144.784 188.789 144.17 186.645 144.127 184.452V274.883C144.143 277.107 144.746 279.287 145.875 281.205C147.003 283.123 148.618 284.712 150.557 285.812L233.121 333.327C236.309 335.161 239.925 336.127 243.607 336.127C247.288 336.127 250.904 335.161 254.092 333.327L336.645 285.812C338.617 284.699 340.255 283.081 341.391 281.127C342.527 279.172 343.12 276.951 343.109 274.692V184.272C343.087 186.503 342.476 188.689 341.338 190.61C340.199 192.53 338.572 194.118 336.622 195.212Z"
    fill="url(#paint0_linear_7727_569005)"
    stroke="#F3F2EF"
    stroke-width="0.8"
    stroke-linecap="round"
    stroke-linejoin="round"
  />
  <path
    d="M193.495 275.503L110.942 323.018C107.754 324.853 104.138 325.818 100.457 325.818C96.7758 325.818 93.1595 324.853 89.9715 323.018L7.40754 275.503C5.49729 274.415 3.90272 272.852 2.7797 270.966C1.65667 269.08 1.0435 266.936 1 264.743V355.174C1.01648 357.398 1.61918 359.578 2.74775 361.496C3.87632 363.414 5.49118 365.003 7.43013 366.103L89.9941 413.618C93.1821 415.452 96.7984 416.418 100.48 416.418C104.161 416.418 107.777 415.452 110.965 413.618L193.518 366.103C195.49 364.99 197.128 363.372 198.264 361.418C199.401 359.463 199.993 357.242 199.982 354.983V264.563C199.96 266.794 199.35 268.98 198.211 270.901C197.072 272.821 195.446 274.409 193.495 275.503Z"
    fill="url(#paint1_linear_7727_569005)"
    stroke="#1A4747"
    stroke-width="0.8"
    stroke-linecap="round"
    stroke-linejoin="round"
  />
  <path
    d="M150.583 173.02L232.032 126.269C235.558 124.246 239.558 123.182 243.629 123.182C247.7 123.182 251.7 124.246 255.226 126.269L336.676 173.02C338.632 174.144 340.256 175.759 341.385 177.704C342.514 179.649 343.109 181.854 343.109 184.1C343.109 186.346 342.514 188.552 341.385 190.496C340.256 192.441 338.632 194.056 336.676 195.18L254.075 242.57C250.887 244.4 247.271 245.363 243.59 245.363C239.908 245.363 236.292 244.4 233.104 242.57L150.538 195.18C148.584 194.052 146.963 192.434 145.838 190.487C144.712 188.54 144.122 186.333 144.127 184.087C144.132 181.842 144.73 179.637 145.864 177.694C146.997 175.752 148.624 174.14 150.583 173.02V173.02Z"
    fill="white"
    stroke="#F3F2EF"
    stroke-width="0.8"
    stroke-linecap="round"
    stroke-linejoin="round"
  />
  <path
    d="M474.514 275.566L391.961 323.354C388.773 325.199 385.157 326.17 381.476 326.17C377.794 326.17 374.178 325.199 370.99 323.354L288.426 275.566C286.516 274.472 284.921 272.899 283.798 271.003C282.675 269.106 282.062 266.95 282.019 264.744V355.695C282.035 357.931 282.638 360.124 283.766 362.053C284.895 363.982 286.51 365.58 288.449 366.687L371.013 414.474C374.201 416.319 377.817 417.291 381.498 417.291C385.179 417.291 388.796 416.319 391.984 414.474L474.536 366.687C476.508 365.567 478.147 363.94 479.283 361.974C480.419 360.009 481.012 357.775 481 355.503V264.563C480.979 266.807 480.368 269.005 479.229 270.937C478.091 272.869 476.464 274.465 474.514 275.566Z"
    fill="url(#paint2_linear_7727_569005)"
    stroke="#1A4747"
    stroke-width="0.8"
    stroke-linecap="round"
    stroke-linejoin="round"
  />
  <path
    d="M288.453 253.158L369.911 205.74C373.436 203.683 377.437 202.6 381.51 202.6C385.582 202.6 389.583 203.683 393.108 205.74L474.566 253.158C476.523 254.297 478.147 255.935 479.276 257.907C480.406 259.88 481 262.117 481 264.395C481 266.672 480.406 268.91 479.276 270.882C478.147 272.855 476.523 274.493 474.566 275.632L391.991 323.687C388.806 325.547 385.19 326.527 381.51 326.527C377.829 326.527 374.213 325.547 371.028 323.687L288.453 275.632C286.496 274.493 284.872 272.855 283.742 270.882C282.613 268.91 282.019 266.672 282.019 264.395C282.019 262.117 282.613 259.88 283.742 257.907C284.872 255.935 286.496 254.297 288.453 253.158V253.158Z"
    fill="#047857"
    stroke="black"
    stroke-width="0.8"
    stroke-linecap="round"
    stroke-linejoin="round"
  />
  <path
    d="M330.514 355.794L247.961 403.309C244.773 405.144 241.157 406.109 237.476 406.109C233.794 406.109 230.178 405.144 226.99 403.309L144.426 355.794C142.516 354.706 140.921 353.143 139.798 351.257C138.675 349.371 138.062 347.227 138.019 345.034V435.465C138.035 437.689 138.638 439.869 139.766 441.787C140.895 443.705 142.51 445.294 144.449 446.394L227.013 493.909C230.201 495.743 233.817 496.709 237.498 496.709C241.179 496.709 244.796 495.743 247.984 493.909L330.536 446.394C332.508 445.281 334.147 443.663 335.283 441.709C336.419 439.754 337.012 437.533 337 435.274V344.854C336.979 347.085 336.368 349.271 335.229 351.192C334.091 353.112 332.464 354.7 330.514 355.794Z"
    fill="url(#paint3_linear_7727_569005)"
    stroke="#1A4747"
    stroke-width="0.8"
    stroke-linecap="round"
    stroke-linejoin="round"
  />
  <path
    d="M7.43392 253.158L88.8812 205.74C92.4082 203.683 96.4107 202.6 100.485 202.6C104.56 202.6 108.562 203.683 112.089 205.74L193.548 253.158C195.504 254.297 197.128 255.935 198.258 257.907C199.387 259.88 199.982 262.117 199.982 264.395C199.982 266.673 199.387 268.91 198.258 270.883C197.128 272.855 195.504 274.493 193.548 275.632L110.972 323.687C107.785 325.548 104.168 326.527 100.485 326.527C96.8026 326.527 93.1853 325.548 89.9983 323.687L7.43392 275.632C5.47767 274.493 3.85326 272.855 2.72389 270.883C1.59453 268.91 1 266.673 1 264.395C1 262.117 1.59453 259.88 2.72389 257.907C3.85326 255.935 5.47767 254.297 7.43392 253.158V253.158Z"
    fill="#047857"
    stroke="black"
    stroke-width="0.8"
    stroke-linecap="round"
    stroke-linejoin="round"
  />
  <path
    d="M144.453 333.442L225.911 286.022C229.44 283.971 233.442 282.891 237.515 282.891C241.589 282.891 245.59 283.971 249.119 286.022L330.566 333.442C332.523 334.581 334.147 336.219 335.276 338.192C336.406 340.164 337 342.402 337 344.679C337 346.957 336.406 349.195 335.276 351.167C334.147 353.14 332.523 354.778 330.566 355.917L248.002 403.985C244.814 405.841 241.197 406.818 237.515 406.818C233.833 406.818 230.217 405.841 227.028 403.985L144.453 355.917C142.496 354.778 140.872 353.14 139.743 351.167C138.613 349.195 138.019 346.957 138.019 344.679C138.019 342.402 138.613 340.164 139.743 338.192C140.872 336.219 142.496 334.581 144.453 333.442V333.442Z"
    fill="#047857"
    stroke="black"
    stroke-width="0.8"
    stroke-linecap="round"
    stroke-linejoin="round"
  />
  <path
    d="M336.622 73.0307L254.069 120.545C250.881 122.38 247.265 123.346 243.584 123.346C239.903 123.346 236.286 122.38 233.098 120.545L150.534 73.0307C148.624 71.9424 147.03 70.379 145.907 68.4931C144.784 66.6072 144.17 64.4633 144.127 62.2707V152.702C144.143 154.925 144.746 157.105 145.875 159.024C147.003 160.942 148.618 162.53 150.557 163.63L233.121 211.145C236.309 212.98 239.925 213.945 243.607 213.945C247.288 213.945 250.904 212.98 254.092 211.145L336.645 163.63C338.617 162.517 340.255 160.9 341.391 158.945C342.527 156.991 343.12 154.769 343.109 152.511V62.0908C343.087 64.3216 342.476 66.5074 341.338 68.428C340.199 70.3485 338.572 71.9361 336.622 73.0307Z"
    fill="url(#paint4_linear_7727_569005)"
    stroke="#1A4747"
    stroke-width="0.8"
    stroke-linecap="round"
    stroke-linejoin="round"
  />
  <path
    d="M193.495 153.322L110.942 200.836C107.754 202.671 104.138 203.637 100.457 203.637C96.7758 203.637 93.1595 202.671 89.9715 200.836L7.40754 153.322C5.49729 152.233 3.90272 150.67 2.7797 148.784C1.65667 146.898 1.0435 144.754 1 142.562V232.993C1.01648 235.216 1.61918 237.396 2.74775 239.315C3.87632 241.233 5.49118 242.821 7.43013 243.921L89.9941 291.436C93.1821 293.271 96.7984 294.236 100.48 294.236C104.161 294.236 107.777 293.271 110.965 291.436L193.518 243.921C195.49 242.808 197.128 241.191 198.264 239.236C199.401 237.282 199.993 235.06 199.982 232.802V142.382C199.96 144.613 199.35 146.798 198.211 148.719C197.072 150.64 195.446 152.227 193.495 153.322Z"
    fill="url(#paint5_linear_7727_569005)"
    stroke="#1A4747"
    stroke-width="0.8"
    stroke-linecap="round"
    stroke-linejoin="round"
  />
  <path
    d="M150.583 50.8388L232.032 4.08717C235.558 2.06466 239.558 1 243.629 1C247.7 1 251.7 2.06466 255.226 4.08717L336.676 50.8388C338.632 51.9621 340.256 53.5773 341.385 55.5221C342.514 57.4669 343.109 59.6729 343.109 61.9184C343.109 64.1639 342.514 66.3699 341.385 68.3148C340.256 70.2596 338.632 71.8747 336.676 72.9979L254.075 120.389C250.887 122.219 247.271 123.182 243.59 123.182C239.908 123.182 236.292 122.219 233.104 120.389L150.538 72.9979C148.584 71.8708 146.963 70.2523 145.838 68.3052C144.712 66.3582 144.122 64.151 144.127 61.9055C144.132 59.6599 144.73 57.4551 145.864 55.5126C146.997 53.57 148.624 51.9581 150.583 50.8388V50.8388Z"
    fill="#047857"
    stroke="black"
    stroke-width="0.8"
    stroke-linecap="round"
    stroke-linejoin="round"
  />
  <path
    d="M474.514 153.385L391.961 201.172C388.773 203.017 385.157 203.989 381.476 203.989C377.794 203.989 374.178 203.017 370.99 201.172L288.426 153.385C286.516 152.29 284.921 150.718 283.798 148.821C282.675 146.924 282.062 144.768 282.019 142.563V233.513C282.035 235.75 282.638 237.943 283.766 239.872C284.895 241.801 286.51 243.399 288.449 244.505L371.013 292.293C374.201 294.138 377.817 295.109 381.498 295.109C385.179 295.109 388.796 294.138 391.984 292.293L474.536 244.505C476.508 243.385 478.147 241.758 479.283 239.793C480.419 237.827 481.012 235.593 481 233.321V142.382C480.979 144.625 480.368 146.824 479.229 148.755C478.091 150.687 476.464 152.284 474.514 153.385Z"
    fill="url(#paint6_linear_7727_569005)"
    stroke="#1A4747"
    stroke-width="0.8"
    stroke-linecap="round"
    stroke-linejoin="round"
  />
  <path
    d="M288.453 130.976L369.911 83.5582C373.436 81.5013 377.437 80.4182 381.51 80.4182C385.582 80.4182 389.583 81.5013 393.108 83.5582L474.566 130.976C476.523 132.115 478.147 133.753 479.276 135.726C480.406 137.698 481 139.936 481 142.213C481 144.491 480.406 146.728 479.276 148.701C478.147 150.673 476.523 152.312 474.566 153.451L391.991 201.505C388.806 203.366 385.19 204.345 381.51 204.345C377.829 204.345 374.213 203.366 371.028 201.505L288.453 153.451C286.496 152.312 284.872 150.673 283.742 148.701C282.613 146.728 282.019 144.491 282.019 142.213C282.019 139.936 282.613 137.698 283.742 135.726C284.872 133.753 286.496 132.115 288.453 130.976V130.976Z"
    fill="#047857"
    stroke="black"
    stroke-width="0.8"
    stroke-linecap="round"
    stroke-linejoin="round"
  />
  <path
    d="M7.43392 130.976L88.8812 83.558C92.4082 81.5012 96.4107 80.4182 100.485 80.4182C104.56 80.4182 108.562 81.5012 112.089 83.558L193.548 130.976C195.504 132.115 197.128 133.753 198.258 135.726C199.387 137.698 199.982 139.936 199.982 142.213C199.982 144.491 199.387 146.728 198.258 148.701C197.128 150.673 195.504 152.312 193.548 153.451L110.972 201.506C107.785 203.366 104.168 204.345 100.485 204.345C96.8026 204.345 93.1853 203.366 89.9983 201.506L7.43392 153.451C5.47767 152.312 3.85326 150.673 2.72389 148.701C1.59453 146.728 1 144.491 1 142.213C1 139.936 1.59453 137.698 2.72389 135.726C3.85326 133.753 5.47767 132.115 7.43392 130.976V130.976Z"
    fill="#047857"
    stroke="black"
    stroke-width="0.8"
    stroke-linecap="round"
    stroke-linejoin="round"
  />
  <path
    d="M330.514 233.613L247.961 281.127C244.773 282.962 241.157 283.928 237.476 283.928C233.794 283.928 230.178 282.962 226.99 281.127L144.426 233.613C142.516 232.524 140.921 230.961 139.798 229.075C138.675 227.189 138.062 225.045 138.019 222.853V313.284C138.035 315.507 138.638 317.687 139.766 319.606C140.895 321.524 142.51 323.112 144.449 324.212L227.013 371.727C230.201 373.562 233.817 374.527 237.498 374.527C241.179 374.527 244.796 373.562 247.984 371.727L330.536 324.212C332.508 323.099 334.147 321.482 335.283 319.527C336.419 317.573 337.012 315.351 337 313.093V222.673C336.979 224.904 336.368 227.089 335.229 229.01C334.091 230.931 332.464 232.518 330.514 233.613Z"
    fill="url(#paint7_linear_7727_569005)"
    stroke="#1A4747"
    stroke-width="0.8"
    stroke-linecap="round"
    stroke-linejoin="round"
  />
  <path
    d="M144.453 211.26L225.911 163.84C229.44 161.789 233.442 160.709 237.515 160.709C241.589 160.709 245.59 161.789 249.119 163.84L330.566 211.26C332.523 212.399 334.147 214.037 335.276 216.01C336.406 217.983 337 220.22 337 222.498C337 224.775 336.406 227.013 335.276 228.986C334.147 230.958 332.523 232.596 330.566 233.736L248.002 281.804C244.814 283.659 241.197 284.637 237.515 284.637C233.833 284.637 230.217 283.659 227.028 281.804L144.453 233.736C142.496 232.596 140.872 230.958 139.743 228.986C138.613 227.013 138.019 224.775 138.019 222.498C138.019 220.22 138.613 217.983 139.743 216.01C140.872 214.037 142.496 212.399 144.453 211.26V211.26Z"
    fill="#43FA76"
    stroke="black"
    stroke-width="0.8"
    stroke-linecap="round"
    stroke-linejoin="round"
  />
  <defs>
    <linearGradient
      id="paint0_linear_7727_569005"
      x1="227.205"
      y1="260.434"
      x2="327.908"
      y2="268.672"
      gradientUnits="userSpaceOnUse"
    >
      <stop stop-color="#F3F2EF" />
      <stop offset="1" stop-color="white" />
    </linearGradient>
    <linearGradient
      id="paint1_linear_7727_569005"
      x1="200.131"
      y1="340.088"
      x2="68.2263"
      y2="337.877"
      gradientUnits="userSpaceOnUse"
    >
      <stop offset="0.637996" stop-color="#1A4747" />
      <stop offset="1" stop-color="#003333" />
    </linearGradient>
    <linearGradient
      id="paint2_linear_7727_569005"
      x1="481.149"
      y1="340.522"
      x2="349.244"
      y2="338.324"
      gradientUnits="userSpaceOnUse"
    >
      <stop offset="0.637996" stop-color="#1A4747" />
      <stop offset="1" stop-color="#003333" />
    </linearGradient>
    <linearGradient
      id="paint3_linear_7727_569005"
      x1="337.149"
      y1="420.379"
      x2="205.245"
      y2="418.168"
      gradientUnits="userSpaceOnUse"
    >
      <stop offset="0.637996" stop-color="#1A4747" />
      <stop offset="1" stop-color="#003333" />
    </linearGradient>
    <linearGradient
      id="paint4_linear_7727_569005"
      x1="343.258"
      y1="137.616"
      x2="211.353"
      y2="135.404"
      gradientUnits="userSpaceOnUse"
    >
      <stop offset="0.637996" stop-color="#1A4747" />
      <stop offset="1" stop-color="#003333" />
    </linearGradient>
    <linearGradient
      id="paint5_linear_7727_569005"
      x1="200.131"
      y1="217.907"
      x2="68.2263"
      y2="215.696"
      gradientUnits="userSpaceOnUse"
    >
      <stop offset="0.637996" stop-color="#1A4747" />
      <stop offset="1" stop-color="#003333" />
    </linearGradient>
    <linearGradient
      id="paint6_linear_7727_569005"
      x1="481.149"
      y1="218.341"
      x2="349.244"
      y2="216.142"
      gradientUnits="userSpaceOnUse"
    >
      <stop offset="0.637996" stop-color="#1A4747" />
      <stop offset="1" stop-color="#003333" />
    </linearGradient>
    <linearGradient
      id="paint7_linear_7727_569005"
      x1="337.149"
      y1="298.198"
      x2="205.245"
      y2="295.987"
      gradientUnits="userSpaceOnUse"
    >
      <stop offset="0.637996" stop-color="#1A4747" />
      <stop offset="1" stop-color="#003333" />
    </linearGradient>
  </defs>
</svg>
