<svg width="120" height="34" fill="none" xmlns="http://www.w3.org/2000/svg">
  <g>
    <path
      d="M117.4 5 109 .5c-.4-.2-.8 0-.8.3v2.6l9.7 3.7V5.6c0-.3-.2-.6-.4-.7ZM113.9 13.3h5.9l.2-.4v-1.4l-6.6-.9v2.1c0 .3.2.6.5.6ZM108.1 5v2.7c0 .4.4.8.8.9l11.1 2V9.4c0-.3-.1-.5-.2-.5L108 5Z"
      fill="#5BEA83"
    />
    <path
      d="M11.4 24h-.1v.2a4 4 0 0 1-1 2.4c-.4.4-.8.7-1.3.9-.5.2-1.2.3-1.9.3s-1.4-.1-2-.5a4 4 0 0 1-1.5-1.2c-.7-1-1-2.4-1-4 0-1.4.3-2.8 1-3.8a4 4 0 0 1 3.5-1.7 4 4 0 0 1 3 1.1c.8.7 1 1.7 1.2 2.1v.1h2v-.1a5.6 5.6 0 0 0-1.9-3.6 6.3 6.3 0 0 0-4.3-1.4c-1 0-1.8.1-2.7.5-.8.4-1.5.9-2 1.6A7 7 0 0 0 1 19.2a9 9 0 0 0 0 6 7 7 0 0 0 1.3 2.3 6.1 6.1 0 0 0 4.8 2.1c1.7 0 3.2-.5 4.3-1.5.5-.5 1-1 1.3-1.7.3-.7.5-1.5.6-2.2V24h-2ZM61.9 23.6c-.3-.6-.6-1-1.1-1.3-1-.7-2.3-1-3.9-1.4h-.4c-.9-.3-1.7-.5-2.3-.9-.5-.3-.8-.8-.8-1.6 0-.6.2-1 .7-1.3.5-.3 1.3-.5 2.2-.5 1.1 0 2 .2 2.5.7.5.4.8 1.1 1 2v.2h2v-.2c0-.7-.3-1.4-.5-2-.3-.5-.7-1-1.2-1.4a6 6 0 0 0-3.8-1.1c-.7 0-1.5 0-2 .2-.7.2-1.2.5-1.6.8-.9.7-1.3 1.6-1.3 2.8 0 .7.1 1.2.4 1.7.3.5.7.9 1.2 1.2.9.6 2 1 3.1 1.2 1.5.3 2.6.6 3.3 1 .3.2.5.4.6.7.2.3.2.7.2 1.2a2 2 0 0 1-.7 1.5c-.5.5-1.4.7-2.5.7-1.3 0-2.4-.3-3.1-1-.6-.5-1-1.3-1.1-2.3v-.1h-2v.1a5 5 0 0 0 2 3.8 7 7 0 0 0 4.2 1.3c.9 0 1.7 0 2.4-.3.6-.2 1.1-.5 1.6-.9a3.6 3.6 0 0 0 1.2-2.8c0-.8 0-1.5-.3-2ZM74.1 21c-.2-.7-.6-1.3-1-1.9-1-1-2.3-1.6-3.7-1.6-.9 0-1.7.2-2.3.6-.5.2-.9.6-1.2 1v-1.3h-2v15.3h2v-5c.3.4.7.7 1.2 1 .6.4 1.4.5 2.3.5 1.4 0 2.7-.5 3.6-1.6.5-.5.9-1.2 1.1-1.9.3-.8.4-1.6.4-2.5 0-1-.1-1.8-.4-2.6Zm-2.4 5.5a3 3 0 0 1-2.5 1.4 3 3 0 0 1-2.4-1.2 5 5 0 0 1-1-3.1 5 5 0 0 1 1-3.1 3 3 0 0 1 2.4-1.2c1 0 1.9.5 2.5 1.3.5.8.8 1.8.8 3 0 1.1-.3 2.2-.8 3ZM81.3 17.5c-1.7 0-3 .6-4 1.6s-1.6 2.6-1.6 4.5c0 1.8.5 3.3 1.5 4.4 1 1 2.5 1.6 4.2 1.6 1.3 0 2.5-.3 3.4-1 .8-.8 1.4-1.7 1.7-2.8v-.2h-2v.1c-.2.5-.5 1-.9 1.4-.6.5-1.4.7-2.3.7-1.1 0-2-.4-2.7-1.1a4 4 0 0 1-.9-2.5h9V24c0-2-.5-3.6-1.4-4.7-.9-1.2-2.3-1.8-4-1.8Zm-3.6 4.9a3 3 0 0 1 1-2.2c.7-.6 1.6-.9 2.6-.9.4 0 1 0 1.4.3.4.1.7.3 1 .6.6.6 1 1.4 1 2.2h-7ZM97.5 19.6l-.8-1.2a4 4 0 0 0-2.8-.9c-.9 0-1.7.2-2.4.6-.5.2-.9.5-1.2 1v-1.3h-2v11.5h2v-7.1c0-.4 0-.8.2-1.2l.7-.9c.5-.5 1.3-.8 2.3-.8.8 0 1.4.2 1.8.7.3.4.5 1 .5 1.8v7.5h2v-8c0-.6 0-1.2-.3-1.7ZM15 13.3v16h2v-16h-2ZM24 17.5c-1.6 0-3 .6-4 1.6s-1.5 2.6-1.5 4.5c0 1.8.6 3.3 1.5 4.4 1 1 2.5 1.6 4.2 1.6 1.3 0 2.5-.3 3.4-1 .8-.8 1.4-1.7 1.7-2.8v-.2h-2v.1c-.2.5-.5 1-.9 1.4-.6.5-1.3.7-2.3.7-1.1 0-2-.4-2.7-1.1a4 4 0 0 1-.9-2.5h9V24c0-2-.5-3.6-1.4-4.7-.9-1.2-2.3-1.8-4-1.8Zm-3.4 4.9a3 3 0 0 1 1-2.2c.6-.6 1.5-.9 2.5-.9.5 0 1 0 1.4.3.4.1.7.3 1 .6.6.6 1 1.4 1 2.2h-7ZM41.2 27.8c-.7 0-.8-.3-.8-1.1v-5.5c0-1.3-.4-2.3-1.3-2.9-.7-.5-1.7-.8-2.9-.8-1.6 0-2.8.4-3.6 1.1l-1 1.3-.3 1.5v.2h2v-.2c.1-.8.3-1.3.7-1.6.5-.3 1.1-.5 2.2-.5.8 0 1.4.2 1.8.5.2.2.4.6.4 1 0 1-.8 1.3-2.7 1.6a10 10 0 0 0-3.5 1.2c-.5.3-.8.6-1 1-.3.5-.4 1-.4 1.7a3 3 0 0 0 1 2.4c.7.6 1.7 1 2.8 1 1.7 0 3-.6 3.8-1.7.2.5.4.9.8 1.1.3.2.7.3 1.3.3l1-.1h.2v-1.5h-.5Zm-2.8-3c0 1-.4 1.8-1 2.3-.6.5-1.5.8-2.6.8-.7 0-1.2-.2-1.5-.5-.3-.2-.5-.6-.5-1.2s.2-1 .7-1.4c.5-.3 1.2-.6 2.4-.8 1.2-.3 2-.5 2.5-.8V25ZM49 17.6h-1a3 3 0 0 0-2 .7c-.4.3-.7.8-1 1.4v-1.9h-2v11.5h2v-6.1c0-1 .3-2 1-2.6a3 3 0 0 1 1-.8c.4-.2.9-.3 1.4-.3h.6l.2.1v-2H49ZM108.1 13.3v5.8a4 4 0 0 0-1.2-1c-.6-.4-1.4-.6-2.2-.6-1.5 0-2.8.6-3.7 1.6a6.5 6.5 0 0 0-1.6 4.5c0 1.8.6 3.3 1.6 4.4.9 1 2.2 1.6 3.7 1.6.8 0 1.6-.1 2.2-.5.5-.3.9-.6 1.2-1v1.2h2v-16h-2Zm-.9 13.4a3 3 0 0 1-2.4 1.2c-1 0-1.9-.5-2.5-1.4-.5-.7-.8-1.8-.8-3 0-1 .3-2.1.8-2.9a3 3 0 0 1 2.5-1.3c1 0 1.8.4 2.4 1.2.6.7 1 1.8 1 3a5 5 0 0 1-1 3.2Z"
      fill="#FFF"
    />
  </g>
</svg>
