<svg width="220" height="60" viewBox="0 0 220 60" fill="none" xmlns="http://www.w3.org/2000/svg">
  <path
    d="M214.874 8.11935L199.179 0.175349C198.405 -0.216343 197.759 0.0688876 197.759 0.82458V5.58381L215.461 12.259V9.27566C215.461 8.80012 215.201 8.28427 214.874 8.11935Z"
    fill="#5BEA83"
  />
  <path
    d="M208.308 23.4893L219.127 23.4832C219.368 23.4832 219.562 23.1523 219.562 22.7435V20.1715L207.402 18.6076V22.3975C207.402 23.0044 207.813 23.4898 208.308 23.4893Z"
    fill="#5BEA83"
  />
  <path
    d="M197.759 8.41226V13.1709C197.759 13.9267 198.405 14.6604 199.179 14.8072L219.562 18.6429V16.071C219.562 15.6627 219.368 15.27 219.127 15.1933L197.759 8.41226Z"
    fill="#5BEA83"
  />
  <path
    d="M20.2649 43.1843H20.0598L20.046 43.39C19.9283 45.1603 19.2671 46.7779 18.1851 47.9446C17.5486 48.6274 16.77 49.1629 15.9041 49.5136C14.9189 49.9185 13.7789 50.1237 12.5157 50.1237C11.0783 50.1237 9.77967 49.8259 8.65675 49.2371C7.62629 48.6971 6.73952 47.9131 6.02198 46.9053C4.72275 45.0809 4.00737 42.5543 4.00737 39.7888C4.00737 37.0414 4.72275 34.5265 6.02198 32.7065C6.7406 31.7008 7.62521 30.9174 8.65675 30.3779C9.78014 29.7899 11.0783 29.4919 12.5157 29.4919C14.8526 29.4919 16.7251 30.1931 18.0806 31.576C19.4075 32.9288 19.8835 34.5882 20.0498 35.4571L20.0841 35.6363H23.7772L23.7461 35.3882C23.4403 32.8745 22.2183 30.5608 20.3131 28.8883C18.2675 27.1026 15.5718 26.1593 12.5178 26.1593C10.7488 26.1593 9.0786 26.5029 7.55937 27.1805C6.08183 27.8406 4.76399 28.8106 3.69552 30.0243C2.61368 31.2445 1.77275 32.6976 1.19506 34.3426C0.606292 36.0193 0.307678 37.8519 0.307678 39.7888C0.307678 41.7351 0.606292 43.5743 1.19506 45.2563C1.77214 46.9059 2.61368 48.3622 3.69491 49.5853C4.76291 50.8008 6.08106 51.7722 7.55937 52.4329C9.07798 53.1109 10.7466 53.4553 12.5178 53.4553C15.6381 53.4553 18.3454 52.4754 20.3474 50.6223C21.3149 49.7205 22.0995 48.6411 22.6581 47.4431C23.2471 46.1754 23.6152 44.817 23.7468 43.4259L23.7717 43.1831H20.2649V43.1843Z"
    fill="#5BEA83"
  />
  <path
    d="M112.883 42.2956C112.441 41.3578 111.777 40.5981 110.864 39.9664C109.132 38.7693 106.655 38.1553 103.788 37.4442C103.566 37.389 103.352 37.3371 103.14 37.2853C101.43 36.8688 99.954 36.5091 98.9318 35.867C97.847 35.1858 97.3627 34.2445 97.3627 32.8151C97.3627 31.8254 97.8251 31.0002 98.6984 30.4287C99.634 29.8168 101.037 29.4936 102.756 29.4936C104.733 29.4936 106.197 29.9139 107.234 30.7794C108.23 31.607 108.824 32.8527 109.059 34.5794L109.085 34.7702H112.772L112.753 34.5319C112.642 33.1925 112.321 31.9767 111.793 30.9185C111.289 29.8999 110.569 29.0025 109.684 28.2882C107.958 26.8964 105.562 26.161 102.753 26.161C101.329 26.161 100.029 26.3265 98.8903 26.6574C97.7769 26.9791 96.8149 27.4562 96.0321 28.0747C94.4786 29.3027 93.6577 31.0674 93.6577 33.177C93.6577 34.4018 93.9341 35.4941 94.4726 36.4159C94.9497 37.2307 95.6518 37.9451 96.5601 38.5393C98.2474 39.6427 100.43 40.2108 102.34 40.6565C105.071 41.2865 107.095 41.7925 108.302 42.5659C108.879 42.9361 109.265 43.3581 109.515 43.8948C109.765 44.4316 109.885 45.0958 109.885 45.9719C109.885 47.1579 109.443 48.1559 108.605 48.8571C107.602 49.6978 106.062 50.1259 104.021 50.1259C101.524 50.1259 99.5931 49.5339 98.2821 48.3661C97.1378 47.3467 96.4617 45.8896 96.2721 44.0355L96.2517 43.837H92.5569L92.5714 44.0714C92.7483 46.9693 93.9723 49.3807 96.1095 51.045C98.1384 52.6244 100.874 53.4591 104.02 53.4591C105.618 53.4591 107.06 53.2511 108.314 52.8413C109.483 52.459 110.487 51.9001 111.3 51.1802C112.05 50.5196 112.642 49.6996 113.032 48.7804C113.405 47.8916 113.594 46.937 113.588 45.9736C113.589 44.499 113.358 43.2968 112.883 42.2956Z"
    fill="#5BEA83"
  />
  <path
    d="M135.418 37.6958C134.948 36.3525 134.267 35.1747 133.391 34.1948C131.678 32.2801 129.296 31.2253 126.681 31.2253C125.09 31.2253 123.673 31.5596 122.465 32.2182C121.619 32.6837 120.867 33.301 120.245 34.0388V31.7924H116.556V59.8558H120.245V50.5628C120.845 51.347 121.601 51.999 122.464 52.4778C123.644 53.1276 125.062 53.4568 126.681 53.4568C129.296 53.4568 131.679 52.4021 133.391 50.4873C134.267 49.5074 134.948 48.3298 135.418 46.9864C135.907 45.5824 136.156 44.019 136.156 42.3413C136.156 40.6637 135.907 39.1004 135.418 37.6958ZM130.899 47.7625C129.778 49.3442 128.178 50.1805 126.274 50.1805C124.465 50.1805 122.945 49.4468 121.879 48.0594C120.814 46.6719 120.245 44.6897 120.245 42.3413C120.245 39.993 120.81 38.0147 121.879 36.6228C122.948 35.231 124.465 34.5016 126.274 34.5016C128.178 34.5016 129.778 35.3379 130.899 36.9196C131.91 38.3445 132.467 40.2699 132.467 42.3413C132.467 44.4128 131.91 46.3399 130.899 47.7625Z"
    fill="#5BEA83"
  />
  <path
    d="M148.502 31.2242C145.444 31.2242 142.884 32.2397 141.101 34.1606C139.293 36.1069 138.336 38.9354 138.336 42.3402C138.336 45.6111 139.287 48.3865 141.088 50.3659C142.925 52.3872 145.545 53.4552 148.662 53.4552C151.15 53.4552 153.259 52.7585 154.925 51.3848C156.402 50.1683 157.481 48.4334 158.048 46.3646L158.124 46.0855H154.416L154.373 46.2509C154.11 47.2049 153.574 48.0622 152.831 48.718C151.747 49.6857 150.302 50.1762 148.541 50.1762C146.51 50.1762 144.819 49.4396 143.651 48.0477C142.642 46.8451 142.068 45.2051 142.025 43.4077H158.382V43.1871C158.382 39.4175 157.561 36.4705 155.939 34.4282C154.251 32.3043 151.748 31.2242 148.502 31.2242ZM142.031 40.1346C142.085 38.6495 142.727 37.2715 143.844 36.2339C145.045 35.1162 146.701 34.5005 148.502 34.5005C149.379 34.4928 150.25 34.6512 151.067 34.9672C151.794 35.2519 152.458 35.6811 153.014 36.2288C154.047 37.2505 154.638 38.6303 154.69 40.1346H142.031Z"
    fill="#5BEA83"
  />
  <path
    d="M178.311 35.1041C177.968 34.2608 177.434 33.5082 176.751 32.9056C175.499 31.8062 173.759 31.2253 171.721 31.2253C170.074 31.2253 168.587 31.5607 167.298 32.2216C166.442 32.6545 165.678 33.2448 165.042 33.9616V31.7924H161.353V52.8898H165.042V39.7893C165.036 39.0604 165.179 38.3376 165.462 37.6654C165.733 37.0319 166.136 36.4633 166.645 35.9977C167.711 35.0191 169.188 34.5016 170.91 34.5016C172.373 34.5016 173.484 34.943 174.21 35.8096C174.854 36.5787 175.194 37.7024 175.194 39.0605V52.8898H178.884V38.2502C178.881 37.0773 178.688 36.0187 178.311 35.1041Z"
    fill="#5BEA83"
  />
  <path d="M26.7609 23.4893V52.8897H30.4506V23.4893H26.7609Z" fill="#5BEA83" />
  <path
    d="M43.5829 31.2242C40.524 31.2242 37.9643 32.2397 36.1803 34.1606C34.3731 36.1069 33.4161 38.9354 33.4161 42.3402C33.4161 45.6111 34.3675 48.3865 36.1677 50.3659C38.0058 52.3872 40.6258 53.4552 43.7417 53.4552C46.2294 53.4552 48.3397 52.7585 50.0065 51.3848C51.482 50.1683 52.5617 48.4334 53.1285 46.3646L53.2048 46.0855H49.4962L49.4537 46.2509C49.1903 47.2049 48.6548 48.0622 47.9123 48.718C46.8271 49.6857 45.3825 50.1762 43.62 50.1762C41.59 50.1762 39.8994 49.4396 38.7312 48.0477C37.7228 46.8451 37.1495 45.2051 37.1063 43.4077H53.4608V43.1871C53.4608 39.4175 52.6392 36.4705 51.0182 34.4282C49.3326 32.3043 46.8298 31.2242 43.5829 31.2242ZM37.1114 40.1346C37.1666 38.6495 37.8074 37.2715 38.9235 36.2339C40.126 35.1162 41.7806 34.5005 43.5829 34.5005C44.4595 34.4928 45.3297 34.6512 46.1471 34.9672C46.8752 35.2517 47.538 35.6809 48.0948 36.2288C49.128 37.2505 49.7185 38.6303 49.7709 40.1346H37.1114Z"
    fill="#5BEA83"
  />
  <path
    d="M75.0202 50.0984C73.7226 50.0984 73.5037 49.4545 73.5037 48.0114V37.9667C73.5037 35.5873 72.7141 33.802 71.1557 32.6602C69.8565 31.708 68.0597 31.2259 65.8146 31.2259C62.9149 31.2259 60.6731 31.9159 59.1472 33.277C58.4418 33.9091 57.8868 34.6905 57.5225 35.564C57.1681 36.4043 56.9608 37.3587 56.9077 38.4019L56.8955 38.6336H60.5835L60.5974 38.4279C60.6997 36.9196 61.08 35.9845 61.8318 35.397C62.6131 34.7868 63.8774 34.5022 65.8157 34.5022C67.2985 34.5022 68.3805 34.784 69.0306 35.3402C69.5585 35.7925 69.8155 36.4264 69.8155 37.2787C69.8155 39.1373 68.4738 39.562 64.9229 40.2213C62.1371 40.7476 59.9632 41.3087 58.4081 42.3347C57.5706 42.8864 56.9618 43.5434 56.5478 44.3407C56.1055 45.1868 55.8938 46.176 55.8938 47.3637C55.8938 49.1522 56.5572 50.6737 57.8111 51.7727C59.0649 52.8716 60.844 53.4574 62.9337 53.4574C66.0645 53.4574 68.4721 52.4374 69.9251 50.5027C70.2158 51.4544 70.6388 52.097 71.2414 52.5074C71.8346 52.9124 72.6025 53.0928 73.7292 53.0928C74.386 53.0928 74.8492 53.0427 75.7068 52.7574L75.8581 52.7071V50.0322L75.6111 50.0608C75.4149 50.0848 75.2177 50.0973 75.0202 50.0984ZM69.8145 44.692C69.8145 46.5125 69.1897 47.9143 67.9575 48.861C66.8325 49.7248 65.2071 50.1822 63.2583 50.1822C62.0055 50.1822 61.0601 49.9168 60.4498 49.3944C59.8748 48.9028 59.5829 48.1653 59.5829 47.2031C59.5829 46.0491 59.9965 45.2491 60.9235 44.6104C61.7915 44.0113 63.1394 43.5413 65.2911 43.085C67.5218 42.6316 69.0383 42.1637 69.8134 41.691L69.8145 44.692Z"
    fill="#5BEA83"
  />
  <path
    d="M89.4146 31.3377C88.7992 31.258 88.1791 31.2211 87.5586 31.2274C86.1129 31.2274 84.8652 31.6876 83.8495 32.5949C83.1309 33.2383 82.5134 34.1066 81.976 35.2359V31.7923H78.2863V52.8897H81.9787V41.6506C81.9787 39.7568 82.5803 38.0439 83.6732 36.8285C84.21 36.2286 84.87 35.7511 85.6081 35.4283C86.4015 35.0868 87.2575 34.9143 88.1214 34.9219C88.5346 34.9229 88.9471 34.9571 89.3547 35.024L89.6114 35.0654V31.362L89.4146 31.3377Z"
    fill="#5BEA83"
  />
  <path
    d="M197.761 23.4893V34.1199C197.161 33.3399 196.41 32.6886 195.551 32.205C194.384 31.5551 192.988 31.2253 191.405 31.2253C188.754 31.2253 186.347 32.28 184.625 34.1943C182.808 36.214 181.848 39.0313 181.848 42.3413C181.848 45.6513 182.808 48.4682 184.625 50.4877C186.347 52.402 188.754 53.4568 191.405 53.4568C192.961 53.4568 194.354 53.122 195.551 52.4639C196.393 51.996 197.141 51.3791 197.761 50.6434V52.8925H201.448V23.4893H197.761ZM196.128 48.0594C195.062 49.4468 193.542 50.1805 191.731 50.1805C189.83 50.1805 188.23 49.3442 187.108 47.7625C186.098 46.3376 185.539 44.4123 185.539 42.3413C185.539 40.2703 186.098 38.3445 187.108 36.9196C188.23 35.3379 189.83 34.5016 191.731 34.5016C193.542 34.5016 195.062 35.2353 196.128 36.6228C197.193 38.0102 197.762 39.9923 197.762 42.3413C197.762 44.6903 197.191 46.6676 196.125 48.0594H196.128Z"
    fill="#5BEA83"
  />
</svg>
