<svg width="2519" height="1251" viewBox="0 0 2519 1251" fill="none" xmlns="http://www.w3.org/2000/svg">
  <path
    d="M2507.27 1148.67L2420.38 1189.07C2307.01 1042.14 2187.98 900.922 1973.6 784.018L2060.48 743.977C2068.47 741.497 2076.86 740.662 2085.17 741.521C2093.49 742.381 2101.54 744.918 2108.87 748.982C2268.04 843.242 2406.21 969.832 2514.69 1120.79C2516.51 1122.95 2517.78 1125.53 2518.4 1128.3C2519.02 1131.08 2518.96 1133.96 2518.23 1136.7C2517.5 1139.45 2516.12 1141.97 2514.21 1144.06C2512.3 1146.14 2509.92 1147.73 2507.27 1148.67Z"
    fill="white"
  />
  <path
    d="M2381.18 1207.3L2294.29 1247.7C2288.26 1250.2 2281.61 1250.72 2275.27 1249.18C2268.93 1247.64 2263.23 1244.12 2258.97 1239.12C2188.34 1146.88 1967.59 865.886 1637 774.365L1723.89 734.324C1737.36 728.408 1752.38 727.151 1766.62 730.749C2098.63 841.575 2282.64 1079.67 2381.18 1207.3Z"
    fill="white"
  />
  <path
    d="M2118.05 1133.65L2031.17 1173.69C2024.67 1176.34 2017.54 1176.98 2010.68 1175.51C2003.83 1174.05 1997.56 1170.55 1992.67 1165.47C1860.52 1020.26 1694.7 910.658 1510.21 846.578C1501.02 843.361 1495.72 837.641 1510.21 830.491L1597.09 790.093C1797.98 854.767 1977.78 973.378 2117.34 1133.3"
    fill="white"
  />
  <path
    d="M2509.39 707.155L2422.5 747.553C2371.94 709.018 2318.44 674.59 2262.51 644.592C2104.63 559.863 1997.61 543.418 1909.31 550.568L1996.2 510.528C2007.92 504.904 2020.43 501.165 2033.28 499.445C2118.4 495.513 2221.89 514.818 2370.58 594.899C2418.46 620.471 2464.6 649.255 2508.68 681.057C2527.05 696.787 2513.98 705.01 2508.68 707.155"
    fill="white"
  />
  <path
    d="M2382.95 765.784L2295.71 807.969C2288.45 810.418 2280.73 811.08 2273.17 809.898C2265.62 808.717 2258.45 805.727 2252.26 801.177C2208.2 769.344 2162.06 740.559 2114.17 715.018C1884.24 591.322 1760.97 613.13 1648.66 640.658L1735.54 600.617C1746.98 595.33 1758.78 590.909 1770.86 587.389C1880.35 561.649 2001.85 546.277 2222.6 664.968C2278.51 695.06 2332.11 729.358 2382.95 767.571"
    fill="white"
  />
  <path
    d="M2040 712.516L1953.11 752.914C1937.55 757.868 1920.75 756.98 1905.78 750.411C1723.18 665.325 1614.75 678.911 1517.27 703.578H1514.09C1516.92 700.361 1516.92 700.361 1525.04 696.428L1611.93 656.388C1717.88 629.933 1834.44 608.84 2041.76 711.801"
    fill="white"
  />
  <path
    d="M1679.03 526.612C1761.86 538.911 1846.36 532.191 1926.27 506.949C1996.8 485.308 2070.77 477.542 2144.19 484.069C2165.38 484.069 2165.38 484.069 2267.45 438.309C2188.04 427.825 2107.33 434.775 2030.81 458.686C1953.5 482.858 1871.98 490.049 1791.7 479.779C1775.1 481.924 1775.1 481.924 1678.68 526.612"
    fill="white"
  />
  <path
    d="M1994.43 503.016C1888.48 551.637 1888.48 551.637 1871.52 554.854C1802.65 566.652 1736.6 590.605 1667.02 597.755C1626.06 604.626 1584.16 603.167 1543.76 593.465C1543.76 589.89 1543.76 588.817 1553.3 584.527L1639.47 544.487C1683.94 552.09 1729.24 553.293 1774.04 548.062C1848.21 539.124 1919.56 512.311 1993.73 503.016"
    fill="white"
  />
  <path
    d="M1805.83 1074.67L1718.94 1115.06C1631.35 1045.71 1405.66 885.189 1196.92 890.194L1283.81 849.797C1295.8 844.436 1308.56 841.056 1321.6 839.786C1544.82 848.009 1845.39 1044.28 1809.71 1072.52L1805.83 1074.67Z"
    fill="white"
  />
  <path
    d="M1679.03 1133.3L1592.15 1173.7C1585.09 1176.03 1577.58 1176.6 1570.26 1175.36C1562.94 1174.11 1556.03 1171.09 1550.12 1166.55C1212.11 911.288 1016.8 955.619 933.088 974.567L1019.97 934.526C1031.39 929.286 1043.2 924.983 1055.29 921.656C1248.14 882.331 1457.93 953.831 1679.03 1133.3Z"
    fill="white"
  />
  <path
    d="M1345.62 1076.1L1258.73 1116.14C1242.5 1121.04 1225.03 1119.37 1209.99 1111.49C1004.43 1009.96 927.437 1021.04 797.109 1039.99C799.581 1036.77 799.581 1036.77 807.705 1032.84L894.59 992.798C1006.55 967.773 1125.23 957.048 1345.62 1076.1Z"
    fill="white"
  />
  <path
    d="M1690.69 724.672L1604.16 765.07C1559.17 755.184 1513.02 751.933 1467.12 755.417C1391.53 762.567 1319.13 786.878 1244.6 799.748L1331.49 759.707C1342.85 754.422 1354.67 750.233 1366.81 747.195C1393.65 742.547 1419.08 736.112 1444.51 729.677C1524.47 704.637 1609.01 698.28 1691.75 711.087C1697.04 711.087 1697.05 711.087 1699.16 715.734C1701.28 720.382 1699.16 721.097 1689.98 724.672"
    fill="white"
  />
  <path
    d="M1563.89 783.304L1477.01 823.702C1464.16 829.062 1450.19 831.031 1436.39 829.422C1277.45 805.469 1128.4 888.767 970.527 871.965L1057.06 831.567C1069.47 826.242 1082.79 823.448 1096.26 823.344C1253.79 830.494 1403.89 749.341 1563.89 783.304Z"
    fill="white"
  />
  <path
    d="M1280.63 841.575L1193.75 881.616C1182.48 886.869 1170.61 890.71 1158.43 893.056C1120.9 897.819 1083.74 905.104 1047.17 914.864C875.164 958.122 838.079 940.247 835.254 939.532C832.428 938.817 835.254 934.526 844.79 929.879L933.088 889.839C1052.82 899.491 1164.78 854.088 1282.04 841.575"
    fill="white"
  />
  <path
    d="M1714 604.19L1627.11 644.231C1499.61 676.048 1401.78 690.706 1212.46 608.48L1299 568.082C1313.91 562.435 1330.35 562.435 1345.26 568.082C1463.08 623.886 1596.98 634.184 1721.77 597.04H1724.95C1722.12 600.615 1722.12 600.615 1714 604.19Z"
    fill="white"
  />
  <path
    d="M1587.2 662.821L1500.32 702.861C1488.93 708.266 1477.12 712.691 1465 716.089C1347.74 744.689 1187.39 783.3 862.45 561.29L950.042 521.964C957.474 519.404 965.392 518.621 973.174 519.675C980.956 520.729 988.391 523.593 994.897 528.042C1312.77 732.534 1457.93 695.711 1587.2 663.536"
    fill="white"
  />
  <path
    d="M1329.72 752.913L1243.19 792.953C1231.95 798.287 1220.08 802.132 1207.87 804.394C975.824 818.694 713.402 651.382 732.475 625.642C734.255 623.479 736.409 621.662 738.832 620.279L825.718 580.239C1113.92 775.793 1266.15 758.991 1331.14 753.986"
    fill="white"
  />
  <path
    d="M1119.93 194.851C1211.07 291.837 1317.25 373.106 1434.27 435.451C1501.38 473.78 1573.24 502.875 1647.95 521.967L1735.19 481.926C1740.49 479.066 1745.08 476.564 1744.02 471.559C1672.56 452.744 1603.73 424.877 1539.17 388.618C1425.28 327.89 1321.58 249.345 1231.89 155.883C1216.7 151.593 1216.7 151.593 1119.93 196.281"
    fill="white"
  />
  <path
    d="M1608.39 538.771L1521.51 579.169C1508.44 585.073 1493.9 586.818 1479.83 584.174C1412.53 564.977 1347.6 538.111 1286.28 504.094C1115.59 410.731 967.27 280.501 851.854 122.637L939.093 82.5966C945.09 80.0561 951.723 79.483 958.059 80.958C964.394 82.433 970.114 85.8819 974.412 90.8192C1087.18 240.976 1230.52 364.847 1394.71 454.043C1461.84 491.9 1533.72 520.401 1608.39 538.771Z"
    fill="white"
  />
  <path
    d="M1280.98 539.124L1194.1 579.165C1186.24 581.819 1177.94 582.839 1169.68 582.163C1161.43 581.487 1153.4 579.13 1146.06 575.232L1139.71 572.014C976.115 482.663 833.386 358.796 721.172 208.791C719.266 206.651 717.91 204.069 717.225 201.272C716.54 198.476 716.547 195.551 717.246 192.758C717.944 189.965 719.313 187.389 721.23 185.259C723.147 183.13 725.553 181.511 728.236 180.548L815.122 140.507C929.954 298.243 1077.67 428.474 1247.78 521.964L1280.98 539.124Z"
    fill="white"
  />
  <path
    d="M997.722 939.887L910.837 980.285C779.096 1012.82 692.211 1034.27 512.789 965.628L599.674 925.587C614.228 920.655 629.975 920.655 644.529 925.587C785.807 974.208 808.411 970.275 1008.32 934.167C1005.85 937.385 1005.85 937.385 997.722 940.96"
    fill="white"
  />
  <path
    d="M870.926 998.517L784.041 1038.91C772.568 1044.11 760.77 1048.53 748.721 1052.14C611.682 1087.89 470.052 1123.64 162.42 928.088L249.306 887.69C256.988 885.216 265.113 884.477 273.108 885.527C281.102 886.577 288.771 889.39 295.574 893.768C589.431 1068.23 713.402 1036.77 870.573 998.517"
    fill="white"
  />
  <path
    d="M1028.1 827.63L941.212 867.671C768.5 834.423 569.653 721.094 409.303 564.15L496.189 524.11C502.777 521.616 509.915 520.998 516.826 522.321C523.738 523.645 530.16 526.86 535.393 531.617C770.973 751.125 984.655 804.75 1025.27 813.33C1033.04 813.33 1033.04 813.33 1036.57 817.263V820.838C1034.25 823.979 1031.05 826.344 1027.39 827.63"
    fill="white"
  />
  <path
    d="M901.301 886.261L814.415 926.302C801.697 932.116 787.663 934.34 773.798 932.737C616.627 896.986 378.222 789.735 138.05 492.65L224.936 452.252C231.004 450.008 237.591 449.625 243.874 451.151C250.156 452.677 255.854 456.044 260.255 460.832C368.5 598.529 503.493 712.294 656.891 795.098C733.095 838.631 815.748 869.415 901.654 886.261"
    fill="white"
  />
  <path
    d="M584.133 899.849L497.248 939.889C481.945 945.427 465.123 944.787 450.273 938.102C434.733 930.594 418.486 922.014 401.533 913.076C248.008 830.313 112.892 716.545 4.54384 578.81C2.63002 576.695 1.25839 574.137 0.549829 571.359C-0.15873 568.582 -0.182851 565.672 0.479768 562.883C1.14239 560.094 2.47119 557.513 4.34982 555.365C6.22846 553.218 8.59931 551.571 11.2541 550.568L98.1398 510.527C226.162 678.661 393.057 812.359 584.133 899.849Z"
    fill="white"
  />
  <path
    d="M914.722 495.153L827.13 535.551C685.853 424.01 643.823 370.742 447.095 115.841L533.98 75.8011C539.986 73.3142 546.604 72.7694 552.928 74.2416C559.252 75.7138 564.97 79.1308 569.299 84.0237C581.308 99.7538 592.963 115.484 604.619 130.857C692.458 256.665 796.243 370.25 913.309 468.698C926.731 480.138 922.846 490.505 913.309 495.153"
    fill="white"
  />
  <path
    d="M787.926 553.784L701.04 593.467C693.881 595.895 686.244 596.513 678.794 595.267C671.345 594.02 664.31 590.947 658.304 586.317C469.699 431.875 343.962 220.59 181.14 42.5535L268.025 2.5131C274.4 -0.0268059 281.366 -0.63561 288.076 0.760849C294.786 2.15731 300.95 5.49876 305.817 10.3782C361.975 72.5838 410.009 135.862 457.69 198.783C548.814 319.261 642.41 442.958 787.926 553.069"
    fill="white"
  />
  <path
    d="M491.244 486.216L403.298 527.328C396.878 529.945 389.84 530.594 383.059 529.195C376.277 527.797 370.051 524.413 365.153 519.463C343.962 494.796 50.1051 128.712 50.1051 128.712C48.4816 126.701 47.3517 124.329 46.808 121.791C46.2642 119.253 46.322 116.621 46.9767 114.11C47.6313 111.599 48.8644 109.28 50.5745 107.344C52.2847 105.408 54.4235 103.91 56.8159 102.972L143.701 62.5736C267.319 198.425 366.92 354.297 492.303 488.718"
    fill="white"
  />
</svg>
