<svg xmlns="http://www.w3.org/2000/svg" viewBox="0 0 200 74">
  <path
    d="M196.3 8.5c0-.4-.2-.9-.5-1.1L181.5.2c-.7-.4-1.3-.1-1.3.6v4.3l16.1 6.1V8.5zm-7.4 8.5v3.5c0 .6.4 1 .8 1h9.9c.2 0 .4-.3.4-.7v-2.3L188.9 17zm11.1-2.3c0-.4-.2-.7-.4-.8l-19.5-6.2V12c0 .7.6 1.4 1.3 1.5L200 17v-2.3z"
    fill="#5bea83"
  />
  <path
    d="M7.6 27.7c1-.5 2.2-.8 3.5-.8 2.1 0 3.8.6 5.1 1.9 1.2 1.2 1.6 2.7 1.8 3.5v.2h3.4v-.2c-.3-2.3-1.4-4.4-3.1-5.9-1.9-1.6-4.3-2.5-7.1-2.5-1.6 0-3.1.3-4.5.9-1.3.6-2.5 1.5-3.5 2.6S1.4 29.8.9 31.3a15.88 15.88 0 0 0 0 10c.5 1.5 1.3 2.8 2.3 3.9 1 1.1 2.2 2 3.5 2.6 1.4.6 2.9.9 4.5.9 2.8 0 5.3-.9 7.1-2.6.9-.8 1.6-1.8 2.1-2.9.5-1.2.9-2.4 1-3.7v-.2H18v.2c-.1 1.6-.7 3.1-1.7 4.2-.6.6-1.3 1.1-2.1 1.4-.9.4-1.9.6-3.1.6-1.3 0-2.5-.3-3.5-.8-.9-.5-1.7-1.2-2.4-2.1-1.2-1.7-1.8-4-1.8-6.5s.7-4.8 1.8-6.5c.7-.9 1.5-1.6 2.4-2.1zm93.2 8.8c-1.6-1.1-3.8-1.7-6.5-2.3-.2-.1-.4-.1-.6-.1-1.6-.4-2.9-.7-3.8-1.3-1-.6-1.4-1.5-1.4-2.8 0-.9.4-1.7 1.2-2.2.9-.6 2.1-.9 3.7-.9 1.8 0 3.1.4 4.1 1.2.9.8 1.5 1.9 1.7 3.5v.2h3.4v-.2c-.1-1.2-.4-2.3-.9-3.3-.5-.9-1.1-1.7-1.9-2.4-1.6-1.3-3.8-1.9-6.3-1.9-1.3 0-2.5.1-3.5.5-1 .3-1.9.7-2.6 1.3a5.75 5.75 0 0 0-2.2 4.7c0 1.1.3 2.1.7 3 .4.7 1.1 1.4 1.9 1.9 1.5 1 3.5 1.5 5.3 1.9 2.5.6 4.3 1 5.4 1.7.5.3.9.7 1.1 1.2.2.5.3 1.1.3 1.9 0 1.1-.4 2-1.2 2.6-.9.8-2.3 1.2-4.2 1.2-2.3 0-4-.5-5.2-1.6-1-.9-1.7-2.3-1.8-3.9v-.2h-3.4v.2c.2 2.6 1.3 4.8 3.2 6.4 1.9 1.4 4.3 2.2 7.2 2.2 1.5 0 2.8-.2 3.9-.6 1.1-.3 2-.9 2.7-1.5.7-.6 1.2-1.3 1.6-2.2.3-.8.5-1.7.5-2.6 0-1.3-.2-2.4-.6-3.4-.3-1-.9-1.7-1.8-2.2zm20.6-5.3a8.25 8.25 0 0 0-6.1-2.7c-1.5 0-2.7.3-3.8.9-.8.4-1.5 1-2 1.7V29H106v25.6h3.4v-8.5c.5.7 1.2 1.3 2 1.7 1.1.6 2.4.9 3.8.9 2.4 0 4.6-1 6.1-2.7.8-.9 1.4-2 1.9-3.2.4-1.3.7-2.7.7-4.2s-.2-3-.7-4.3c-.4-1.1-1-2.2-1.8-3.1zm-2.3 12.4c-1 1.4-2.5 2.2-4.2 2.2-1.7 0-3-.7-4-1.9-1-1.3-1.5-3.1-1.5-5.2s.5-3.9 1.5-5.2 2.4-1.9 4-1.9c1.7 0 3.2.8 4.2 2.2.9 1.3 1.4 3.1 1.4 4.9 0 1.8-.5 3.6-1.4 4.9zm16.1-15.1c-2.8 0-5.1.9-6.7 2.7-1.7 1.8-2.5 4.4-2.5 7.5 0 3 .9 5.5 2.5 7.3 1.7 1.8 4.1 2.8 6.9 2.8 2.3 0 4.2-.6 5.7-1.9 1.3-1.1 2.3-2.7 2.9-4.6l.1-.3h-3.4v.1c-.2.9-.7 1.7-1.4 2.3-1 .9-2.3 1.3-3.9 1.3-1.9 0-3.4-.7-4.5-1.9-.9-1.1-1.4-2.6-1.5-4.2h14.9v-.2c0-3.4-.7-6.1-2.2-8-1.7-1.9-4-2.9-6.9-2.9zm-5.9 8.1c.1-1.4.6-2.6 1.7-3.5 1.1-1 2.6-1.6 4.3-1.6a5.87 5.87 0 0 1 4.1 1.5c.9.9 1.5 2.2 1.5 3.6h-11.6zm31.6-6.6c-1.1-1-2.7-1.5-4.6-1.5-1.5 0-2.9.3-4 .9-.8.4-1.5.9-2.1 1.6v-2h-3.4v19.2h3.4V36.3c0-.7.1-1.3.4-1.9.3-.6.6-1.1 1.1-1.5 1-.9 2.3-1.4 3.9-1.4 1.3 0 2.3.4 3 1.2.6.7.9 1.7.9 3v12.6h3.4V34.9c0-1.1-.2-2-.5-2.9-.3-.8-.8-1.4-1.5-2zM24.1 48.2h3.4V21.4h-3.4v26.8zm15.4-19.7c-2.8 0-5.1.9-6.7 2.7-1.7 1.8-2.5 4.4-2.5 7.5 0 3 .9 5.5 2.5 7.3 1.7 1.8 4.1 2.8 6.9 2.8 2.3 0 4.2-.6 5.7-1.9 1.3-1.1 2.3-2.7 2.9-4.6l.1-.3H45v.1c-.2.9-.7 1.7-1.4 2.3-1 .9-2.3 1.3-3.9 1.3-1.9 0-3.4-.7-4.5-1.9-.9-1.1-1.4-2.6-1.5-4.2h14.9v-.2c0-3.4-.7-6.1-2.2-8-1.7-1.9-4-2.9-6.9-2.9zm-5.9 8.1c.1-1.4.6-2.6 1.7-3.5 1.1-1 2.6-1.6 4.3-1.6a5.87 5.87 0 0 1 4.1 1.5c.9.9 1.5 2.2 1.5 3.6H33.6zm34.5 9.1c-1.2 0-1.4-.6-1.4-1.9v-9.2c0-2.2-.7-3.8-2.1-4.8-1.2-.9-2.8-1.3-4.9-1.3-2.6 0-4.7.6-6.1 1.9a8 8 0 0 0-1.5 2.1c-.3.8-.5 1.6-.6 2.6v.2H55v-.2c.1-1.4.4-2.2 1.1-2.8.7-.6 1.9-.8 3.6-.8 1.3 0 2.3.3 2.9.8.5.4.7 1 .7 1.8 0 1.7-1.2 2.1-4.5 2.7-2.5.5-4.5 1-5.9 1.9-.8.5-1.3 1.1-1.7 1.8-.4.8-.6 1.7-.6 2.8 0 1.6.6 3 1.7 4s2.8 1.5 4.7 1.5c2.9 0 5.1-.9 6.4-2.7.3.9.7 1.5 1.2 1.8.5.4 1.2.5 2.3.5.6 0 1 0 1.8-.3h.1v-2.4h-.7zm-4.7-4.9c0 1.7-.6 2.9-1.7 3.8-1 .8-2.5 1.2-4.3 1.2-1.1 0-2-.2-2.6-.7-.5-.5-.8-1.1-.8-2 0-1.1.4-1.8 1.2-2.4.8-.5 2-1 4-1.4 2-.4 3.4-.8 4.1-1.3l.1 2.8zm16.2-12.3c-1.3 0-2.5.4-3.4 1.3-.7.6-1.2 1.4-1.7 2.4V29h-3.4v19.2h3.4V38c0-1.7.5-3.3 1.5-4.4.5-.5 1.1-1 1.8-1.3a5.93 5.93 0 0 1 3.4-.4h.2v-3.4h-1.8zm100.5-7.1v9.7c-.5-.7-1.2-1.3-2-1.7-1.1-.6-2.3-.9-3.8-.9-2.4 0-4.6 1-6.2 2.7-1.7 1.8-2.5 4.4-2.5 7.4s.9 5.6 2.5 7.4a8.47 8.47 0 0 0 10 1.8c.8-.4 1.5-1 2-1.7v2.1h3.4V21.4h-3.4zm-1.5 22.4c-1 1.3-2.4 1.9-4 1.9-1.7 0-3.2-.8-4.2-2.2-.9-1.3-1.4-3.1-1.4-4.9 0-1.9.5-3.6 1.4-4.9 1-1.4 2.5-2.2 4.2-2.2 1.7 0 3 .7 4 1.9 1 1.3 1.5 3.1 1.5 5.2s-.5 4-1.5 5.2z"
  />
  <path
    d="M56.9 65.8h5.4v-.9h-5.4v-3.2h5.8v-.9h-7v9.4h7v-.9h-5.8v-3.5zm10.3 3.4-2.4-6.1h-1.2l2.8 7.1h1.5l2.8-7.1h-1.1l-2.4 6.1zm11.2-2.8a3.42 3.42 0 0 0-1.5-3c-.5-.3-1.1-.4-1.8-.4s-1.4.2-1.9.5-.9.8-1.2 1.3c-.3.6-.4 1.2-.4 1.9 0 1.1.3 2 .9 2.7.6.7 1.5 1 2.6 1s1.9-.2 2.4-.7c.5-.5.8-1 .9-1.7h-1c-.3 1-1 1.5-2.3 1.5-.7 0-1.3-.2-1.7-.6s-.6-1.1-.7-2h5.7c-.1-.1 0-.3 0-.5zm-5.7-.4c.1-.8.3-1.4.7-1.8.4-.4.9-.6 1.7-.5 1.4 0 2.2.8 2.2 2.3h-4.6zm9.4-2.5c-.4.3-.8.8-1 1.4V63H80v7.1h1.1v-2.6c0-1.1.2-2 .5-2.6.4-.6 1-.9 2-.9h.4v-1h-.3c-.6 0-1.1.2-1.6.5zm6.6 5.1-.2.7-.2-.7-2.2-5.5h-1.2l2.8 7.1h.4l-.8 1.9h-2v.9h1.3c.4 0 .7-.1 1-.2.2-.1.4-.3.6-.5.1-.2.3-.5.5-1L92 63h-1.1l-2.2 5.6zm13.9-4.2c-.2-.5-.6-.9-1-1.2-.5-.3-1-.4-1.6-.4-1.1 0-1.9.3-2.4 1s-.8 1.6-.8 2.7.3 2 .8 2.7c.5.7 1.3 1 2.4 1 .7 0 1.2-.1 1.6-.4.5-.3.8-.7 1-1.2V70h1.1v-9.9h-1.1v4.3zm-.6 4.4c-.4.5-1 .7-1.8.7s-1.4-.2-1.8-.7c-.4-.5-.6-1.2-.6-2.1s.2-1.7.6-2.1c.4-.5 1-.7 1.8-.7s1.4.2 1.8.7c.4.5.6 1.2.6 2.1 0 .9-.2 1.6-.6 2.1zm8.9-5.4c-.5-.3-1.2-.5-1.9-.5-.8 0-1.4.2-2 .5s-.9.8-1.2 1.3c-.3.6-.4 1.2-.4 1.9s.1 1.4.4 1.9c.3.6.7 1 1.2 1.3.5.3 1.2.5 2 .5s1.4-.2 1.9-.5.9-.8 1.2-1.3c.3-.6.4-1.2.4-1.9s-.1-1.4-.4-1.9c-.2-.6-.6-1-1.2-1.3zm-.1 5.4c-.4.5-1 .7-1.8.7s-1.4-.2-1.8-.7c-.4-.5-.6-1.2-.6-2.2 0-1 .2-1.7.6-2.2.4-.5 1-.7 1.8-.7s1.4.2 1.8.7c.4.5.6 1.2.6 2.2 0 1-.2 1.7-.6 2.2zm3.5 1.4h1.1v-9.9h-1.1v9.9zm3.4 0h1.1v-9.9h-1.1v9.9zm9.1-5.2c0-.7-.2-1.2-.7-1.6s-1.2-.6-2.1-.6c-1 0-1.7.2-2.2.7-.5.4-.8 1-.8 1.8h1.1c.1-1.1.7-1.6 2-1.6.6 0 1.1.1 1.3.3.3.2.4.5.4.9 0 .3-.1.5-.2.6-.2.1-.4.2-.8.3l-1.8.3c-.7.1-1.3.4-1.6.7-.3.4-.5.8-.5 1.4 0 .7.2 1.2.6 1.5.4.3 1 .5 1.7.6.7 0 1.3-.2 1.8-.5s.7-.8.9-1.3c0 .4 0 .9.1 1.7h1c-.1-.6-.1-1.1-.1-1.8V65zm-1 1.8c0 .5-.1.9-.3 1.3-.2.4-.5.7-.8 1-.4.3-.8.4-1.3.3-.4 0-.8-.1-1-.3s-.4-.5-.4-.9.1-.7.3-.9.6-.3 1.1-.5l1.2-.2c.3-.1.5-.1.7-.2.2-.1.4-.2.5-.3v.7zm5.2-3.3c-.4.3-.8.8-1 1.4V63h-1.1v7.1h1.1v-2.6c0-1.1.2-2 .5-2.6.4-.6 1-.9 2-.9h.3v-1h-.3c-.5 0-1.1.2-1.5.5zm11.7 5.4c-.4.4-.9.5-1.6.5-.8 0-1.4-.2-1.8-.7-.4-.5-.6-1.2-.6-2.2 0-1.9.8-2.8 2.4-2.8.7 0 1.1.2 1.5.5.4.3.6.8.7 1.4h1.1c-.1-.9-.4-1.5-.9-2.1-.5-.5-1.3-.8-2.4-.8-.7 0-1.4.2-1.9.5s-.9.8-1.2 1.3-.4 1.2-.4 1.9.1 1.4.4 1.9c.3.6.7 1 1.2 1.3.5.3 1.2.5 1.9.5s1.3-.1 1.8-.4c.5-.3.9-.6 1.1-1.1.3-.4.4-.9.4-1.5h-1.1c0 1-.2 1.5-.6 1.8zm8.6-5.5c-.5-.3-1.2-.5-1.9-.5-.8 0-1.4.2-2 .5-.5.3-.9.8-1.2 1.3-.3.6-.4 1.2-.4 1.9s.1 1.4.4 1.9c.3.6.7 1 1.2 1.3.5.3 1.2.5 2 .5s1.4-.2 1.9-.5.9-.8 1.2-1.3c.3-.6.4-1.2.4-1.9s-.1-1.4-.4-1.9c-.2-.6-.6-1-1.2-1.3zm-.1 5.4c-.4.5-1 .7-1.8.7s-1.4-.2-1.8-.7c-.4-.5-.6-1.2-.6-2.2 0-1 .2-1.7.6-2.2.4-.5 1-.7 1.8-.7s1.4.2 1.8.7c.4.5.6 1.2.6 2.2 0 1-.2 1.7-.6 2.2zm8.6-3c0 1.2-.2 2.1-.6 2.7-.4.6-1 1-1.7 1-.6 0-1-.1-1.3-.4-.3-.3-.5-.8-.5-1.5v-4.4h-1.1v4.5c0 .9.2 1.6.6 2.1.4.5 1.1.7 2 .7 1.3 0 2.2-.7 2.6-2v1.8h1.1v-7.1h-1.1v2.6zm7.1-2.9c-.7 0-1.2.2-1.7.5-.5.4-.8.9-1 1.5V63h-1.1v7.1h1.1v-2.7c0-1.2.2-2.1.6-2.7.4-.6 1-.9 1.8-.9.6 0 1 .1 1.3.4s.4.8.4 1.5v4.4h1.1v-4.5c0-.9-.2-1.6-.6-2.1-.4-.4-1-.6-1.9-.6zm6.3-1.4h-.6l-.4 1.5-1.4.4v.6h1.3v4.5c0 .6.1 1 .4 1.3.3.3.7.4 1.3.4h1.7v-.9h-2.3V64h2.3v-.9h-2.3v-1.6zm9.1 5.3a3 3 0 0 0-1.7-.7l-1.5-.2c-.8-.1-1.1-.5-1.1-1.1 0-.4.1-.7.4-.9.3-.2.7-.3 1.3-.3.6 0 1.1.1 1.4.4s.5.6.5 1h1.1c0-.7-.3-1.2-.9-1.6-.5-.4-1.2-.6-2.1-.6-.9 0-1.6.2-2.1.6-.5.4-.7.9-.7 1.6 0 .5.2 1 .5 1.3.3.3.8.5 1.4.6l1.6.2c.4.1.8.2 1 .4.2.2.3.5.3.8 0 .4-.1.7-.4.9-.3.2-.7.3-1.3.3-1.4 0-2.1-.6-2.3-1.7h-1c0 .8.3 1.4.8 1.9s1.3.7 2.5.7c.9 0 1.7-.2 2.1-.5.5-.4.7-.9.7-1.6 0-.6-.2-1.1-.5-1.5z"
  />
</svg>
