<?xml version="1.0" encoding="utf-8" ?>
<!-- Generator: Adobe Illustrator 26.0.3, SVG Export Plug-In . SVG Version: 6.00 Build 0)  -->
<svg
  version="1.1"
  xmlns="http://www.w3.org/2000/svg"
  xmlns:xlink="http://www.w3.org/1999/xlink"
  x="0px"
  y="0px"
  viewBox="300 100 1300 564"
  style="enable-background:new 0 0 1860 800;"
  xml:space="preserve"
>
  <style type="text/css">
.st0 {
  fill: #ffffff;
}
.st1 {
  fill: #5bea83;
}
.st2 {
  fill: none;
  stroke: #000000;
  stroke-width: 8;
  stroke-miterlimit: 10;
}
.st3 {
  fill: none;
  stroke: #ffffff;
  stroke-width: 8;
  stroke-miterlimit: 10;
}
  </style>
  <g id="Layer_1">
    <g>
      <g>
        <path
          class="st1"
          d="M1647.9,177.7l-107.4-54.3c-5.3-2.7-9.7-0.7-9.7,4.4v32.6l121.1,45.7v-20.4
				C1651.9,182.4,1650.1,178.9,1647.9,177.7z"
        />
        <path
          class="st1"
          d="M1603,282.9l74,0c1.7,0,3-2.3,3-5.1v-17.6l-83.2-10.7v25.9C1596.8,279.6,1599.6,282.9,1603,282.9z"
        />
        <path
          class="st1"
          d="M1530.8,179.7v32.6c0,5.2,4.4,10.2,9.7,11.2l139.4,26.2v-17.6c0-2.8-1.3-5.5-3-6L1530.8,179.7z"
        />
        <path
          class="st0"
          d="M316.6,417.6h-1.4l-0.1,1.4c-0.8,12.1-5.3,23.2-12.7,31.2c-4.4,4.7-9.7,8.3-15.6,10.7
				c-6.7,2.8-14.5,4.2-23.2,4.2c-9.8,0-18.7-2-26.4-6.1c-7-3.7-13.1-9.1-18-16c-8.9-12.5-13.8-29.8-13.8-48.7
				c0-18.8,4.9-36,13.8-48.4c4.9-6.9,11-12.2,18-15.9c7.7-4,16.6-6.1,26.4-6.1c16,0,28.8,4.8,38.1,14.3c9.1,9.3,12.3,20.6,13.5,26.5
				l0.2,1.2h25.3l-0.2-1.7c-2.1-17.2-10.5-33-23.5-44.5c-14-12.2-32.4-18.7-53.3-18.7c-12.1,0-23.5,2.4-33.9,7
				c-10.1,4.5-19.1,11.2-26.4,19.5c-7.4,8.3-13.2,18.3-17.1,29.5c-4,11.5-6.1,24-6.1,37.3c0,13.3,2,25.9,6.1,37.4
				c3.9,11.3,9.7,21.2,17.1,29.6c7.3,8.3,16.3,15,26.4,19.5c10.4,4.6,21.8,7,33.9,7c21.3,0,39.9-6.7,53.6-19.4
				c6.6-6.2,12-13.6,15.8-21.7c4-8.7,6.5-18,7.4-27.5l0.2-1.7L316.6,417.6L316.6,417.6z"
        />
        <path
          class="st0"
          d="M950.2,411.5c-3-6.4-7.6-11.6-13.8-15.9c-11.8-8.2-28.8-12.4-48.4-17.3c-1.5-0.4-3-0.7-4.4-1.1
				c-11.7-2.8-21.8-5.3-28.8-9.7c-7.4-4.7-10.7-11.1-10.7-20.9c0-6.8,3.2-12.4,9.1-16.3c6.4-4.2,16-6.4,27.8-6.4
				c13.5,0,23.5,2.9,30.6,8.8c6.8,5.7,10.9,14.2,12.5,26l0.2,1.3h25.2l-0.1-1.6c-0.8-9.2-3-17.5-6.6-24.7c-3.5-7-8.4-13.1-14.4-18
				c-11.8-9.5-28.2-14.6-47.4-14.6c-9.7,0-18.6,1.1-26.4,3.4c-7.6,2.2-14.2,5.5-19.6,9.7c-10.6,8.4-16.2,20.5-16.2,34.9
				c0,8.4,1.9,15.9,5.6,22.2c3.3,5.6,8.1,10.5,14.3,14.5c11.5,7.5,26.5,11.4,39.5,14.5c18.7,4.3,32.5,7.8,40.8,13.1
				c3.9,2.5,6.6,5.4,8.3,9.1c1.7,3.7,2.5,8.2,2.5,14.2c0,8.1-3,14.9-8.8,19.7c-6.9,5.8-17.4,8.7-31.4,8.7c-17.1,0-30.3-4-39.3-12
				c-7.8-7-12.5-16.9-13.8-29.6l-0.1-1.4h-25.3l0.1,1.6c1.2,19.8,9.6,36.3,24.2,47.7c13.9,10.8,32.6,16.5,54.1,16.5
				c10.9,0,20.8-1.4,29.4-4.2c8-2.6,14.9-6.4,20.4-11.4c5.1-4.5,9.2-10.1,11.9-16.4c2.6-6.1,3.8-12.6,3.8-19.2
				C955,426.6,953.4,418.4,950.2,411.5z"
        />
        <path
          class="st0"
          d="M1104.3,380.1c-3.2-9.2-7.9-17.2-13.9-23.9c-11.7-13.1-28-20.3-45.9-20.3c-10.9,0-20.6,2.3-28.8,6.8
				c-5.8,3.2-10.9,7.4-15.2,12.5v-15.4h-25.2v192h25.2v-63.6c4.1,5.4,9.3,9.8,15.2,13.1c8.1,4.4,17.8,6.7,28.8,6.7
				c17.9,0,34.2-7.2,45.9-20.3c6-6.7,10.7-14.8,13.9-23.9c3.3-9.6,5.1-20.3,5.1-31.8C1109.4,400.4,1107.7,389.7,1104.3,380.1z
				 M1073.4,448.9c-7.7,10.8-18.6,16.5-31.6,16.5c-12.4,0-22.8-5-30.1-14.5c-7.3-9.5-11.2-23.1-11.2-39.1c0-16.1,3.9-29.6,11.2-39.1
				c7.3-9.5,17.7-14.5,30.1-14.5c13,0,24,5.7,31.6,16.5c6.9,9.7,10.7,22.9,10.7,37.1C1084.1,426,1080.3,439.2,1073.4,448.9z"
        />
        <path
          class="st0"
          d="M1193.8,335.8c-20.9,0-38.4,6.9-50.6,20.1c-12.4,13.3-18.9,32.7-18.9,56c0,22.4,6.5,41.4,18.8,54.9
				c12.6,13.8,30.5,21.1,51.8,21.1c17,0,31.4-4.8,42.8-14.2c10.1-8.3,17.5-20.2,21.4-34.3l0.5-1.9h-25.4l-0.3,1.1
				c-1.8,6.5-5.5,12.4-10.5,16.9c-7.4,6.6-17.3,10-29.4,10c-13.9,0-25.5-5-33.4-14.6c-6.9-8.2-10.8-19.4-11.1-31.7h111.9v-1.5
				c0-25.8-5.6-45.9-16.7-59.9C1233.2,343.2,1216,335.8,1193.8,335.8z M1149.6,396.8c0.4-10.2,4.8-19.6,12.4-26.7
				c8.2-7.6,19.5-11.9,31.9-11.9c6-0.1,12,1,17.5,3.2c5,1.9,9.5,4.9,13.3,8.6c7.1,7,11.1,16.4,11.5,26.7H1149.6z"
        />
        <path
          class="st0"
          d="M1397.8,362.3c-2.3-5.8-6-10.9-10.7-15c-8.6-7.5-20.5-11.5-34.4-11.5c-11.3,0-21.4,2.3-30.3,6.8
				c-5.9,3-11.1,7-15.4,11.9v-14.8h-25.2V484h25.2v-89.6c0-5,0.9-9.9,2.9-14.5c1.9-4.3,4.6-8.2,8.1-11.4
				c7.3-6.7,17.4-10.2,29.2-10.2c10,0,17.6,3,22.6,8.9c4.4,5.3,6.7,12.9,6.7,22.2V484h25.2V383.9
				C1401.6,375.8,1400.3,368.6,1397.8,362.3z"
        />
        <path class="st0" d="M362.5,282.9H361v1.5v198.1v1.5h1.5h22.2h1.5v-1.5V284.4v-1.5h-1.5H362.5z" />
        <path
          class="st0"
          d="M476.1,335.8c-20.9,0-38.4,6.9-50.6,20.1c-12.4,13.3-18.9,32.7-18.9,56c0,22.4,6.5,41.4,18.8,54.9
				c12.6,13.8,30.5,21.1,51.8,21.1c17,0,31.5-4.8,42.9-14.2c10.1-8.3,17.5-20.2,21.4-34.3l0.5-1.9h-25.4l-0.3,1.1
				c-1.8,6.5-5.5,12.4-10.5,16.9c-7.4,6.6-17.3,10-29.4,10c-13.9,0-25.5-5-33.4-14.6c-6.9-8.2-10.8-19.4-11.1-31.7h111.9v-1.5
				c0-25.8-5.6-45.9-16.7-59.9C515.4,343.2,498.3,335.8,476.1,335.8z M431.8,396.8c0.4-10.2,4.8-19.6,12.4-26.7
				c8.2-7.6,19.5-11.9,31.9-11.9c6-0.1,11.9,1,17.5,3.2c5,1.9,9.5,4.9,13.3,8.6c7.1,7,11.1,16.4,11.5,26.7H431.8z"
        />
        <path
          class="st0"
          d="M691.2,464.9c-8.9,0-10.4-4.4-10.4-14.3v-68.7c0-16.3-5.4-28.5-16.1-36.3c-8.9-6.5-21.2-9.8-36.5-9.8
				c-19.8,0-35.2,4.7-45.6,14c-4.8,4.3-8.6,9.7-11.1,15.6c-2.4,5.7-3.8,12.3-4.2,19.4l-0.1,1.6h25.2l0.1-1.4
				c0.7-10.3,3.3-16.7,8.4-20.7c5.3-4.2,14-6.1,27.3-6.1c10.1,0,17.5,1.9,22,5.7c3.6,3.1,5.4,7.4,5.4,13.3
				c0,12.7-9.2,15.6-33.5,20.1c-19.1,3.6-33.9,7.4-44.6,14.5c-5.7,3.8-9.9,8.3-12.7,13.7c-3,5.8-4.5,12.6-4.5,20.7
				c0,12.2,4.5,22.6,13.1,30.2c8.6,7.5,20.7,11.5,35,11.5c21.4,0,37.9-7,47.8-20.2c2,6.5,4.9,10.9,9,13.7c4.1,2.8,9.3,4,17,4
				c4.5,0,7.7-0.3,13.5-2.3l1-0.3v-18.3l-1.7,0.2C693.9,464.8,692.5,464.9,691.2,464.9z M655.5,427.9c0,12.5-4.3,22-12.7,28.5
				c-7.7,5.9-18.8,9-32.1,9c-8.6,0-15-1.8-19.2-5.4c-3.9-3.4-5.9-8.4-5.9-15c0-7.9,2.8-13.4,9.2-17.7c5.9-4.1,15.2-7.3,29.9-10.4
				c15.3-3.1,25.6-6.3,30.9-9.5L655.5,427.9z"
        />
        <path
          class="st0"
          d="M789.6,336.6c-4.2-0.5-8.5-0.8-12.7-0.8c-9.9,0-18.4,3.1-25.4,9.4c-4.9,4.4-9.1,10.3-12.8,18.1v-23.6h-25.2
				V484h25.3v-76.9c0-13,4.1-24.7,11.6-33c3.7-4.1,8.2-7.4,13.2-9.6c5.4-2.3,11.3-3.5,17.2-3.5c2.8,0,5.6,0.2,8.4,0.7l1.8,0.3v-25.3
				L789.6,336.6z"
        />
        <path
          class="st0"
          d="M1554.5,282.9h-23.7v72.7c-4.1-5.3-9.2-9.8-15.1-13.1c-8-4.4-17.5-6.7-28.4-6.7c-18.1,0-34.6,7.2-46.4,20.3
				c-12.4,13.8-19,33.1-19,55.7c0,22.6,6.6,41.9,19,55.7c11.8,13.1,28.2,20.3,46.4,20.3c10.6,0,20.2-2.3,28.4-6.8
				c5.8-3.2,10.9-7.4,15.1-12.5V484h25.2V282.9H1554.5z M1519.6,451c-7.3,9.5-17.7,14.5-30.1,14.5c-13,0-24-5.7-31.6-16.5
				c-6.9-9.7-10.7-22.9-10.7-37.1c0-14.2,3.8-27.3,10.7-37.1c7.7-10.8,18.6-16.5,31.6-16.5c12.4,0,22.8,5,30.1,14.5
				c7.3,9.5,11.2,23.1,11.2,39.1C1530.8,427.9,1526.9,441.4,1519.6,451L1519.6,451z"
        />
      </g>
      <g>
        <path class="st0" d="M606.9,615.6v25.7h43.7v7.1h-52.5v-70.6h52.2v7.1h-43.4v23.7h40.2v7H606.9z" />
        <path class="st0" d="M684.3,641l17.9-45.6h8.4l-20.9,53.1h-11.2l-20.9-53.1h8.9L684.3,641z" />
        <path
          class="st0"
          d="M760,632.1h7.7c-0.6,4.9-2.9,9.1-6.9,12.7c-4,3.6-9.9,5.4-17.9,5.4c-8.7,0-15.3-2.6-19.7-7.8
				c-4.4-5.2-6.6-12-6.6-20.5c0-5.4,1-10.2,3-14.4c2-4.2,5-7.6,8.9-10s8.8-3.7,14.4-3.7c5.2,0,9.6,1.1,13.4,3.3
				c3.8,2.2,6.6,5.3,8.6,9.3c1.9,4,2.9,8.6,2.9,13.7c0,1.6-0.1,2.9-0.2,3.7h-42.7c0.3,7,2,12.1,5.1,15.2c3.1,3.1,7.5,4.7,13.1,4.7
				C752.5,643.6,758.1,639.8,760,632.1z M730.6,604.3c-3,2.8-4.8,7.1-5.4,13.2h34.4c-0.4-11.5-5.9-17.3-16.6-17.3
				C737.7,600.1,733.6,601.5,730.6,604.3z"
        />
        <path
          class="st0"
          d="M810,594.6v8.4h-2.2c-7.3-0.2-12.3,1.9-15,6.5c-2.7,4.5-4.1,11-4.1,19.4v19.5h-8.5v-53.1h8.5v14
				c1.7-4.6,4.2-8.2,7.4-10.8c3.2-2.6,7.2-3.9,12-3.9H810z"
        />
        <path
          class="st0"
          d="M862.1,595.3h8.4l-24.9,61.9c-1.3,3.3-2.4,5.7-3.4,7.4c-1,1.7-2.4,2.9-4.2,3.8c-1.8,0.8-4.2,1.3-7.3,1.3
				h-10.1v-6.9h14.7l5.8-14.3h-3l-21-53.1h8.9l16.2,40.9l1.8,5.1l1.6-5.1L862.1,595.3z"
        />
        <path
          class="st0"
          d="M949.8,574.1h8.5v74.3h-8.5v-10.2c-1.8,3.8-4.4,6.8-7.8,8.8c-3.4,2.1-7.4,3.1-12.3,3.1c-8,0-14-2.6-18.1-7.7
				c-4.1-5.2-6.2-12-6.2-20.5c0-8.6,2.1-15.4,6.2-20.5c4.1-5.1,10.1-7.7,18.1-7.7c4.8,0,8.9,1,12.3,3s6,4.9,7.8,8.8V574.1z M945,638
				c3.2-3.5,4.8-8.8,4.8-16.1c0-7.3-1.6-12.7-4.8-16.1c-3.2-3.5-7.7-5.2-13.5-5.2c-6,0-10.4,1.8-13.2,5.3c-2.8,3.5-4.2,8.9-4.2,16.1
				c0,7.2,1.4,12.6,4.2,16.1c2.8,3.5,7.2,5.3,13.2,5.3C937.2,643.2,941.7,641.5,945,638z"
        />
        <path
          class="st0"
          d="M982.7,646.4c-4-2.4-7-5.8-9-10.1c-2-4.3-3-9.1-3-14.6c0-5.4,1-10.2,3-14.4s5-7.6,9-10
				c4-2.4,8.9-3.7,14.7-3.7c5.7,0,10.6,1.2,14.6,3.7c4,2.4,7,5.8,9,10s3,9.1,3,14.4c0,5.4-1,10.3-3,14.5s-5,7.6-9,10.1
				c-4,2.5-8.9,3.7-14.6,3.7C991.6,650.1,986.7,648.9,982.7,646.4z M983.8,638.1c3,3.4,7.6,5.1,13.6,5.1c6.1,0,10.6-1.7,13.6-5.1
				c3-3.4,4.5-8.8,4.5-16.2c0-7.4-1.5-12.8-4.5-16.2c-3-3.4-7.5-5.1-13.6-5.1c-6.1,0-10.6,1.7-13.6,5.1c-3,3.4-4.5,8.8-4.5,16.2
				C979.3,629.2,980.8,634.6,983.8,638.1z"
        />
        <path class="st0" d="M1045.9,648.4h-8.5v-74.3h8.5V648.4z" />
        <path class="st0" d="M1071.3,648.4h-8.5v-74.3h8.5V648.4z" />
        <path
          class="st0"
          d="M1090.5,645.8c-3.2-2.7-4.8-6.5-4.8-11.4c0-4.4,1.3-7.9,3.9-10.6s6.7-4.4,12.3-5.4l13.5-2.2
				c2.9-0.5,5-1.2,6.2-2.1c1.2-0.9,1.8-2.4,1.8-4.3c0-3-1-5.3-2.9-7c-1.9-1.7-5.3-2.5-10.1-2.5c-9.3,0-14.2,3.9-14.9,11.8h-8.4
				c0.1-5.7,2.2-10.2,6.2-13.5c4-3.3,9.6-4.9,16.8-4.9c7,0,12.3,1.5,15.8,4.4c3.5,2.9,5.3,6.9,5.3,11.8v25.5c0,4.6,0.2,9,0.6,13.2
				h-7.7c-0.5-5.3-0.7-9.4-0.7-12.4c-1.2,3.8-3.4,7.1-6.7,9.8s-7.7,4-13.3,4C1098,649.8,1093.8,648.4,1090.5,645.8z M1115,640.3
				c2.8-1.8,4.8-4.3,6.2-7.3c1.4-3,2.1-6.3,2.1-9.8v-4.6c-1.3,0.9-2.6,1.6-4.1,2.1c-1.4,0.5-3.3,1-5.5,1.5l-8.8,1.8
				c-3.7,0.8-6.4,1.9-8.1,3.4c-1.7,1.5-2.5,3.7-2.5,6.5c0,3,1,5.2,2.9,6.7c1.9,1.5,4.5,2.3,7.7,2.3
				C1108.9,643.1,1112.2,642.2,1115,640.3z"
        />
        <path
          class="st0"
          d="M1176.4,594.6v8.4h-2.2c-7.3-0.2-12.3,1.9-15,6.5c-2.7,4.5-4.1,11-4.1,19.4v19.5h-8.5v-53.1h8.5v14
				c1.7-4.6,4.2-8.2,7.4-10.8s7.2-3.9,12-3.9H1176.4z"
        />
        <path
          class="st0"
          d="M1215,607.3c2.1-4.3,5.1-7.6,9.1-10c4-2.4,8.8-3.6,14.4-3.6c7.7,0,13.7,1.9,17.8,5.7c4.2,3.8,6.5,9,6.9,15.4
				h-8c-0.6-4.5-2.3-7.9-5.1-10.5c-2.8-2.5-6.5-3.8-11.4-3.8c-12.2,0-18.2,7.1-18.2,21.3c0,7.4,1.5,12.8,4.6,16.2
				c3.1,3.4,7.5,5.1,13.3,5.1c5.2,0,9.2-1.3,12.1-4c2.9-2.7,4.6-6.4,5.2-11h8.1c-0.2,4.2-1.3,7.9-3.3,11.2c-2,3.3-4.9,5.9-8.6,7.9
				c-3.7,1.9-8.2,2.9-13.4,2.9c-5.7,0-10.5-1.2-14.5-3.6s-7-5.7-9-10c-2-4.2-3-9.1-3-14.6C1211.9,616.4,1212.9,611.6,1215,607.3z"
        />
        <path
          class="st0"
          d="M1285.7,646.4c-4-2.4-7-5.8-9-10.1c-2-4.3-3-9.1-3-14.6c0-5.4,1-10.2,3-14.4c2-4.2,5-7.6,9-10
				s8.9-3.7,14.7-3.7c5.7,0,10.6,1.2,14.6,3.7s7,5.8,9,10c2,4.2,3,9.1,3,14.4c0,5.4-1,10.3-3,14.5c-2,4.2-5,7.6-9,10.1
				s-8.9,3.7-14.6,3.7C1294.6,650.1,1289.7,648.9,1285.7,646.4z M1286.7,638.1c3,3.4,7.6,5.1,13.6,5.1s10.6-1.7,13.6-5.1
				c3-3.4,4.5-8.8,4.5-16.2c0-7.4-1.5-12.8-4.5-16.2c-3-3.4-7.5-5.1-13.6-5.1s-10.6,1.7-13.6,5.1c-3,3.4-4.5,8.8-4.5,16.2
				C1282.2,629.2,1283.7,634.6,1286.7,638.1z"
        />
        <path
          class="st0"
          d="M1378.7,595.3h8.5v53.1h-8.5v-13.5c-3.4,10.1-10,15.2-19.7,15.2c-6.7,0-11.5-1.7-14.7-5.2
				c-3.1-3.5-4.7-8.7-4.7-15.7v-33.8h8.5v32.9c0,5.6,1.1,9.5,3.4,11.6c2.3,2.2,5.6,3.2,10,3.2c5.5,0,9.8-2.4,12.8-7.2
				c3-4.8,4.5-11.5,4.5-20.3V595.3z"
        />
        <path
          class="st0"
          d="M1446.4,598.9c3,3.5,4.6,8.7,4.6,15.7v33.9h-8.5v-32.9c0-5.4-1.1-9.2-3.2-11.4s-5.3-3.3-9.5-3.3
				c-5.9,0-10.4,2.3-13.5,6.9c-3,4.6-4.6,11.4-4.6,20.5v20.3h-8.5v-53.1h8.5v13.9c1.7-5,4.2-8.8,7.6-11.5c3.4-2.7,7.6-4.1,12.7-4.1
				C1438.6,593.7,1443.4,595.4,1446.4,598.9z"
        />
        <path
          class="st0"
          d="M1483.2,648.4c-4.9,0-8.2-1-10.1-2.9c-1.8-1.9-2.8-5.1-2.8-9.6v-34h-10.1v-4.8l10.8-2.7l3.2-11h4.6v11.8
				h17.5v6.7h-17.5v39.5h16.9v6.9H1483.2z"
        />
        <path
          class="st0"
          d="M1512.5,630.7c0.8,8.6,6.4,12.9,16.9,12.9c4.5,0,7.8-0.8,9.9-2.3c2.1-1.6,3.1-3.9,3.1-6.9
				c0-2.5-0.8-4.5-2.3-5.9c-1.6-1.4-4-2.4-7.3-2.9l-12.3-1.8c-4.7-0.6-8.2-2.2-10.7-4.6c-2.5-2.4-3.7-5.7-3.7-9.7
				c0-5,1.9-8.8,5.6-11.7c3.7-2.8,8.9-4.2,15.6-4.2c6.8,0,12.2,1.6,16.1,4.7c3.9,3.1,6.1,7.2,6.4,12.3h-8.4c-0.3-3-1.6-5.6-3.9-7.5
				s-5.8-3-10.4-3c-4.3,0-7.5,0.8-9.6,2.3c-2.1,1.6-3.1,3.7-3.1,6.5c0,4.4,2.9,7,8.6,7.9l11.2,1.6c5.9,0.8,10.2,2.6,12.8,5.1
				c2.6,2.6,3.9,6.1,3.9,10.6c0,5.4-1.8,9.4-5.5,12.1c-3.7,2.7-9.1,4-16.1,4c-8.3,0-14.4-1.8-18.4-5.3c-4-3.5-6-8.2-6.2-14.2H1512.5
				z"
        />
      </g>
    </g>
  </g>
  <g id="Layer_2" />
</svg>
