<svg width="123" height="24" viewBox="0 0 123 24" fill="none" xmlns="http://www.w3.org/2000/svg">
  <g>
    <path
      d="M2.2.3h4.4v6.3h2.6v3.6H6.6v13.4H2.2V10.2H0V6.6h2.2V.3ZM10.5 6.6h3.8v2.1c.4-.8 1-1.5 1.6-2a4 4 0 0 1 4-.1l-1.4 3.6a3 3 0 0 0-1.3-.3c-.6 0-1.2.4-1.7 1.2a11 11 0 0 0-.7 4.8v7.7h-4.3v-17ZM30.3 10c-1.4 0-2.5.5-3.4 1.5a5 5 0 0 0-1.3 3.5 5 5 0 0 0 1.4 3.7c.9 1 2 1.4 3.3 1.4 1.4 0 2.5-.5 3.4-1.4a5 5 0 0 0 1.4-3.7c0-1.4-.5-2.6-1.4-3.6-.9-.9-2-1.3-3.4-1.3Zm4.6-3.4h4.4v17h-4.4v-1.8c-.9.8-1.7 1.3-2.6 1.7a7.8 7.8 0 0 1-8.6-2 8.8 8.8 0 0 1-2.5-6.4 9 9 0 0 1 2.4-6.5 7.7 7.7 0 0 1 5.8-2.5A7.5 7.5 0 0 1 35 8.4V6.6ZM43.7 6.6H48v1.7c1-.8 1.8-1.4 2.7-1.7.8-.3 1.6-.5 2.4-.5A6 6 0 0 1 57.6 8c1 1 1.5 2.5 1.5 4.4v11.3h-4.3V16c0-2 0-3.4-.3-4-.2-.7-.5-1.2-1-1.5-.4-.4-1-.6-1.7-.6-.8 0-1.6.3-2.2.9-.7.6-1.1 1.4-1.4 2.4l-.1 3.4v6.9h-4.4v-17Z"
      fill="#343434"
    />
    <path
      d="M61.4 6.6h4.3l3.5 9.6L73 6.6h2.6l3.7 9.5 3.5-9.5h4.3l-6.3 17H78l-3.7-9.7-3.8 9.7h-2.8l-6.3-17ZM97.9 10c-1.4 0-2.5.5-3.4 1.5a5 5 0 0 0-1.3 3.5 5 5 0 0 0 1.3 3.7c1 1 2 1.4 3.4 1.4 1.3 0 2.5-.5 3.4-1.4a5 5 0 0 0 1.3-3.7c0-1.4-.4-2.6-1.3-3.6-1-.9-2-1.3-3.4-1.3Zm4.6-3.4h4.3v17h-4.3v-1.8c-.9.8-1.8 1.3-2.6 1.7a7.8 7.8 0 0 1-8.6-2 8.8 8.8 0 0 1-2.5-6.4 9 9 0 0 1 2.4-6.5A7.7 7.7 0 0 1 97 6.1a7.5 7.5 0 0 1 5.5 2.3V6.6ZM110.8 0h4.3v23.6h-4.3V0ZM118.6 0h4.4v23.6h-4.4V0Z"
      fill="#BF1E24"
    />
  </g>
</svg>
