<svg width="60" height="60" fill="none" xmlns="http://www.w3.org/2000/svg">
  <path
    d="M30 60c16.569 0 30-13.431 30-30C60 13.431 46.569 0 30 0 13.431 0 0 13.431 0 30c0 16.569 13.431 30 30 30Z"
    fill="#2CA01C"
  />
  <path
    d="M9.09 30c0 6.277 5.02 11.325 11.26 11.325h1.608V37.12H20.35c-3.925 0-7.077-3.171-7.077-7.119s3.152-7.119 7.077-7.119h3.86v22.004a4.186 4.186 0 0 0 4.182 4.206V18.675H20.35c-6.24 0-11.26 5.048-11.26 11.325Zm30.56-11.325h-1.608v4.206h1.608c3.925 0 7.077 3.171 7.077 7.12 0 3.947-3.152 7.118-7.077 7.118h-3.86V15.116a4.186 4.186 0 0 0-4.182-4.207v30.416h8.042c6.24 0 11.26-5.048 11.26-11.325 0-6.277-5.02-11.325-11.26-11.325Z"
    fill="#fff"
  />
</svg>
