<svg width="33" height="34" fill="none" xmlns="http://www.w3.org/2000/svg">
  <path d="M16.5 33.5C25.613 33.5 33 26.113 33 17S25.613.5 16.5.5 0 7.887 0 17s7.387 16.5 16.5 16.5Z" fill="#fff" />
  <path
    d="M5 17c0 3.453 2.76 6.229 6.192 6.229h.885v-2.314h-.885A3.893 3.893 0 0 1 7.3 17a3.893 3.893 0 0 1 3.892-3.915h2.123v12.101a2.302 2.302 0 0 0 2.3 2.314V10.771h-4.423C7.76 10.771 5 13.547 5 17Zm16.808-6.229h-.885v2.314h.885A3.893 3.893 0 0 1 25.7 17a3.893 3.893 0 0 1-3.892 3.915h-2.123V8.814a2.302 2.302 0 0 0-2.3-2.314v16.729h4.423C25.24 23.229 28 20.453 28 17c0-3.453-2.76-6.229-6.192-6.229Z"
    fill="#2CA01C"
  />
</svg>
