<?xml version="1.0" standalone="no" ?>
<!DOCTYPE svg PUBLIC "-//W3C//DTD SVG 20010904//EN" "http://www.w3.org/TR/2001/REC-SVG-20010904/DTD/svg10.dtd">
<svg
  version="1.0"
  xmlns="http://www.w3.org/2000/svg"
  width="700.000000pt"
  height="700.000000pt"
  viewBox="0 0 700.000000 700.000000"
  preserveAspectRatio="xMidYMid meet"
>
  <metadata>Created by potrace 1.14, written by Peter Selinger 2001-2017</metadata>
  <g transform="translate(0.000000,700.000000) scale(0.100000,-0.100000)" fill="#000000" stroke="none">
    <path
      d="M1444 5856 c-21 -12 -47 -37 -58 -55 -19 -34 -20 -53 -21 -524 0
-269 2 -492 5 -496 3 -4 14 -10 25 -14 11 -3 43 -14 70 -25 28 -10 149 -56
270 -101 121 -45 231 -87 245 -93 14 -5 196 -74 405 -153 209 -79 607 -228
885 -333 278 -105 714 -269 970 -365 256 -96 489 -185 518 -196 29 -12 57 -21
63 -21 7 0 9 111 7 328 -3 320 -3 328 -27 375 -12 26 -35 60 -50 75 -16 15
-214 121 -442 236 -228 115 -571 289 -764 386 -442 224 -1224 619 -1641 829
-357 180 -385 189 -460 147z"
    />
    <path
      d="M1366 3733 c1 -313 6 -500 12 -521 29 -88 107 -177 187 -213 35 -16
141 -40 280 -63 17 -3 88 -17 160 -31 71 -14 141 -27 155 -30 14 -2 40 -7 57
-10 18 -3 79 -14 135 -26 57 -11 119 -22 138 -25 19 -3 42 -7 50 -9 17 -5 222
-44 630 -119 107 -20 227 -43 265 -51 39 -8 85 -17 104 -20 19 -3 202 -37 405
-76 450 -84 415 -78 451 -84 17 -3 111 -21 211 -40 198 -37 202 -38 289 -54
33 -6 71 -13 85 -16 80 -16 342 -65 395 -75 78 -14 106 -20 160 -30 28 -6 60
-12 73 -15 12 -2 23 -1 23 3 6 39 3 518 -4 552 -5 25 -20 59 -33 76 -25 33
-36 38 -359 139 -82 26 -168 53 -190 60 -22 8 -134 44 -250 80 -115 37 -309
98 -430 137 -342 109 -449 143 -600 191 -149 47 -451 143 -650 207 -66 21
-208 66 -315 100 -107 33 -206 65 -220 70 -14 5 -117 38 -230 73 -263 84 -569
181 -789 251 -96 31 -179 56 -185 56 -8 0 -11 -142 -10 -487z"
    />
    <path
      d="M3250 1829 c0 -371 2 -407 19 -444 20 -46 55 -86 88 -104 31 -16
2195 -16 2225 0 45 24 51 65 52 362 1 152 -1 277 -4 277 -3 0 -72 9 -155 19
-82 11 -172 23 -200 26 -27 4 -60 8 -71 10 -12 2 -48 6 -80 10 -33 4 -70 9
-84 11 -32 5 -160 22 -225 29 -27 4 -61 8 -75 10 -39 6 -94 13 -230 30 -69 9
-132 18 -140 20 -8 2 -46 7 -85 10 -38 4 -72 8 -75 10 -3 2 -34 6 -70 9 -36 4
-92 11 -125 16 -33 5 -85 12 -115 15 -30 3 -66 8 -80 10 -14 2 -81 11 -150 20
-69 9 -136 18 -150 20 -64 9 -109 15 -155 20 -27 3 -65 8 -82 11 l-33 6 0
-403z"
    />
  </g>
</svg>
